<?xml version="1.0" encoding="utf-8"?>
<!-- Generator: Adobe Illustrator 27.5.0, SVG Export Plug-In . SVG Version: 6.00 Build 0)  -->
<svg version="1.1" id="Layer_1" xmlns="http://www.w3.org/2000/svg" xmlns:xlink="http://www.w3.org/1999/xlink" x="0px" y="0px"
	 viewBox="0 0 200.511 118.705" style="enable-background:new 0 0 200.511 118.705;" xml:space="preserve">
<g>
	<g>
		<path style="fill:#FFFFFF;" d="M175.881,46.556c-0.001,0-0.001,0-0.002,0c-6.268-1.213-13.217-1.618-19.161-1.113
			c-7.624,0.648-14.543,2.697-20.29,5.981c-0.033-0.045-0.065-0.089-0.098-0.134l-0.149-0.207c-0.95-1.317-1.965-2.715-3.093-4.197
			c-0.135-0.553-0.281-1.111-0.439-1.686c-1.792-6.498-7.047-13.721-14.419-19.818c-7.769-6.424-16.742-10.671-25.262-11.957
			c-2.403-0.365-4.76-0.549-7.007-0.549c-6.877,0-11.782,1.689-15.039,3.436c-0.233-0.383-0.514-0.743-0.859-1.056
			c-8.149-7.393-15.419-6.119-19.026-4.703c-0.749,0.294-3.74,1.577-5.346,3.825c-0.614-1.399-1.452-2.587-2.538-3.53
			c-2.333-2.026-4.895-2.21-6.151-2.169c-3.573-0.153-5.929,1.303-7.288,2.57c-3.5,3.264-3.677,8.196-3.677,9.151
			c0,0.962,0.302,1.859,0.806,2.617c-1.112,1.688-1.766,3.673-1.766,5.803c0,2.165,0.687,4.239,1.894,5.992
			c-0.201,0.091-0.417,0.186-0.649,0.289c-1.276,0.562-2.723,1.199-4.22,2.171c-4.024,2.607-3.549,6.077-3.308,7.075
			c0.598,2.491,2.591,4.295,6.061,5.471c0.677,2.575,1.855,5.385,3.411,8.148c-1.787,0.453-3.711,0.505-5.743,0.158
			c-0.853-0.147-1.686-0.221-2.476-0.221c-5.408,0-9.333,3.739-9.333,8.89c0,6.902,6.997,14.593,17.037,14.593
			c1.301,0,2.638-0.128,3.977-0.38c6.733-1.275,10.18-4.573,11.929-7.359c3.042,1.687,6.251,2.859,9.51,3.464
			c3.858,2.067,12.841,5.913,26.249,5.914c9.177,0,18.95-1.765,29.047-5.247c0.045-0.015,0.092-0.033,0.136-0.049
			c0.072-0.027,5.37-2.013,11.407-3.133c-1.165,7.597,1.069,15.656,6.489,23.366c4.699,6.684,11.649,12.7,19.072,16.506
			c1.671,0.853,3.184,1.269,4.625,1.269c1.89,0,3.631-0.73,4.897-2.048c2.644-2.739,2.495-6.859,2.306-12.092
			c-0.093-2.584-0.199-5.513,0.048-8.272c0.426-4.768-0.212-8.676-1.167-11.69c9.08-2.883,19.87-10.672,23.512-13.424
			c2.813-2.126,6.115-3.671,8.525-4.799c3.605-1.685,7.691-3.593,7.136-8.038C194.809,50.224,189.268,49.151,175.881,46.556z"/>
		<path style="fill:#F5F5F5;" d="M108.242,77.373c0.071-0.027,5.37-2.013,11.407-3.133c-1.165,7.597,1.069,15.656,6.489,23.366
			c4.699,6.684,11.65,12.7,19.072,16.506c1.671,0.854,3.184,1.269,4.625,1.269c1.89,0,3.631-0.73,4.897-2.048
			c2.644-2.739,2.495-6.859,2.306-12.092c-0.093-2.584-0.199-5.513,0.048-8.272c0.426-4.768-0.213-8.676-1.167-11.689
			c9.08-2.883,19.87-10.672,23.511-13.424c2.813-2.126,6.115-3.671,8.525-4.799c3.605-1.685,7.691-3.593,7.136-8.038
			c-0.638-5.151-6.179-6.224-19.566-8.819c-0.001,0-0.001,0-0.002,0c-6.268-1.213-13.217-1.618-19.161-1.113
			c-7.624,0.648-14.543,2.697-20.289,5.981c-0.033-0.044-0.065-0.089-0.098-0.134l-0.149-0.207c-0.95-1.317-1.965-2.715-3.093-4.197
			c-0.135-0.553-0.281-1.111-0.439-1.686c-1.792-6.498-7.047-13.721-14.419-19.818c-7.769-6.424-16.742-10.671-25.262-11.958
			c-2.403-0.365-4.76-0.549-7.007-0.549c-6.877,0-11.782,1.689-15.039,3.436c-0.233-0.383-0.514-0.743-0.859-1.056
			c-8.149-7.393-15.419-6.119-19.026-4.703c-0.749,0.294-3.74,1.577-5.346,3.825c-0.614-1.399-1.452-2.587-2.538-3.53
			c-2.333-2.026-4.895-2.21-6.151-2.169c-3.573-0.153-5.929,1.302-7.288,2.57c-3.5,3.264-3.678,8.196-3.678,9.151
			c0,0.962,0.303,1.859,0.806,2.617c-1.112,1.688-1.766,3.672-1.766,5.803c0,2.165,0.687,4.239,1.894,5.992
			c-0.201,0.091-0.418,0.186-0.649,0.289c-1.277,0.562-2.723,1.199-4.22,2.171c-4.024,2.607-3.549,6.077-3.308,7.075
			c0.598,2.491,2.591,4.295,6.061,5.471c0.677,2.575,1.855,5.386,3.411,8.148c-1.787,0.453-3.711,0.505-5.743,0.158
			c-0.853-0.146-1.686-0.221-2.476-0.221c-5.408,0-9.333,3.739-9.333,8.89c0,6.902,6.997,14.593,17.037,14.593
			c1.301,0,2.638-0.128,3.977-0.38c6.733-1.275,10.18-4.573,11.929-7.359c3.042,1.687,6.251,2.859,9.51,3.464
			c3.858,2.067,12.841,5.913,26.249,5.914c9.177,0,18.932-1.818,29.046-5.247C108.15,77.407,108.197,77.39,108.242,77.373z"/>
		<path style="fill:#EBEBEB;" d="M107.885,77.017c0.072-0.027,5.37-2.013,11.407-3.133c-1.165,7.597,1.069,15.656,6.489,23.366
			c4.699,6.684,11.65,12.7,19.072,16.506c1.671,0.853,3.184,1.269,4.625,1.269c1.89,0,3.631-0.73,4.897-2.048
			c2.644-2.739,2.495-6.859,2.306-12.092c-0.093-2.584-0.199-5.513,0.048-8.272c0.426-4.768-0.212-8.676-1.167-11.689
			c9.08-2.883,19.87-10.672,23.512-13.424c2.813-2.126,6.115-3.671,8.525-4.799c3.605-1.685,7.691-3.593,7.136-8.038
			c-0.638-5.151-6.179-6.224-19.566-8.819c-0.001,0-0.001,0-0.002,0c-6.268-1.213-13.217-1.618-19.161-1.113
			c-7.624,0.648-14.543,2.697-20.289,5.981c-0.033-0.045-0.065-0.089-0.098-0.135l-0.149-0.207c-0.95-1.317-1.965-2.715-3.093-4.197
			c-0.135-0.553-0.281-1.111-0.439-1.686c-1.792-6.498-7.047-13.721-14.419-19.818c-7.769-6.424-16.742-10.671-25.262-11.957
			c-2.403-0.365-4.76-0.549-7.007-0.549c-6.877,0-11.782,1.689-15.039,3.436c-0.233-0.383-0.514-0.743-0.859-1.056
			C61.202,7.15,53.932,8.424,50.325,9.84c-0.749,0.294-3.74,1.577-5.346,3.825c-0.614-1.399-1.452-2.587-2.539-3.53
			c-2.333-2.026-4.895-2.21-6.151-2.169c-3.573-0.153-5.929,1.303-7.288,2.57c-3.5,3.264-3.677,8.196-3.677,9.151
			c0,0.962,0.302,1.859,0.806,2.617c-1.112,1.688-1.766,3.673-1.766,5.803c0,2.164,0.687,4.239,1.894,5.992
			c-0.201,0.091-0.417,0.186-0.649,0.288c-1.276,0.562-2.723,1.199-4.22,2.171c-4.024,2.607-3.55,6.077-3.308,7.075
			c0.598,2.491,2.591,4.295,6.061,5.471c0.677,2.575,1.855,5.385,3.411,8.148c-1.787,0.453-3.711,0.505-5.743,0.158
			c-0.853-0.147-1.686-0.221-2.476-0.221c-5.408,0-9.333,3.739-9.333,8.89c0,6.902,6.997,14.593,17.037,14.593
			c1.301,0,2.638-0.128,3.977-0.38c6.733-1.275,10.18-4.573,11.929-7.359c3.042,1.687,6.251,2.859,9.51,3.464
			c3.858,2.067,12.841,5.914,26.249,5.914c9.177,0,18.932-1.818,29.047-5.247C107.794,77.051,107.841,77.033,107.885,77.017z"/>
		<path style="fill:#E1E1E1;" d="M107.529,76.66c0.071-0.027,5.37-2.013,11.407-3.133c-1.165,7.597,1.069,15.656,6.489,23.366
			c4.699,6.684,11.65,12.7,19.072,16.506c1.671,0.854,3.184,1.269,4.625,1.269c1.89,0,3.631-0.73,4.897-2.048
			c2.644-2.739,2.495-6.859,2.306-12.092c-0.093-2.584-0.199-5.513,0.048-8.272c0.426-4.768-0.212-8.676-1.167-11.689
			c9.08-2.883,19.87-10.672,23.512-13.424c2.813-2.126,6.115-3.671,8.525-4.799c3.605-1.685,7.691-3.593,7.136-8.038
			c-0.638-5.151-6.179-6.224-19.566-8.819c-0.001,0-0.001,0-0.002,0c-6.268-1.212-13.217-1.618-19.161-1.113
			c-7.624,0.649-14.543,2.697-20.29,5.981c-0.033-0.045-0.065-0.089-0.098-0.135l-0.149-0.207c-0.95-1.317-1.965-2.715-3.093-4.197
			c-0.135-0.553-0.281-1.111-0.439-1.686c-1.792-6.498-7.047-13.721-14.419-19.818c-7.769-6.424-16.742-10.671-25.262-11.958
			c-2.403-0.365-4.76-0.549-7.007-0.549c-6.877,0-11.782,1.689-15.039,3.436c-0.233-0.383-0.514-0.743-0.859-1.056
			c-8.149-7.393-15.419-6.119-19.026-4.703c-0.749,0.294-3.74,1.577-5.346,3.825c-0.614-1.399-1.452-2.587-2.539-3.53
			c-2.333-2.026-4.895-2.21-6.151-2.169c-3.573-0.153-5.929,1.303-7.288,2.57c-3.5,3.264-3.678,8.196-3.678,9.151
			c0,0.962,0.302,1.859,0.806,2.617c-1.112,1.688-1.766,3.672-1.766,5.803c0,2.165,0.687,4.239,1.894,5.992
			c-0.201,0.091-0.417,0.186-0.649,0.289c-1.276,0.562-2.723,1.199-4.22,2.171c-4.024,2.607-3.549,6.077-3.308,7.075
			c0.598,2.491,2.591,4.296,6.061,5.471c0.677,2.575,1.855,5.385,3.411,8.148c-1.787,0.453-3.711,0.505-5.743,0.158
			c-0.853-0.146-1.686-0.221-2.476-0.221c-5.408,0-9.333,3.739-9.333,8.89c0,6.902,6.997,14.593,17.037,14.593
			c1.301,0,2.638-0.128,3.977-0.38c6.733-1.275,10.18-4.573,11.929-7.359c3.042,1.687,6.251,2.859,9.51,3.464
			c3.858,2.067,12.841,5.913,26.249,5.914c9.177,0,18.932-1.818,29.046-5.247C107.437,76.694,107.485,76.677,107.529,76.66z"/>
		<path style="fill:#D7D7D7;" d="M107.173,76.304c0.072-0.027,5.37-2.013,11.407-3.133c-1.165,7.597,1.069,15.656,6.489,23.366
			c4.699,6.684,11.649,12.7,19.072,16.506c1.671,0.853,3.184,1.269,4.625,1.269c1.89,0,3.631-0.73,4.897-2.048
			c2.644-2.739,2.495-6.859,2.306-12.092c-0.093-2.584-0.198-5.513,0.048-8.272c0.426-4.768-0.212-8.676-1.167-11.689
			c9.08-2.883,19.87-10.672,23.512-13.424c2.813-2.125,6.115-3.671,8.525-4.799c3.605-1.685,7.691-3.593,7.136-8.038
			c-0.638-5.151-6.179-6.224-19.566-8.819c-0.001,0-0.001,0-0.002,0c-6.268-1.213-13.217-1.618-19.161-1.113
			c-7.624,0.648-14.543,2.697-20.29,5.981c-0.033-0.045-0.065-0.089-0.097-0.134l-0.149-0.207c-0.95-1.317-1.965-2.715-3.093-4.197
			c-0.135-0.553-0.281-1.111-0.439-1.686c-1.792-6.498-7.047-13.721-14.419-19.818c-7.769-6.424-16.742-10.671-25.262-11.958
			c-2.403-0.365-4.76-0.549-7.007-0.549c-6.877,0-11.782,1.689-15.039,3.436c-0.233-0.383-0.514-0.743-0.859-1.056
			C60.489,6.437,53.22,7.711,49.613,9.128c-0.749,0.294-3.74,1.577-5.346,3.825c-0.614-1.399-1.452-2.587-2.538-3.53
			c-2.333-2.026-4.895-2.21-6.151-2.169c-3.573-0.153-5.929,1.303-7.288,2.57c-3.5,3.264-3.677,8.196-3.677,9.151
			c0,0.962,0.302,1.859,0.806,2.617c-1.112,1.688-1.766,3.672-1.766,5.803c0,2.164,0.687,4.239,1.894,5.992
			c-0.201,0.091-0.417,0.186-0.649,0.288c-1.277,0.562-2.723,1.199-4.22,2.171c-4.024,2.607-3.549,6.077-3.308,7.075
			c0.598,2.491,2.591,4.295,6.061,5.471c0.677,2.575,1.855,5.385,3.411,8.148c-1.787,0.453-3.711,0.505-5.743,0.158
			c-0.853-0.147-1.686-0.221-2.476-0.221c-5.408,0-9.333,3.739-9.333,8.89c0,6.902,6.997,14.593,17.037,14.593
			c1.301,0,2.638-0.128,3.977-0.38c6.733-1.275,10.18-4.573,11.929-7.359c3.042,1.687,6.251,2.859,9.51,3.464
			c3.858,2.067,12.841,5.914,26.249,5.914c9.177,0,18.932-1.818,29.047-5.247C107.081,76.338,107.129,76.321,107.173,76.304z"/>
		<path style="fill:#CDCDCD;" d="M106.817,75.948c0.071-0.027,5.37-2.013,11.406-3.133c-1.165,7.597,1.069,15.656,6.489,23.366
			c4.699,6.684,11.65,12.7,19.072,16.506c1.671,0.854,3.184,1.269,4.625,1.269c1.89,0,3.631-0.73,4.897-2.048
			c2.644-2.739,2.495-6.859,2.306-12.092c-0.093-2.584-0.199-5.513,0.048-8.272c0.426-4.768-0.213-8.676-1.167-11.689
			c9.08-2.883,19.87-10.672,23.511-13.424c2.813-2.125,6.115-3.671,8.525-4.799c3.605-1.685,7.691-3.593,7.136-8.038
			c-0.638-5.151-6.179-6.224-19.566-8.819c-0.001,0-0.001,0-0.002,0c-6.268-1.213-13.217-1.618-19.161-1.113
			c-7.624,0.648-14.543,2.697-20.289,5.981c-0.033-0.044-0.065-0.089-0.098-0.134l-0.149-0.207c-0.95-1.317-1.965-2.715-3.093-4.197
			c-0.135-0.553-0.281-1.111-0.439-1.686c-1.792-6.498-7.047-13.721-14.419-19.818c-7.769-6.424-16.742-10.671-25.262-11.958
			c-2.403-0.365-4.76-0.549-7.007-0.549c-6.877,0-11.782,1.689-15.039,3.436c-0.233-0.383-0.514-0.743-0.859-1.056
			c-8.149-7.393-15.419-6.119-19.026-4.703c-0.749,0.294-3.74,1.577-5.346,3.825c-0.614-1.399-1.452-2.587-2.538-3.53
			c-2.333-2.026-4.895-2.21-6.151-2.169c-3.573-0.153-5.929,1.302-7.288,2.57c-3.5,3.264-3.678,8.196-3.678,9.151
			c0,0.962,0.302,1.859,0.806,2.617c-1.112,1.688-1.766,3.673-1.766,5.803c0,2.164,0.687,4.239,1.894,5.992
			c-0.201,0.091-0.417,0.186-0.649,0.289c-1.276,0.562-2.723,1.199-4.22,2.171c-4.024,2.607-3.549,6.077-3.308,7.075
			c0.598,2.491,2.591,4.295,6.061,5.471c0.677,2.575,1.855,5.386,3.411,8.148c-1.787,0.453-3.711,0.505-5.743,0.158
			c-0.853-0.146-1.686-0.221-2.476-0.221c-5.408,0-9.333,3.739-9.333,8.89c0,6.902,6.997,14.593,17.037,14.593
			c1.301,0,2.638-0.128,3.977-0.38c6.733-1.275,10.18-4.573,11.929-7.359c3.042,1.687,6.251,2.859,9.51,3.464
			c3.858,2.067,12.841,5.913,26.249,5.914c9.177,0,18.932-1.818,29.046-5.247C106.725,75.982,106.772,75.965,106.817,75.948z"/>
		<path style="fill:#C3C3C3;" d="M106.461,75.591c0.071-0.027,5.37-2.013,11.407-3.133c-1.165,7.597,1.069,15.656,6.489,23.366
			c4.699,6.684,11.65,12.7,19.072,16.506c1.671,0.853,3.184,1.269,4.625,1.269c1.89,0,3.631-0.73,4.897-2.048
			c2.644-2.739,2.495-6.859,2.306-12.092c-0.093-2.584-0.199-5.513,0.048-8.272c0.426-4.768-0.212-8.676-1.167-11.689
			c9.08-2.883,19.87-10.672,23.512-13.424c2.813-2.125,6.115-3.671,8.525-4.799c3.605-1.685,7.691-3.593,7.136-8.038
			c-0.638-5.151-6.179-6.224-19.566-8.819c-0.001,0-0.001,0-0.002,0c-6.268-1.213-13.217-1.618-19.161-1.113
			c-7.624,0.648-14.543,2.697-20.29,5.981c-0.033-0.045-0.065-0.089-0.098-0.134l-0.149-0.207c-0.95-1.317-1.965-2.716-3.093-4.197
			c-0.135-0.553-0.281-1.111-0.439-1.686c-1.792-6.498-7.047-13.721-14.419-19.818c-7.769-6.424-16.742-10.671-25.262-11.958
			c-2.403-0.365-4.76-0.549-7.007-0.549c-6.877,0-11.782,1.689-15.039,3.436c-0.233-0.383-0.514-0.743-0.859-1.056
			C59.777,5.725,52.507,6.999,48.9,8.415c-0.749,0.294-3.74,1.577-5.346,3.825c-0.614-1.399-1.452-2.587-2.539-3.53
			c-2.333-2.026-4.895-2.21-6.151-2.169c-3.573-0.153-5.929,1.303-7.288,2.57c-3.5,3.264-3.677,8.196-3.677,9.151
			c0,0.962,0.302,1.859,0.806,2.617c-1.112,1.688-1.766,3.672-1.766,5.803c0,2.164,0.687,4.239,1.894,5.992
			c-0.201,0.091-0.417,0.186-0.649,0.289c-1.277,0.562-2.723,1.199-4.22,2.171c-4.024,2.607-3.549,6.077-3.308,7.075
			c0.598,2.491,2.591,4.295,6.061,5.471c0.677,2.575,1.855,5.385,3.411,8.148c-1.787,0.453-3.711,0.505-5.743,0.158
			c-0.853-0.147-1.686-0.221-2.476-0.221c-5.408,0-9.333,3.739-9.333,8.891c0,6.902,6.997,14.593,17.037,14.593
			c1.301,0,2.638-0.128,3.977-0.38c6.732-1.275,10.18-4.573,11.929-7.359c3.042,1.687,6.251,2.859,9.51,3.464
			c3.858,2.067,12.841,5.913,26.249,5.914c9.177,0,18.932-1.818,29.047-5.247C106.369,75.626,106.416,75.608,106.461,75.591z"/>
		<path style="fill:#B9B9B9;" d="M106.104,75.235c0.071-0.027,5.37-2.013,11.407-3.133c-1.165,7.597,1.069,15.656,6.489,23.366
			c4.699,6.684,11.65,12.7,19.072,16.506c1.671,0.854,3.184,1.269,4.625,1.269c1.89,0,3.631-0.73,4.897-2.048
			c2.644-2.739,2.495-6.859,2.306-12.092c-0.093-2.584-0.199-5.513,0.048-8.272c0.426-4.768-0.212-8.676-1.167-11.689
			c9.08-2.883,19.87-10.672,23.512-13.424c2.813-2.125,6.115-3.671,8.525-4.799c3.605-1.685,7.691-3.593,7.136-8.038
			c-0.638-5.151-6.179-6.224-19.566-8.819c-0.001,0-0.001,0-0.002,0c-6.268-1.213-13.217-1.618-19.161-1.113
			c-7.624,0.648-14.543,2.697-20.29,5.981c-0.033-0.045-0.065-0.089-0.097-0.135l-0.149-0.207c-0.95-1.317-1.965-2.715-3.093-4.197
			c-0.135-0.553-0.281-1.111-0.439-1.686c-1.792-6.498-7.047-13.721-14.419-19.818c-7.769-6.424-16.742-10.671-25.262-11.958
			c-2.403-0.365-4.76-0.549-7.007-0.549c-6.877,0-11.782,1.689-15.039,3.436c-0.233-0.383-0.514-0.743-0.859-1.056
			c-8.149-7.393-15.419-6.119-19.026-4.703c-0.749,0.294-3.74,1.577-5.346,3.825c-0.614-1.399-1.452-2.587-2.539-3.53
			c-2.333-2.026-4.895-2.21-6.151-2.169c-3.573-0.153-5.929,1.303-7.288,2.57c-3.5,3.264-3.678,8.196-3.678,9.151
			c0,0.962,0.302,1.859,0.806,2.617c-1.112,1.688-1.766,3.673-1.766,5.803c0,2.164,0.687,4.239,1.894,5.992
			c-0.201,0.091-0.417,0.186-0.649,0.289c-1.277,0.562-2.723,1.199-4.22,2.171c-4.024,2.607-3.549,6.077-3.308,7.075
			c0.598,2.491,2.591,4.296,6.061,5.471c0.677,2.575,1.855,5.385,3.411,8.148c-1.787,0.453-3.711,0.505-5.743,0.158
			c-0.853-0.146-1.686-0.221-2.476-0.221c-5.408,0-9.333,3.739-9.333,8.89c0,6.902,6.997,14.593,17.037,14.593
			c1.301,0,2.638-0.128,3.977-0.38c6.733-1.275,10.18-4.573,11.929-7.359c3.042,1.687,6.251,2.859,9.51,3.464
			c3.858,2.067,12.841,5.913,26.249,5.914c9.177,0,18.932-1.818,29.046-5.247C106.012,75.269,106.06,75.252,106.104,75.235z"/>
		<path style="fill:#B0B0B0;" d="M105.748,74.879c0.072-0.027,5.37-2.013,11.407-3.133c-1.165,7.597,1.069,15.656,6.489,23.366
			c4.699,6.684,11.649,12.7,19.072,16.506c1.671,0.853,3.184,1.269,4.625,1.269c1.89,0,3.631-0.73,4.897-2.048
			c2.644-2.739,2.495-6.859,2.306-12.092c-0.093-2.584-0.199-5.513,0.048-8.272c0.426-4.768-0.212-8.676-1.167-11.689
			c9.08-2.883,19.87-10.672,23.512-13.424c2.813-2.125,6.115-3.671,8.525-4.799c3.605-1.685,7.691-3.593,7.136-8.038
			c-0.638-5.151-6.179-6.224-19.566-8.819c-0.001,0-0.001,0-0.002,0c-6.268-1.213-13.217-1.618-19.161-1.113
			c-7.624,0.648-14.543,2.697-20.29,5.981c-0.032-0.045-0.065-0.089-0.097-0.134l-0.149-0.207c-0.95-1.317-1.965-2.715-3.093-4.197
			c-0.135-0.553-0.281-1.111-0.439-1.686c-1.792-6.498-7.047-13.721-14.419-19.818c-7.769-6.424-16.742-10.671-25.262-11.958
			c-2.403-0.365-4.76-0.549-7.007-0.549c-6.877,0-11.782,1.689-15.039,3.436c-0.233-0.383-0.514-0.743-0.859-1.056
			c-8.149-7.393-15.419-6.119-19.026-4.703c-0.749,0.294-3.74,1.577-5.346,3.825c-0.614-1.399-1.452-2.587-2.539-3.53
			c-2.333-2.026-4.895-2.21-6.151-2.169c-3.573-0.153-5.929,1.303-7.288,2.57c-3.5,3.264-3.678,8.196-3.678,9.151
			c0,0.962,0.303,1.859,0.806,2.617c-1.112,1.688-1.766,3.673-1.766,5.803c0,2.164,0.687,4.239,1.894,5.992
			c-0.201,0.091-0.417,0.186-0.649,0.288c-1.277,0.562-2.723,1.199-4.22,2.171c-4.024,2.607-3.55,6.077-3.308,7.075
			c0.598,2.491,2.591,4.295,6.061,5.471c0.677,2.575,1.855,5.385,3.411,8.148c-1.787,0.453-3.711,0.505-5.743,0.158
			c-0.853-0.147-1.686-0.221-2.476-0.221c-5.408,0-9.333,3.739-9.333,8.891c0,6.902,6.997,14.593,17.037,14.593
			c1.301,0,2.638-0.128,3.977-0.38c6.733-1.275,10.18-4.573,11.929-7.359c3.042,1.687,6.251,2.859,9.51,3.464
			c3.858,2.067,12.841,5.913,26.249,5.914c9.177,0,18.932-1.818,29.047-5.247C105.656,74.913,105.704,74.896,105.748,74.879z"/>
		<path style="fill:#A6A6A6;" d="M105.392,74.523c0.071-0.027,5.37-2.013,11.407-3.133c-1.165,7.597,1.069,15.656,6.489,23.366
			c4.699,6.684,11.65,12.7,19.072,16.506c1.671,0.854,3.184,1.269,4.625,1.269c1.89,0,3.631-0.73,4.897-2.048
			c2.644-2.739,2.495-6.859,2.306-12.092c-0.093-2.584-0.199-5.513,0.048-8.272c0.426-4.768-0.212-8.676-1.167-11.69
			c9.08-2.883,19.87-10.672,23.512-13.424c2.813-2.126,6.115-3.671,8.525-4.799c3.605-1.685,7.691-3.593,7.136-8.038
			c-0.638-5.151-6.179-6.224-19.566-8.819c-0.001,0-0.001,0-0.002,0c-6.268-1.212-13.217-1.618-19.161-1.113
			c-7.624,0.649-14.543,2.697-20.29,5.981c-0.033-0.044-0.065-0.089-0.098-0.134l-0.149-0.207c-0.95-1.317-1.965-2.715-3.093-4.197
			c-0.135-0.553-0.281-1.11-0.439-1.686c-1.792-6.498-7.047-13.721-14.419-19.818c-7.769-6.424-16.742-10.671-25.262-11.958
			c-2.403-0.365-4.76-0.549-7.007-0.549c-6.877,0-11.782,1.689-15.039,3.436c-0.233-0.383-0.514-0.743-0.859-1.056
			C58.708,4.656,51.438,5.93,47.832,7.346c-0.749,0.294-3.74,1.577-5.346,3.825c-0.614-1.399-1.452-2.587-2.538-3.53
			c-2.333-2.026-4.895-2.21-6.151-2.169c-3.573-0.153-5.929,1.303-7.288,2.57c-3.5,3.264-3.678,8.196-3.678,9.151
			c0,0.962,0.302,1.859,0.806,2.617c-1.112,1.688-1.766,3.673-1.766,5.803c0,2.164,0.687,4.239,1.894,5.992
			c-0.201,0.091-0.417,0.186-0.649,0.289c-1.277,0.562-2.723,1.199-4.22,2.171c-4.025,2.607-3.55,6.077-3.308,7.075
			c0.598,2.491,2.591,4.296,6.061,5.471c0.677,2.575,1.855,5.385,3.411,8.148c-1.787,0.453-3.711,0.505-5.743,0.158
			c-0.853-0.146-1.686-0.221-2.476-0.221c-5.408,0-9.333,3.739-9.333,8.89c0,6.902,6.997,14.593,17.037,14.593
			c1.301,0,2.638-0.128,3.977-0.38c6.733-1.275,10.18-4.573,11.929-7.359c3.042,1.686,6.251,2.859,9.51,3.464
			c3.858,2.067,12.841,5.913,26.249,5.914c9.177,0,18.932-1.818,29.046-5.247C105.3,74.557,105.347,74.539,105.392,74.523z"/>
		<path style="fill:#9C9C9C;" d="M105.035,74.166c0.072-0.027,5.37-2.013,11.407-3.133c-1.165,7.597,1.069,15.656,6.489,23.366
			c4.699,6.684,11.649,12.7,19.072,16.506c1.671,0.853,3.184,1.269,4.625,1.269c1.89,0,3.631-0.73,4.897-2.048
			c2.644-2.739,2.495-6.859,2.306-12.092c-0.093-2.584-0.199-5.513,0.048-8.272c0.426-4.768-0.212-8.676-1.167-11.69
			c9.08-2.883,19.87-10.672,23.512-13.424c2.813-2.126,6.115-3.671,8.525-4.799c3.605-1.685,7.691-3.593,7.136-8.038
			c-0.638-5.151-6.179-6.224-19.566-8.819c-0.001,0-0.001,0-0.002,0c-6.268-1.213-13.217-1.618-19.161-1.113
			c-7.624,0.648-14.543,2.697-20.29,5.981c-0.033-0.045-0.065-0.089-0.098-0.134l-0.149-0.207c-0.95-1.317-1.965-2.715-3.093-4.197
			c-0.135-0.553-0.281-1.111-0.439-1.686c-1.792-6.498-7.047-13.721-14.419-19.818c-7.769-6.424-16.742-10.671-25.262-11.957
			c-2.403-0.365-4.76-0.549-7.007-0.549c-6.877,0-11.782,1.689-15.039,3.436c-0.233-0.383-0.514-0.743-0.859-1.056
			C58.352,4.3,51.082,5.574,47.475,6.99c-0.749,0.294-3.74,1.577-5.346,3.825c-0.614-1.399-1.452-2.587-2.538-3.53
			c-2.333-2.026-4.895-2.21-6.151-2.169c-3.573-0.153-5.929,1.303-7.288,2.57c-3.5,3.264-3.677,8.196-3.677,9.151
			c0,0.962,0.302,1.859,0.806,2.617c-1.112,1.688-1.766,3.673-1.766,5.803c0,2.165,0.687,4.239,1.894,5.992
			c-0.201,0.091-0.417,0.186-0.649,0.288c-1.276,0.562-2.723,1.199-4.22,2.171c-4.025,2.607-3.55,6.077-3.308,7.075
			c0.598,2.491,2.591,4.295,6.061,5.471c0.677,2.575,1.855,5.385,3.411,8.148c-1.787,0.453-3.711,0.505-5.743,0.158
			c-0.853-0.147-1.686-0.221-2.476-0.221c-5.408,0-9.333,3.739-9.333,8.89c0,6.902,6.997,14.593,17.037,14.593
			c1.301,0,2.638-0.128,3.977-0.38c6.733-1.275,10.18-4.573,11.929-7.359c3.042,1.687,6.251,2.859,9.51,3.464
			c3.858,2.067,12.841,5.913,26.249,5.914c9.177,0,18.932-1.818,29.047-5.247C104.944,74.201,104.991,74.183,105.035,74.166z"/>
		<path style="fill:#929292;" d="M104.679,73.81c0.071-0.027,5.37-2.013,11.407-3.133c-1.165,7.597,1.069,15.656,6.489,23.366
			c4.699,6.684,11.65,12.7,19.072,16.506c1.671,0.854,3.184,1.269,4.625,1.269c1.89,0,3.631-0.73,4.897-2.048
			c2.644-2.739,2.495-6.859,2.306-12.092c-0.093-2.584-0.199-5.513,0.048-8.272c0.426-4.768-0.213-8.676-1.167-11.689
			c9.08-2.883,19.87-10.672,23.511-13.424c2.813-2.126,6.115-3.671,8.525-4.799c3.605-1.685,7.691-3.593,7.136-8.038
			c-0.638-5.151-6.179-6.224-19.566-8.819c-0.001,0-0.001,0-0.002,0c-6.268-1.213-13.217-1.618-19.161-1.113
			c-7.624,0.648-14.543,2.697-20.289,5.981c-0.033-0.044-0.065-0.089-0.098-0.134l-0.149-0.207c-0.95-1.317-1.965-2.715-3.093-4.197
			c-0.135-0.553-0.281-1.111-0.439-1.686c-1.792-6.498-7.047-13.721-14.419-19.818C106.543,15.039,97.57,10.792,89.05,9.505
			c-2.403-0.365-4.76-0.549-7.007-0.549c-6.877,0-11.782,1.689-15.039,3.436c-0.233-0.383-0.514-0.743-0.859-1.056
			c-8.149-7.393-15.419-6.119-19.026-4.703c-0.749,0.294-3.74,1.577-5.346,3.825c-0.614-1.399-1.452-2.587-2.538-3.53
			c-2.333-2.026-4.895-2.21-6.151-2.169c-3.573-0.153-5.929,1.302-7.288,2.57c-3.5,3.264-3.678,8.196-3.678,9.151
			c0,0.962,0.303,1.859,0.806,2.617c-1.112,1.688-1.766,3.672-1.766,5.803c0,2.165,0.687,4.239,1.894,5.992
			c-0.201,0.091-0.418,0.186-0.649,0.289c-1.277,0.562-2.723,1.199-4.22,2.171c-4.024,2.607-3.549,6.077-3.308,7.075
			c0.598,2.491,2.591,4.295,6.061,5.471c0.677,2.575,1.855,5.386,3.411,8.148c-1.787,0.453-3.711,0.505-5.743,0.158
			c-0.853-0.146-1.686-0.221-2.476-0.221c-5.408,0-9.333,3.739-9.333,8.89c0,6.902,6.997,14.593,17.037,14.593
			c1.301,0,2.638-0.128,3.977-0.38c6.733-1.275,10.18-4.573,11.929-7.359c3.042,1.687,6.251,2.859,9.51,3.464
			c3.858,2.067,12.841,5.913,26.249,5.914c9.177,0,18.932-1.818,29.046-5.247C104.587,73.844,104.635,73.827,104.679,73.81z"/>
		<path style="fill:#888888;" d="M104.323,73.454c0.072-0.027,5.37-2.013,11.407-3.133c-1.165,7.597,1.069,15.656,6.489,23.366
			c4.699,6.684,11.65,12.7,19.072,16.506c1.671,0.853,3.184,1.269,4.625,1.269c1.89,0,3.631-0.73,4.897-2.048
			c2.644-2.739,2.495-6.859,2.306-12.092c-0.093-2.584-0.199-5.513,0.048-8.272c0.426-4.768-0.212-8.676-1.167-11.689
			c9.08-2.883,19.87-10.672,23.512-13.424c2.813-2.125,6.115-3.671,8.525-4.799c3.605-1.685,7.691-3.593,7.136-8.038
			c-0.638-5.151-6.179-6.224-19.566-8.819c-0.001,0-0.001,0-0.002,0c-6.268-1.213-13.217-1.618-19.161-1.113
			c-7.624,0.648-14.543,2.697-20.289,5.981c-0.033-0.045-0.065-0.089-0.098-0.135l-0.149-0.207c-0.95-1.317-1.965-2.715-3.093-4.197
			c-0.135-0.553-0.281-1.111-0.439-1.686c-1.792-6.498-7.047-13.721-14.419-19.818c-7.769-6.424-16.742-10.671-25.262-11.957
			C86.291,8.785,83.933,8.6,81.686,8.6c-6.877,0-11.782,1.689-15.039,3.436c-0.233-0.383-0.514-0.743-0.859-1.056
			C57.639,3.587,50.37,4.861,46.763,6.278c-0.749,0.294-3.74,1.577-5.346,3.825c-0.614-1.399-1.452-2.587-2.539-3.53
			c-2.333-2.026-4.895-2.21-6.151-2.169c-3.573-0.153-5.929,1.303-7.288,2.57c-3.5,3.264-3.677,8.196-3.677,9.151
			c0,0.962,0.302,1.859,0.806,2.617c-1.112,1.688-1.766,3.673-1.766,5.803c0,2.164,0.687,4.239,1.894,5.992
			c-0.201,0.091-0.417,0.186-0.649,0.288c-1.276,0.562-2.723,1.199-4.22,2.171c-4.025,2.607-3.55,6.077-3.308,7.075
			c0.598,2.491,2.591,4.295,6.061,5.471c0.677,2.575,1.855,5.385,3.411,8.148c-1.787,0.453-3.711,0.505-5.743,0.158
			c-0.853-0.147-1.686-0.221-2.476-0.221c-5.408,0-9.333,3.739-9.333,8.89c0,6.902,6.997,14.593,17.037,14.593
			c1.301,0,2.638-0.128,3.977-0.38c6.733-1.275,10.18-4.573,11.929-7.359c3.042,1.687,6.251,2.859,9.51,3.464
			c3.858,2.067,12.841,5.914,26.249,5.914c9.177,0,18.932-1.818,29.047-5.247C104.231,73.488,104.279,73.471,104.323,73.454z"/>
		<path style="fill:#7E7E7E;" d="M103.967,73.098c0.071-0.027,5.37-2.013,11.407-3.133c-1.165,7.597,1.069,15.656,6.489,23.366
			c4.699,6.684,11.65,12.7,19.072,16.506c1.671,0.854,3.184,1.269,4.625,1.269c1.89,0,3.631-0.73,4.897-2.048
			c2.644-2.739,2.495-6.859,2.306-12.092c-0.093-2.584-0.199-5.513,0.048-8.272c0.426-4.768-0.212-8.676-1.167-11.689
			c9.08-2.883,19.87-10.672,23.512-13.424c2.813-2.125,6.115-3.671,8.525-4.799c3.605-1.685,7.691-3.593,7.136-8.038
			c-0.638-5.151-6.179-6.224-19.566-8.819c-0.001,0-0.001,0-0.002,0c-6.268-1.212-13.217-1.618-19.161-1.113
			c-7.624,0.649-14.543,2.697-20.29,5.981c-0.033-0.045-0.065-0.089-0.098-0.135l-0.149-0.207c-0.95-1.317-1.965-2.715-3.093-4.197
			c-0.135-0.553-0.281-1.111-0.439-1.686c-1.792-6.498-7.047-13.721-14.419-19.818c-7.769-6.424-16.742-10.671-25.262-11.958
			c-2.403-0.365-4.76-0.549-7.007-0.549c-6.877,0-11.782,1.689-15.039,3.436c-0.233-0.383-0.514-0.743-0.859-1.056
			c-8.149-7.393-15.419-6.119-19.026-4.703c-0.749,0.294-3.74,1.577-5.346,3.825c-0.614-1.399-1.452-2.587-2.539-3.53
			c-2.333-2.026-4.895-2.21-6.151-2.169c-3.573-0.153-5.929,1.302-7.288,2.57c-3.5,3.264-3.678,8.196-3.678,9.151
			c0,0.962,0.302,1.859,0.806,2.617c-1.112,1.688-1.766,3.672-1.766,5.803c0,2.165,0.687,4.239,1.894,5.992
			c-0.201,0.091-0.417,0.186-0.649,0.289c-1.276,0.562-2.723,1.199-4.22,2.171c-4.024,2.607-3.549,6.077-3.308,7.075
			c0.598,2.491,2.591,4.296,6.061,5.471c0.677,2.575,1.855,5.385,3.411,8.148c-1.787,0.453-3.711,0.505-5.743,0.158
			c-0.853-0.146-1.686-0.221-2.476-0.221c-5.408,0-9.333,3.739-9.333,8.89c0,6.902,6.997,14.593,17.037,14.593
			c1.301,0,2.638-0.128,3.977-0.38c6.733-1.275,10.18-4.573,11.929-7.359c3.042,1.687,6.251,2.859,9.51,3.464
			c3.858,2.067,12.841,5.913,26.249,5.914c9.177,0,18.932-1.818,29.046-5.247C103.875,73.132,103.922,73.115,103.967,73.098z"/>
		<path style="fill:#747474;" d="M103.61,72.742c0.072-0.027,5.37-2.013,11.407-3.133c-1.165,7.597,1.069,15.656,6.489,23.366
			c4.699,6.684,11.649,12.7,19.072,16.506c1.671,0.853,3.184,1.269,4.625,1.269c1.89,0,3.631-0.73,4.897-2.048
			c2.644-2.739,2.495-6.859,2.306-12.092c-0.093-2.584-0.198-5.513,0.048-8.272c0.426-4.768-0.212-8.676-1.167-11.689
			c9.08-2.883,19.87-10.672,23.512-13.424c2.813-2.125,6.115-3.671,8.525-4.799c3.605-1.685,7.691-3.593,7.136-8.038
			c-0.638-5.151-6.179-6.224-19.566-8.819c-0.001,0-0.001,0-0.002,0c-6.268-1.213-13.217-1.618-19.161-1.113
			c-7.624,0.648-14.543,2.697-20.29,5.981c-0.033-0.045-0.065-0.089-0.097-0.134l-0.149-0.207c-0.95-1.317-1.965-2.715-3.093-4.197
			c-0.135-0.553-0.281-1.111-0.439-1.686c-1.792-6.498-7.047-13.721-14.419-19.818C105.474,13.97,96.501,9.723,87.981,8.437
			c-2.403-0.365-4.76-0.549-7.007-0.549c-6.877,0-11.782,1.689-15.039,3.436c-0.233-0.383-0.514-0.743-0.859-1.056
			C56.927,2.875,49.657,4.149,46.05,5.565c-0.749,0.294-3.74,1.577-5.346,3.825c-0.614-1.399-1.452-2.587-2.538-3.53
			c-2.333-2.026-4.895-2.21-6.151-2.169c-3.573-0.153-5.929,1.303-7.288,2.57c-3.5,3.264-3.677,8.196-3.677,9.151
			c0,0.962,0.302,1.859,0.806,2.617c-1.112,1.688-1.766,3.672-1.766,5.803c0,2.164,0.687,4.239,1.894,5.992
			c-0.201,0.091-0.417,0.186-0.649,0.288c-1.277,0.562-2.723,1.199-4.22,2.171c-4.024,2.607-3.549,6.077-3.308,7.075
			c0.598,2.491,2.591,4.295,6.061,5.471c0.677,2.575,1.855,5.385,3.411,8.148c-1.787,0.453-3.711,0.505-5.743,0.158
			c-0.853-0.147-1.686-0.221-2.476-0.221c-5.408,0-9.333,3.739-9.333,8.89c0,6.902,6.997,14.593,17.037,14.593
			c1.301,0,2.638-0.128,3.977-0.38c6.733-1.275,10.18-4.573,11.929-7.359c3.042,1.687,6.251,2.859,9.51,3.464
			c3.858,2.067,12.841,5.914,26.249,5.914c9.177,0,18.932-1.818,29.047-5.247C103.519,72.776,103.566,72.758,103.61,72.742z"/>
		<path style="fill:#6A6A6A;" d="M103.254,72.385c0.071-0.027,5.37-2.013,11.406-3.133c-1.165,7.597,1.069,15.656,6.489,23.366
			c4.699,6.684,11.65,12.7,19.072,16.506c1.671,0.854,3.184,1.269,4.625,1.269c1.89,0,3.631-0.73,4.897-2.048
			c2.644-2.739,2.495-6.859,2.306-12.092c-0.093-2.584-0.199-5.513,0.048-8.272c0.426-4.768-0.213-8.676-1.167-11.689
			c9.08-2.883,19.87-10.672,23.511-13.424c2.813-2.125,6.115-3.671,8.525-4.799c3.605-1.685,7.691-3.593,7.136-8.038
			c-0.638-5.151-6.179-6.224-19.566-8.819c-0.001,0-0.001,0-0.002,0c-6.268-1.213-13.217-1.618-19.161-1.113
			c-7.624,0.648-14.543,2.697-20.289,5.981c-0.033-0.044-0.065-0.089-0.098-0.134l-0.149-0.207c-0.95-1.317-1.965-2.715-3.093-4.197
			c-0.135-0.553-0.281-1.111-0.439-1.686c-1.792-6.498-7.047-13.721-14.419-19.818C105.118,13.614,96.145,9.367,87.625,8.08
			c-2.403-0.365-4.76-0.549-7.007-0.549c-6.877,0-11.782,1.689-15.039,3.436c-0.233-0.383-0.514-0.743-0.859-1.056
			c-8.149-7.393-15.419-6.119-19.026-4.703c-0.749,0.294-3.74,1.577-5.346,3.825c-0.614-1.399-1.452-2.587-2.538-3.53
			c-2.333-2.026-4.895-2.21-6.151-2.169c-3.573-0.153-5.929,1.302-7.288,2.57c-3.5,3.264-3.678,8.196-3.678,9.151
			c0,0.962,0.302,1.859,0.806,2.617c-1.112,1.688-1.766,3.673-1.766,5.803c0,2.164,0.687,4.239,1.894,5.992
			c-0.201,0.091-0.417,0.186-0.649,0.289c-1.276,0.562-2.723,1.199-4.22,2.171c-4.024,2.607-3.549,6.077-3.308,7.075
			c0.598,2.491,2.591,4.295,6.061,5.471c0.677,2.575,1.855,5.386,3.411,8.148c-1.787,0.453-3.711,0.505-5.743,0.158
			c-0.853-0.146-1.686-0.221-2.476-0.221c-5.408,0-9.333,3.739-9.333,8.89c0,6.902,6.997,14.593,17.037,14.593
			c1.301,0,2.638-0.128,3.977-0.38c6.733-1.275,10.18-4.573,11.929-7.359c3.042,1.687,6.251,2.859,9.51,3.464
			c3.858,2.067,12.841,5.913,26.249,5.914c9.177,0,18.932-1.818,29.046-5.247C103.162,72.419,103.21,72.402,103.254,72.385z"/>
		<path style="fill:#606060;" d="M170.181,40.856c-0.001,0-0.001,0-0.002,0c-6.268-1.213-13.217-1.618-19.161-1.113
			c-7.624,0.648-14.543,2.697-20.29,5.981c-0.033-0.045-0.065-0.089-0.098-0.134l-0.149-0.207c-0.95-1.317-1.965-2.716-3.093-4.197
			c-0.135-0.553-0.281-1.111-0.439-1.686c-1.792-6.498-7.047-13.721-14.419-19.818c-7.769-6.424-16.742-10.671-25.262-11.958
			c-2.403-0.365-4.76-0.549-7.007-0.549c-6.877,0-11.782,1.689-15.039,3.436c-0.233-0.383-0.514-0.743-0.859-1.056
			c-8.149-7.393-15.419-6.119-19.026-4.703c-0.749,0.294-3.74,1.577-5.346,3.825c-0.614-1.399-1.452-2.587-2.539-3.53
			c-2.333-2.026-4.895-2.21-6.151-2.169c-3.573-0.153-5.929,1.303-7.288,2.57c-3.5,3.264-3.677,8.196-3.677,9.151
			c0,0.962,0.302,1.859,0.806,2.617c-1.112,1.688-1.766,3.672-1.766,5.803c0,2.164,0.687,4.239,1.894,5.992
			c-0.201,0.091-0.417,0.186-0.649,0.288c-1.277,0.562-2.723,1.199-4.22,2.171c-4.024,2.607-3.549,6.077-3.308,7.075
			c0.598,2.491,2.591,4.295,6.061,5.471c0.677,2.575,1.855,5.385,3.411,8.148c-1.787,0.453-3.711,0.505-5.743,0.158
			c-0.853-0.147-1.686-0.221-2.476-0.221c-5.408,0-9.333,3.739-9.333,8.89c0,6.902,6.997,14.593,17.037,14.593
			c1.301,0,2.638-0.128,3.977-0.38c6.732-1.275,10.18-4.573,11.929-7.359c3.042,1.687,6.251,2.859,9.51,3.464
			c3.858,2.067,12.841,5.913,26.249,5.914c9.177,0,18.95-1.766,29.047-5.247c0.044-0.015,0.092-0.033,0.136-0.049
			c0.071-0.027,5.37-2.013,11.407-3.133c-1.165,7.597,1.069,15.656,6.489,23.366c4.699,6.684,11.65,12.7,19.072,16.506
			c1.671,0.853,3.184,1.269,4.625,1.269c1.89,0,3.631-0.73,4.897-2.048c2.644-2.739,2.495-6.859,2.306-12.092
			c-0.093-2.584-0.199-5.513,0.048-8.272c0.426-4.768-0.212-8.676-1.167-11.689c9.08-2.883,19.87-10.672,23.512-13.424
			c2.813-2.125,6.115-3.671,8.525-4.799c3.605-1.685,7.691-3.593,7.136-8.038C189.109,44.525,183.568,43.451,170.181,40.856z"/>
	</g>
	<g>
		<path style="fill:#FFFFFF;" d="M170.181,40.856c-0.001,0-0.001,0-0.002,0c-6.268-1.213-13.217-1.618-19.161-1.113
			c-7.624,0.648-14.543,2.697-20.29,5.981c-0.033-0.045-0.065-0.089-0.098-0.134l-0.149-0.207c-0.95-1.317-1.965-2.716-3.093-4.197
			c-0.135-0.553-0.281-1.111-0.439-1.686c-1.792-6.498-7.047-13.721-14.419-19.818c-7.769-6.424-16.742-10.671-25.262-11.958
			c-2.403-0.365-4.76-0.549-7.007-0.549c-6.877,0-11.782,1.689-15.039,3.436c-0.233-0.383-0.514-0.743-0.859-1.056
			c-8.149-7.393-15.419-6.119-19.026-4.703c-0.749,0.294-3.74,1.577-5.346,3.825c-0.614-1.399-1.452-2.587-2.539-3.53
			c-2.333-2.026-4.895-2.21-6.151-2.169c-3.573-0.153-5.929,1.303-7.288,2.57c-3.5,3.264-3.677,8.196-3.677,9.151
			c0,0.962,0.302,1.859,0.806,2.617c-1.112,1.688-1.766,3.672-1.766,5.803c0,2.164,0.687,4.239,1.894,5.992
			c-0.201,0.091-0.417,0.186-0.649,0.288c-1.277,0.562-2.723,1.199-4.22,2.171c-4.024,2.607-3.549,6.077-3.308,7.075
			c0.598,2.491,2.591,4.295,6.061,5.471c0.677,2.575,1.855,5.385,3.411,8.148c-1.787,0.453-3.711,0.505-5.743,0.158
			c-0.853-0.147-1.686-0.221-2.476-0.221c-5.408,0-9.333,3.739-9.333,8.89c0,6.902,6.997,14.593,17.037,14.593
			c1.301,0,2.638-0.128,3.977-0.38c6.732-1.275,10.18-4.573,11.929-7.359c3.042,1.687,6.251,2.859,9.51,3.464
			c3.858,2.067,12.841,5.913,26.249,5.914c9.177,0,18.95-1.766,29.047-5.247c0.044-0.015,0.092-0.033,0.136-0.049
			c0.071-0.027,5.37-2.013,11.407-3.133c-1.165,7.597,1.069,15.656,6.489,23.366c4.699,6.684,11.65,12.7,19.072,16.506
			c1.671,0.853,3.184,1.269,4.625,1.269c1.89,0,3.631-0.73,4.897-2.048c2.644-2.739,2.495-6.859,2.306-12.092
			c-0.093-2.584-0.199-5.513,0.048-8.272c0.426-4.768-0.212-8.676-1.167-11.689c9.08-2.883,19.87-10.672,23.512-13.424
			c2.813-2.125,6.115-3.671,8.525-4.799c3.605-1.685,7.691-3.593,7.136-8.038C189.109,44.525,183.568,43.451,170.181,40.856z"/>
		<g>
			<g>
				<path style="fill:#65C8D0;" d="M121.178,47.735c0,0,3.953,4.137,0.913-6.896c-3.042-11.033-19.158-25.65-35.578-28.133
					c-16.42-2.483-22.807,5.24-22.807,5.24L121.178,47.735z"/>
				<path style="fill:#232426;" d="M122.495,48.784L122.495,48.784c-0.636,0-1.317-0.639-1.491-0.814L63.255,18.039l0.229-0.276
					c0.197-0.239,4.961-5.838,16.777-5.838c2.005,0,4.124,0.166,6.295,0.495c7.685,1.161,15.835,5.041,22.948,10.923
					c6.541,5.41,11.351,11.923,12.866,17.42c1.191,4.323,1.458,6.833,0.816,7.676C123.013,48.664,122.774,48.784,122.495,48.784z
					 M64.18,17.865l57.174,29.634l0.034,0.035c0.248,0.259,0.769,0.672,1.107,0.672l0,0c0.098,0,0.168-0.037,0.231-0.119
					c0.291-0.382,0.56-1.822-0.915-7.17c-3.003-10.897-19.096-25.468-35.342-27.925c-2.143-0.325-4.232-0.488-6.208-0.488
					C70.202,12.503,65.295,16.749,64.18,17.865z"/>
			</g>
			<path style="fill:#65C8D0;" d="M75.567,18.222c0,0,18.853-7.723,38.009,12.136c0,0-6.994-11.86-24.63-16.55
				c0,0-16.727-2.356-19.919,3.925L75.567,18.222z"/>
			<path style="fill:#65C8D0;" d="M74.655,19.326c0,0,6.384-9.929,29.798,2.758c0,0-17.94-14.619-31.624-4.414L74.655,19.326z"/>
			<g>
				<path style="fill:#65C8D0;" d="M32.995,51.322c0,0-5.777,7.999-17.028,6.067c-11.252-1.931-5.474,15.721,9.123,12.965
					c14.594-2.76,9.121-16.55,9.121-16.55L32.995,51.322z"/>
				<path style="fill:#232426;" d="M22.049,70.936C22.049,70.936,22.049,70.936,22.049,70.936c-7.613,0-12.286-5.733-12.286-9.843
					c0-2.555,1.757-4.14,4.583-4.14c0.52,0,1.082,0.051,1.67,0.153c1.147,0.196,2.289,0.296,3.395,0.296
					c8.735,0,13.304-6.186,13.349-6.248l0.283-0.391l1.427,2.915c0.11,0.276,2.459,6.329-0.273,11.295
					c-1.612,2.929-4.658,4.836-9.055,5.667C24.097,70.836,23.056,70.936,22.049,70.936z M14.346,57.531
					c-2.544,0-4.003,1.298-4.003,3.561c0,3.868,4.453,9.264,11.706,9.266c0,0,0,0,0.001,0c0.969,0,1.974-0.097,2.987-0.289
					c4.217-0.797,7.128-2.604,8.653-5.374c2.602-4.724,0.277-10.724,0.253-10.784l-1.007-2.053
					c-1.164,1.372-5.76,6.123-13.523,6.123c-1.139,0-2.314-0.102-3.493-0.304C15.362,57.58,14.833,57.531,14.346,57.531z"/>
			</g>
			<g>
				<path style="fill:#65C8D0;" d="M126.901,54.823c5.99-5.891,14.797-9.228,24.544-10.058c5.722-0.487,12.159-0.049,17.778,1.04
					c27.063,5.24,12.771,4.412,1.825,12.688c-10.946,8.274-23.414,14.893-28.281,13.239c0,0,4.866,5.241,3.955,15.447
					c-0.913,10.204,2.432,20.686-4.562,17.101c-12.861-6.594-25.372-21.276-22.761-35.275
					C120.469,63.259,123.126,58.535,126.901,54.823z"/>
				<path style="fill:#232426;" d="M144.49,105.288c-0.672,0-1.477-0.245-2.461-0.749c-13.076-6.705-25.55-21.456-22.916-35.589
					c1.043-5.588,3.595-10.41,7.586-14.334c5.769-5.675,14.549-9.275,24.722-10.14c1.548-0.131,3.185-0.198,4.865-0.198
					c4.303,0,8.796,0.43,12.992,1.242c12.056,2.336,15.591,3.398,15.756,4.738c0.127,1.019-1.589,1.822-4.433,3.151
					c-2.602,1.218-6.167,2.886-9.378,5.314c-10.891,8.232-21.369,13.552-26.694,13.554c-0.357,0-0.695-0.024-1.009-0.071
					c1.264,1.724,4.23,6.729,3.491,14.997c-0.273,3.062-0.161,6.155-0.063,8.882c0.147,4.089,0.264,7.319-0.978,8.605
					C145.588,105.087,145.09,105.288,144.49,105.288z M156.285,44.858c-1.663,0-3.283,0.066-4.817,0.196
					c-10.038,0.854-18.691,4.396-24.365,9.975c-3.904,3.84-6.401,8.559-7.421,14.029c-1.928,10.341,5.341,26.111,22.609,34.964
					c1.58,0.81,2.638,0.914,3.261,0.267c1.07-1.112,0.952-4.389,0.815-8.184c-0.1-2.745-0.212-5.857,0.065-8.952
					c0.89-9.963-3.831-15.174-3.878-15.225l0.305-0.47c0.468,0.16,1.03,0.241,1.668,0.241c5.126,0,15.714-5.4,26.345-13.437
					c3.261-2.465,6.857-4.147,9.483-5.376c2.148-1.005,4.177-1.954,4.103-2.555c-0.149-1.211-7.636-2.759-15.292-4.241
					C165.007,45.283,160.552,44.858,156.285,44.858z"/>
			</g>
			<path style="fill:#65C8D0;" d="M145.796,104.454c1.893-2.077,0.252-9.751,0.925-17.274c0.911-10.206-3.955-15.447-3.955-15.447
				c4.866,1.654,17.334-4.966,28.281-13.239c2.736-2.071,5.682-3.569,8.139-4.738c0,0,7.064-2.71-3.882-2.986
				c-10.946-0.276-16.725-5.791-43.484,7.448l-3.04,6.067c0,0-11.555,20.411,15.813,39.719L145.796,104.454z"/>
			<g>
				<path style="fill:#A6CC1B;" d="M47.896,65.802c0,0,18.396,13.516,53.213,1.517c0,0,17.94-6.896,27.671-3.035
					c9.731,3.862,6.386-3.999-1.217-14.343c-7.601-10.343-25.847-39.258-73.689-33.19L46.07,37.392L47.896,65.802z"/>
				<path style="fill:#232426;" d="M73.716,72.575c-0.002,0-0.004,0-0.005,0c-16.888-0.001-25.897-6.473-25.986-6.538l-0.108-0.082
					l-1.839-28.608l7.888-20.862l0.173-0.021c4.345-0.552,8.612-0.832,12.682-0.832c36.618,0,52.484,21.971,60.109,32.529
					c0.415,0.575,0.804,1.113,1.167,1.608c5.704,7.761,8.072,12.733,7.037,14.778c-0.684,1.354-2.722,1.371-6.16,0.006
					c-1.93-0.765-4.347-1.154-7.184-1.154c-9.267,0-20.168,4.147-20.276,4.188C91.611,70.899,82.362,72.575,73.716,72.575z
					 M48.176,65.645c1.063,0.723,9.845,6.349,25.535,6.351c0.001,0,0.003,0,0.003,0c8.585,0,17.768-1.665,27.301-4.95
					c0.1-0.039,11.099-4.224,20.474-4.224c2.911,0,5.399,0.4,7.398,1.194c3.037,1.205,4.906,1.305,5.43,0.27
					c0.902-1.782-1.58-6.814-6.987-14.174c-0.366-0.496-0.755-1.035-1.171-1.611c-7.568-10.481-23.317-32.288-59.639-32.288
					c-3.993,0-8.176,0.27-12.437,0.804l-7.721,20.418L48.176,65.645z"/>
			</g>
			<path style="fill:#A6CC1B;" d="M68.674,25.209c0,0,4.056,5.517,3.649,9.748c-0.405,4.228,1.622,8.641,7.297,7.905
				c5.678-0.734,16.421,0.369,8.515,5.334c-7.906,4.964-15.407-1.473-15.407-1.473S72.322,62.538,63.808,66.4
				c-8.514,3.861,33.449,1.103,37.706-3.127c0,0-24.935,15.445-50.073,3.861l16.891-41.224L68.674,25.209z"/>
			<g>
				<path style="fill:#65C8D0;" d="M71.298,30.989c0.584,4.656-0.035,9.254-0.622,14.05c-0.717,5.863-2.786,13.003-7.116,17.588
					c-2.109,2.234-5.707,3.942-8.976,4.187c-18.548,1.378-30.559-18.342-31.016-26.756c0,0-8.666-1.516-4.409-4.275
					c4.257-2.758,8.97-2.482,10.49-9.378c1.522-6.895,12.164-10.343,23.718-9.516c7.087,0.508,14.234,1.882,16.675,8.772
					C70.68,27.452,71.076,29.226,71.298,30.989z"/>
				<path style="fill:#232426;" d="M52.737,67.159c0.002,0,0.002,0,0.002,0c0.62,0,1.249-0.024,1.87-0.07
					c3.304-0.246,6.995-1.965,9.183-4.281c5.201-5.508,6.757-14.24,7.187-17.738l0.08-0.662c0.567-4.617,1.103-8.978,0.54-13.45
					c-0.237-1.892-0.652-3.652-1.268-5.383c-2.477-6.987-9.605-8.436-16.94-8.961c-1.127-0.081-2.265-0.123-3.376-0.123
					c-11.232,0-19.344,3.87-20.663,9.857c-1.076,4.875-3.728,6.041-6.802,7.393c-1.17,0.515-2.383,1.047-3.569,1.817
					c-1.003,0.649-1.431,1.315-1.272,1.977c0.396,1.648,4.452,2.534,5.568,2.751c0.291,3.795,2.962,10.455,8.242,16.405
					C37.511,63.441,45.047,67.159,52.737,67.159L52.737,67.159z M50.015,17.044c1.097,0,2.216,0.041,3.328,0.12
					c7.125,0.51,14.043,1.903,16.411,8.581c0.602,1.696,1.007,3.422,1.242,5.278c0.555,4.408,0.023,8.739-0.54,13.325l-0.08,0.662
					c-0.422,3.447-1.953,12.049-7.046,17.44c-2.09,2.212-5.613,3.855-8.769,4.09c-0.605,0.044-1.219,0.067-1.82,0.067
					c-17.065,0.003-28.429-18.447-28.869-26.559l-0.011-0.216l-0.235-0.042c-1.379-0.24-5.025-1.14-5.32-2.369
					c-0.104-0.427,0.243-0.901,1.03-1.411c1.145-0.743,2.333-1.266,3.482-1.769c3.083-1.356,5.996-2.639,7.13-7.779
					C31.19,20.827,39.254,17.044,50.015,17.044L50.015,17.044z"/>
			</g>
			<path style="fill:#65C8D0;" d="M23.568,39.462c0,0,20.222,2.895,29.8,1.515c0,0-2.888-2.344-0.456-3.448
				c2.432-1.103,3.649,4.553,6.842,4.413c3.192-0.137,3.04,3.173,0.76,3.173c-2.281,0-3.649-1.655-3.344,0.551
				c0.303,2.207-0.912,15.447-7.602,17.102C42.877,64.423,28.738,62.079,23.568,39.462z"/>
			<g>
				<path style="fill:#F15B48;" d="M24.938,40.427c0,0,18.548,4.551,31.321,1.379c0,0-0.762,18.618-10.036,19.307
					C36.948,61.803,27.066,52.975,24.938,40.427z"/>
				<path style="fill:#231F20;" d="M45.2,61.427L45.2,61.427c0.351,0,0.701-0.014,1.047-0.04c9.435-0.7,10.282-18.802,10.314-19.571
					l0.014-0.376l-0.4,0.1c-2.975,0.739-6.528,1.113-10.556,1.113c0,0-0.001,0-0.002,0c-10.318,0-20.501-2.467-20.601-2.493
					l-0.451-0.11l0.071,0.418C26.631,52.22,35.663,61.427,45.2,61.427L45.2,61.427z M55.932,42.169
					c-0.174,2.618-1.548,18.061-9.734,18.671c-0.33,0.023-0.665,0.035-0.998,0.035c-9.134,0-17.803-8.784-19.89-20.077
					c2.099,0.477,11.149,2.407,20.308,2.407h0.002C49.523,43.205,52.988,42.856,55.932,42.169L55.932,42.169z"/>
			</g>
			<path style="fill:#A13D34;" d="M34.211,53.804c0,0,7.907,9.378,15.204,4.138c7.299-5.24,9.427-17.929,3.649-13.239
				c-5.778,4.688-10.746-0.552-10.746-0.552s-1.722-3.585-2.635,0.828c-0.911,4.412-7.297,0.827-7.297,0.827
				S29.346,47.459,34.211,53.804z"/>
			<g>
				<path style="fill:#C2EFDA;" d="M33.024,55.851c3.873,3.615,8.609,5.604,13.198,5.262c9.274-0.689,10.036-19.307,10.036-19.307
					c-12.772,3.173-31.321-1.379-31.321-1.379c0.372,2.196,0.981,4.279,1.785,6.215c0,0,8.097,4.127,14.788,3.024l-0.457-5.517
					l4.409,5.103c0,0,5.473,0.138,9.579-5.931c0,0,1.52-2.757,0.303,0.552c-1.216,3.311-3.345,15.998-12.163,14.62
					C34.364,57.115,33.024,55.851,33.024,55.851z"/>
				<path style="fill:#231F20;" d="M45.2,61.427c0.349,0,0.701-0.014,1.047-0.04c9.435-0.7,10.282-18.802,10.314-19.571l0.014-0.376
					l-0.4,0.1c-2.975,0.739-6.528,1.113-10.558,1.113c-10.318,0-20.501-2.467-20.601-2.493l-0.451-0.11l0.071,0.418
					c0.366,2.161,0.97,4.271,1.802,6.272l0.038,0.094l0.097,0.05c0.064,0.033,6.44,3.245,12.526,3.245h0.002
					c0.861,0,1.689-0.064,2.462-0.192l0.268-0.044l-0.402-4.859l3.879,4.491l0.144,0.004c0.61,0.007,5.631-0.164,9.58-5.68
					c-0.172,0.478-0.362,1.135-0.58,1.89c-1.274,4.396-3.642,12.583-9.969,12.583h-0.002c-0.403,0-0.825-0.034-1.25-0.1
					c-8.479-1.327-9.982-2.554-9.995-2.566l-0.433,0.388h0.001l0,0l0,0C36.526,59.514,40.927,61.427,45.2,61.427L45.2,61.427z
					 M55.828,43.42c-0.444,4.509-2.322,16.874-9.63,17.42c-3.85,0.286-7.913-1.116-11.475-3.912
					c1.473,0.497,4.028,1.152,8.406,1.836c0.46,0.073,0.916,0.108,1.355,0.108h0.002c6.796,0,9.241-8.453,10.556-12.995
					c0.227-0.778,0.42-1.45,0.591-1.917C55.708,43.758,55.773,43.579,55.828,43.42L55.828,43.42z M41.185,49.436
					c-0.658,0.095-1.358,0.142-2.083,0.142H39.1c-5.523,0-11.319-2.731-12.132-3.128c-0.741-1.809-1.299-3.707-1.658-5.652
					c2.1,0.477,11.15,2.407,20.308,2.407c3.635,0,6.889-0.302,9.699-0.898c-0.136,0.182-0.31,0.461-0.548,0.892
					c-3.608,5.331-8.232,5.747-9.16,5.776l-4.935-5.709L41.185,49.436L41.185,49.436z"/>
			</g>
			<path style="fill:#232426;" d="M59.278,43.492c0.169,0,0.343-0.011,0.52-0.036l-0.087-0.545
				c-2.584,0.339-4.222-2.431-5.311-4.264l-0.54,0.255C54.898,40.647,56.586,43.492,59.278,43.492L59.278,43.492z"/>
			<path style="fill:#65C8D0;" d="M19.179,37.18c0.086-1.406,5.424-2.277,11.922-1.944c6.497,0.331,11.694,1.742,11.606,3.15
				c-0.089,1.406-5.426,2.277-11.924,1.944C24.288,39.998,19.091,38.588,19.179,37.18z"/>
			<path style="fill:#65C8D0;" d="M54.078,30.544c0,0,3.04-1.288,7.297-4.231c4.258-2.94,6.082,4.597-2.431,7.724
				c-8.516,3.127-14.8,2.024-16.625-2.943c-1.824-4.963-1.216-12.687,0-9.193C43.536,25.392,54.078,30.544,54.078,30.544z"/>
			<g>
				<path style="fill:#FFFFFF;" d="M41.915,23.739c0-4.57,4.084-8.275,9.122-8.275c5.038,0,9.123,3.704,9.123,8.275
					c0,4.57-4.085,8.273-9.123,8.273C45.999,32.012,41.915,28.309,41.915,23.739z"/>
				<path style="fill:#231F20;" d="M51.036,32.29c5.198,0,9.426-3.836,9.426-8.551c0-4.716-4.228-8.549-9.426-8.549
					c-5.198,0-9.427,3.834-9.427,8.549C41.609,28.454,45.839,32.29,51.036,32.29L51.036,32.29z M51.036,15.74
					c4.862,0,8.819,3.588,8.819,7.999s-3.957,7.999-8.819,7.999c-4.862,0-8.818-3.588-8.818-7.999S46.174,15.74,51.036,15.74
					L51.036,15.74z"/>
			</g>
			<g>
				<path style="fill:#6D2C0B;" d="M48.704,23.601c0-2.895,2.588-5.24,5.778-5.24c3.192,0,5.778,2.345,5.778,5.24
					c0,2.894-2.586,5.24-5.778,5.24C51.292,28.841,48.704,26.495,48.704,23.601z"/>
				<path style="fill:#331406;" d="M51.949,23.968c0-1.574,1.406-2.849,3.142-2.849c1.736,0,3.142,1.275,3.142,2.849
					c0,1.574-1.406,2.851-3.142,2.851C53.355,26.819,51.949,25.542,51.949,23.968z"/>
				<path style="fill:#F2CCB2;" d="M55.496,21.484c0-0.963,0.863-1.745,1.926-1.745c1.065,0,1.925,0.781,1.925,1.745
					c0,0.967-0.86,1.748-1.925,1.748C56.359,23.232,55.496,22.451,55.496,21.484z"/>
				<path style="fill:#B17133;" d="M54.134,28.573c1.258-0.109,0.05-0.575-0.413-0.756c-0.609-0.236-1.221-0.487-1.731-0.881
					c-0.572-0.441-1.029-1.046-1.248-1.701c-0.207-0.61-0.323-1.454-0.17-2.084c0.127-0.516,0.641-1.251-0.071-1.608
					c-0.811-0.404-0.974,0.476-1.167,0.958c-0.702,1.762,0.556,4.063,2.098,5.145c0.648,0.455,1.633,0.909,2.464,0.932
					C53.976,28.582,54.056,28.579,54.134,28.573z"/>
			</g>
			<path style="fill:#E19F00;" d="M50.023,22.772c0,0,0.153,3.723,2.434,4.69C52.457,27.462,47.896,26.773,50.023,22.772z"/>
			<path style="fill:#65C8D0;" d="M37.252,24.659c0,0,2.23,4.044-9.73,6.803c0,0,1.215-1.471,2.127-5.057
				c0.913-3.585,0.506-0.643,0.506-0.643L37.252,24.659z"/>
			<g>
				<path style="fill:#FFFFFF;" d="M24.43,23.12c0-3.314,2.96-5.998,6.613-5.998c3.65,0,6.612,2.684,6.612,5.998
					c0,3.312-2.962,5.996-6.612,5.996C27.389,29.116,24.43,26.432,24.43,23.12z"/>
				<path style="fill:#231F20;" d="M31.043,29.394c3.814,0,6.917-2.816,6.917-6.274c0-3.46-3.103-6.275-6.917-6.275
					c-3.815,0-6.917,2.815-6.917,6.275C24.126,26.578,27.228,29.394,31.043,29.394L31.043,29.394z M31.043,17.397
					c3.477,0,6.308,2.566,6.308,5.723c0,3.155-2.83,5.721-6.308,5.721c-3.479,0-6.308-2.566-6.308-5.721
					C24.735,19.963,27.564,17.397,31.043,17.397L31.043,17.397z"/>
			</g>
			<g>
				<path style="fill:#6D2C0B;" d="M29.353,23.019c0-2.098,1.875-3.799,4.187-3.799c2.313,0,4.188,1.701,4.188,3.799
					c0,2.097-1.875,3.798-4.188,3.798C31.228,26.817,29.353,25.116,29.353,23.019z"/>
				<path style="fill:#331406;" d="M31.704,23.286c0-1.141,1.02-2.066,2.278-2.066c1.259,0,2.278,0.925,2.278,2.066
					c0,1.14-1.019,2.065-2.278,2.065C32.724,25.351,31.704,24.427,31.704,23.286z"/>
				<path style="fill:#F2CCB2;" d="M34.275,21.486c0-0.699,0.625-1.266,1.396-1.266c0.771,0,1.397,0.567,1.397,1.266
					c0,0.699-0.626,1.266-1.397,1.266C34.9,22.752,34.275,22.185,34.275,21.486z"/>
				<path style="fill:#B17133;" d="M33.288,26.624c0.913-0.081,0.036-0.417-0.3-0.548c-0.442-0.171-0.887-0.351-1.256-0.638
					c-0.414-0.32-0.744-0.76-0.905-1.234c-0.148-0.442-0.234-1.053-0.122-1.511c0.092-0.373,0.465-0.905-0.052-1.164
					c-0.587-0.293-0.706,0.344-0.845,0.695c-0.51,1.278,0.402,2.943,1.52,3.73c0.469,0.329,1.183,0.658,1.785,0.674
					C33.172,26.631,33.231,26.628,33.288,26.624z"/>
			</g>
			<path style="fill:#E19F00;" d="M30.308,22.419c0,0,0.11,2.7,1.764,3.399C32.072,25.818,28.765,25.319,30.308,22.419z"/>
			<path style="fill:#FFFFFF;" d="M42.319,44.15c0,0,3.143,3.77,3.649,3.861c0.507,0.091,4.055,0.091,7.704-4.505
				C53.673,43.507,46.476,45.529,42.319,44.15z"/>
			<path style="fill:#FFFFFF;" d="M39.786,43.689c0,0,0.911,5.335,0,5.335c-0.913,0-9.427-0.827-12.568-2.758L25.899,41.3
				C25.899,41.3,32.59,43.412,39.786,43.689z"/>
			<path style="fill:#FFFFFF;" d="M51.949,54.814c0,0-2.433,4.506-6.284,4.414c-3.853-0.093-7.097-0.92-5.678,0
				C41.408,60.148,49.414,63.275,51.949,54.814z"/>
			<path style="fill:#231F20;" d="M59.956,15.648c0,0-7.297-8.091-15.001-1.287c0,0-0.608-2.206-1.215-2.574
				c-0.608-0.369,7.297-7.908,17.433,1.287L59.956,15.648z"/>
			<path style="fill:#231F20;" d="M35.002,15.28c0,0,0.64-5.657-3.838-5.657c-4.479,0-3.999,5.512-3.999,5.512l-2.078-0.436
				c0,0,0-7.398,6.236-6.962c0,0,5.118-0.727,5.118,7.398L35.002,15.28z"/>
			<path style="fill:#65C8D0;" d="M66.439,24.84c-0.384,1.048-0.147,2.72-0.364,3.781c-0.588,2.89-1.976,6.436-5.712,6.839
				c-6.386,0.691-3.193,4.966,0.912,5.655c4.105,0.69,7.298,5.24,7.754-5.24c0.143-3.281,0.162-6.751-0.696-9.964
				c-0.302-1.12-0.9-2.983-1.783-1.323C66.508,24.666,66.471,24.751,66.439,24.84z"/>
			<path style="fill:#A6CC1B;" d="M68.563,18.207c0.129-0.192,0.283-0.355,0.464-0.473c3.068-2.008,7.604-0.747,10.816,0.091
				c3.671,0.958,7.382,1.74,10.933,3.046c7.966,2.927,15.095,7.5,21.101,13.049c6.749,6.237,12.123,13.35,16.6,21.077
				c0,0,4.459,6.988-15.407-4.596C93.202,38.817,77.188,44.886,74.147,29.44c0,0-2.23-4.78-5.473-8.091
				C67.95,20.611,67.971,19.092,68.563,18.207z"/>
			<g>
				<path style="fill:#65C8D0;" d="M73.438,39.046c0,0,4.256-0.827,6.841-8.274c2.585-7.448,7.602-9.654,13.836-5.102
					c6.233,4.55,3.496,15.721-2.432,19.168c-5.93,3.449-14.293,1.793-18.396-2.62C69.182,37.805,73.438,39.046,73.438,39.046z"/>
				<path style="fill:#232426;" d="M84.459,46.965C84.459,46.965,84.457,46.965,84.459,46.965c2.702,0,5.257-0.655,7.388-1.894
					c3.373-1.961,5.822-6.348,6.093-10.917c0.223-3.736-1.069-6.826-3.634-8.699c-2.2-1.607-4.301-2.421-6.245-2.421
					c-3.542,0-6.333,2.648-8.071,7.655c-2.312,6.663-6.001,7.919-6.548,8.071c-0.187-0.049-0.635-0.149-1.07-0.149
					c-0.694,0-0.977,0.263-1.091,0.488c-0.314,0.612,0.25,1.66,1.773,3.298C75.675,45.213,80.044,46.965,84.459,46.965
					L84.459,46.965z M88.061,23.585c1.8,0,3.774,0.773,5.863,2.298c2.41,1.76,3.619,4.685,3.409,8.241
					c-0.257,4.331-2.648,8.642-5.813,10.483c-2.033,1.181-4.474,1.806-7.06,1.806c-4.24,0-8.431-1.675-10.942-4.372
					c-1.84-1.977-1.755-2.574-1.685-2.71c0.074-0.147,0.369-0.168,0.538-0.168c0.459,0,0.968,0.145,0.975,0.148l0.077,0.022
					l0.078-0.016c0.181-0.036,4.46-0.948,7.067-8.462C82.219,26.1,84.811,23.585,88.061,23.585L88.061,23.585z"/>
			</g>
			<path style="fill:#65C8D0;" d="M74.655,39.598c0,0,4.561-0.964,5.624-5.378c1.064-4.414,4.865-13.653,11.707-7.447
				c6.842,6.206,1.52,12.136,0.608,14.757c0,0,3.954-6.62-0.304-8.689c-4.257-2.068,3.04,1.105-4.562,5.241
				c-7.601,4.137-12.162,3.449-7.297,4.827c4.866,1.379,6.994,1.654,3.953,1.93c-3.041,0.276-7.603-0.689-10.339-4.137
				C74.046,40.701,72.374,39.186,74.655,39.598z"/>
			<path style="fill:#65C8D0;" d="M132.733,54.631c0,0,17.941-11.309,42.876-5.792c0,0-27.672-9.653-43.788,4.137
				C131.82,52.975,129.389,53.528,132.733,54.631z"/>
			<path style="fill:#65C8D0;" d="M126.043,65.94c0,0-5.169,20.687,8.819,31.995c0,0-18.55-13.791-14.292-30.341
				C120.57,67.594,121.786,63.182,126.043,65.94z"/>
			<path style="fill:#65C8D0;" d="M32.691,62.905c0,0-6.08,9.655-15.508,4.689c-9.426-4.964-4.865-9.653-3.344-9.377
				c1.521,0.276,4.561-0.828,9.426,4.136C28.13,67.319,28.738,65.664,32.691,62.905z"/>
			<path style="fill:#65C8D0;" d="M123.915,68.146c0,0-1.824,9.93,2.736,20.136C126.651,88.283,117.834,74.491,123.915,68.146z"/>
			<path style="fill:#65C8D0;" d="M24.177,67.87c0,0-10.643,0.276-11.859-6.067c-1.216-6.345,3.345-2.206,4.865,0
				C18.704,64.009,19.007,67.043,24.177,67.87z"/>
			<path style="fill:#A6CC1B;" d="M89.859,49.803c0-1.903,1.769-3.448,3.951-3.448c2.185,0,3.955,1.545,3.955,3.448
				c0,1.906-1.77,3.448-3.955,3.448C91.628,53.252,89.859,51.709,89.859,49.803z"/>
			<path style="fill:#A6CC1B;" d="M102.629,53.528c0-1.525,1.362-2.758,3.04-2.758c1.68,0,3.041,1.234,3.041,2.758
				c0,1.523-1.362,2.758-3.041,2.758C103.992,56.286,102.629,55.051,102.629,53.528z"/>
			<path style="fill:#A6CC1B;" d="M113.272,56.977c0-1.144,1.021-2.069,2.281-2.069c1.259,0,2.282,0.925,2.282,2.069
				c0,1.143-1.023,2.068-2.282,2.068C114.293,59.044,113.272,58.119,113.272,56.977z"/>
		</g>
	</g>
</g>
</svg>
