<?xml version="1.0" encoding="utf-8"?>
<!-- Generator: Adobe Illustrator 27.5.0, SVG Export Plug-In . SVG Version: 6.00 Build 0)  -->
<svg version="1.1" xmlns="http://www.w3.org/2000/svg" xmlns:xlink="http://www.w3.org/1999/xlink" x="0px" y="0px"
	 viewBox="0 0 500 500" style="enable-background:new 0 0 500 500;" xml:space="preserve">
<g id="BACKGROUND">
	<rect style="fill:#F1F8D1;" width="500" height="500"/>
</g>
<g id="OBJECTS">
	<g>
		<g>
			<path style="fill:#D3DCB6;" d="M425.076,207.581c1.718-7.001-1.282-14.576-7.839-18.362l-25.911-14.96
				c-6.943-4.008-15.573-2.442-20.711,3.309c-5.998-1.125-12.184-1.72-18.508-1.72H160.316c-6.325,0-12.51,0.595-18.508,1.72
				c-5.138-5.75-13.768-7.317-20.711-3.309l-25.911,14.96c-6.557,3.786-9.557,11.361-7.839,18.362
				c-16.631,17.826-26.812,41.746-26.812,68.048v30.624c0,32.263,26.155,58.418,58.418,58.418h0c14.082,0,27.69-5.087,38.319-14.323
				l16.593-14.419c6.156-5.35,14.037-8.296,22.193-8.296h120.309c8.156,0,16.037,2.946,22.192,8.296l16.593,14.42
				c10.629,9.237,24.236,14.323,38.318,14.323h0.001c32.263,0,58.418-26.155,58.418-58.418v-30.624
				C451.888,249.327,441.706,225.407,425.076,207.581z"/>
			<g>
				<g>
					<g>
						<path style="fill:#45A6AF;stroke:#7C434F;stroke-width:2.1788;stroke-miterlimit:10;" d="M406.291,210.161l-54.721-31.593
							l8.388-14.528c4.593-7.956,14.766-10.682,22.722-6.088l25.911,14.96c7.956,4.593,10.682,14.766,6.088,22.722L406.291,210.161z
							"/>
						<path style="fill:#F1F8D1;" d="M356.531,177.239c1.138-2.572,2.401-5.073,3.707-7.549c0.641-1.245,1.328-2.463,1.993-3.694
							c0.669-1.243,1.545-2.506,2.609-3.514c2.132-2.045,4.958-3.347,7.876-3.59c2.91-0.272,5.879,0.536,8.149,2.205
							c-2.571-1.135-5.365-1.524-8.009-1.08c-2.637,0.443-5.115,1.667-7.009,3.512c-0.986,0.905-1.729,1.962-2.428,3.154
							c-0.733,1.191-1.445,2.395-2.203,3.573C359.724,172.624,358.19,174.967,356.531,177.239z"/>
						<path style="fill:#45A6AF;stroke:#7C434F;stroke-width:2.1788;stroke-miterlimit:10;" d="M88.839,210.161l54.721-31.593
							l-8.388-14.528c-4.593-7.956-14.766-10.682-22.722-6.088l-25.911,14.96c-7.956,4.593-10.681,14.766-6.088,22.722
							L88.839,210.161z"/>
						<path style="fill:#F1F8D1;" d="M114.266,161.097c2.271-1.667,5.239-2.475,8.149-2.203c2.917,0.242,5.743,1.545,7.876,3.588
							c1.066,1.007,1.939,2.272,2.611,3.513c0.664,1.231,1.352,2.449,1.993,3.694c1.306,2.475,2.568,4.977,3.705,7.55
							c-1.66-2.271-3.196-4.614-4.686-6.983c-0.758-1.177-1.468-2.382-2.203-3.573c-0.697-1.193-1.442-2.249-2.426-3.155
							c-1.893-1.846-4.372-3.07-7.009-3.514C119.631,159.57,116.836,159.96,114.266,161.097z"/>
					</g>
					<path style="fill:#45A6AF;stroke:#7C434F;stroke-width:2.1788;stroke-miterlimit:10;" d="M384.823,348.363
						c-14.082,0-27.689-5.086-38.318-14.323l-16.593-14.42c-6.155-5.35-14.036-8.296-22.192-8.296H187.41
						c-8.156,0-16.037,2.946-22.193,8.296l-16.593,14.419c-10.629,9.237-24.237,14.323-38.319,14.323h0
						c-32.263,0-58.418-26.154-58.418-58.418v-30.624c0-55.108,44.674-99.781,99.781-99.781h191.791
						c55.108,0,99.781,44.674,99.781,99.781v30.624c0,32.263-26.155,58.418-58.418,58.418H384.823z"/>
					<path style="fill:#52C9BB;" d="M384.824,341.827c-12.506,0-24.592-4.518-34.032-12.72l-16.593-14.42
						c-7.344-6.383-16.748-9.898-26.479-9.898H187.41c-9.731,0-19.135,3.515-26.48,9.899l-16.592,14.419
						c-9.439,8.203-21.526,12.721-34.031,12.721c-28.608,0-51.882-23.274-51.882-51.881v-30.624
						c0-51.415,41.83-93.245,93.245-93.245h191.791c51.415,0,93.244,41.83,93.244,93.245v30.624
						C436.705,318.553,413.431,341.827,384.824,341.827z"/>
					<path style="fill:#F1F8D1;" d="M334.199,314.687c-4.414-3.752-9.637-6.507-15.18-8.075c-2.772-0.785-5.625-1.272-8.495-1.446
						c-1.436-0.097-2.869-0.075-4.321-0.059l-4.342,0.039l-34.739,0.265l-69.478,0.363l-8.685,0.031
						c-2.899-0.039-5.672,0.124-8.464,0.644c-5.554,1.004-10.856,3.246-15.503,6.431c-1.161,0.799-2.277,1.662-3.346,2.581
						l-3.287,2.836l-6.576,5.673l-6.576,5.673c-2.215,1.931-4.604,3.69-7.115,5.229c-10.043,6.217-22.231,8.71-33.846,7.219
						c-11.643-1.437-22.638-7.07-30.608-15.478c4.203,3.983,9.017,7.292,14.236,9.715c5.221,2.415,10.826,3.937,16.514,4.538
						c5.69,0.595,11.47,0.239,17.02-1.067c5.551-1.301,10.862-3.539,15.692-6.533c2.414-1.505,4.692-3.206,6.828-5.096l6.535-5.72
						l6.535-5.72l3.268-2.861c1.119-0.977,2.29-1.895,3.507-2.746c4.86-3.429,10.507-5.711,16.355-6.736
						c2.908-0.527,5.944-0.677,8.832-0.615l8.685,0.031l69.478,0.363l34.739,0.265l4.342,0.039c1.442,0.011,2.907,0.015,4.36,0.139
						c2.906,0.229,5.784,0.774,8.568,1.617C324.705,307.907,329.875,310.837,334.199,314.687z"/>
					<path style="fill:#F1F8D1;" d="M429.366,223.061c3.334,7.277,5.628,15.044,6.926,22.982c0.63,3.973,0.986,7.992,1.083,12.019
						l0.165,12.007c0.055,3.999,0.102,7.999,0.106,11.998l0.025,5.999c0.014,1.982,0.024,4.046-0.142,6.072
						c-0.603,8.13-3.131,16.12-7.337,23.122c-4.247,6.977-10.122,12.939-17.013,17.293c-6.887,4.347-14.793,7.129-22.9,7.83
						c-8.094,0.743-16.336-0.415-23.863-3.362c-3.754-1.496-7.326-3.424-10.622-5.729c-1.648-1.153-3.228-2.399-4.727-3.733
						l-4.423-4.058c3.112,2.515,6.096,5.198,9.471,7.311c3.35,2.145,6.941,3.895,10.676,5.209
						c7.449,2.686,15.496,3.613,23.316,2.695c7.808-0.937,15.414-3.559,22.006-7.835c6.6-4.245,12.192-10.029,16.217-16.747
						c4.089-6.682,6.582-14.331,7.227-22.152c0.175-1.961,0.182-3.901,0.185-5.917l0.025-5.999
						c0.004-3.999,0.052-7.999,0.106-11.998l0.133-11.989c0.008-3.971-0.259-7.943-0.764-11.888
						C434.309,238.287,432.246,230.523,429.366,223.061z"/>
					<path style="fill:#F1F8D1;" d="M115.409,173.416c11.487-5.173,24.132-7.876,36.798-7.946
						c12.594-0.106,25.188-0.282,37.783-0.331c25.188-0.06,50.377-0.218,75.565-0.104c25.188,0.083,50.377,0.048,75.565,0.278
						c12.652-0.168,25.422,2.105,37.109,6.981c11.691,4.848,22.377,12.065,31.134,21.124c-9.056-8.749-19.792-15.725-31.486-20.246
						c-5.844-2.255-11.896-3.962-18.062-5.018c-6.173-1.07-12.413-1.456-18.694-1.315c-25.188,0.23-50.377,0.195-75.565,0.278
						c-25.188,0.114-50.377-0.043-75.565-0.104c-12.594-0.049-25.188-0.225-37.783-0.331c-6.261-0.066-12.531,0.393-18.706,1.527
						C127.329,169.339,121.265,171.098,115.409,173.416z"/>
					<path style="fill:#F1F8D1;" d="M62.508,310.121c-1.664-3.307-2.849-6.855-3.713-10.484c-0.823-3.631-1.208-7.41-1.218-11.116
						c-0.174-7.383-0.22-14.765-0.242-22.148c0.038-3.692-0.032-7.371,0.15-11.116c0.212-3.725,0.612-7.442,1.317-11.102
						c0.676-3.664,1.591-7.28,2.751-10.81c1.208-3.513,2.55-6.976,4.21-10.283c-2.478,6.967-4.257,14.122-5.283,21.366
						c-0.493,3.624-0.846,7.265-0.934,10.917c-0.116,3.632-0.032,7.339-0.034,11.029c-0.022,7.382-0.068,14.765-0.242,22.148
						C58.965,295.823,60.01,303.146,62.508,310.121z"/>
					<g>
						<path style="fill:#45A6AF;stroke:#7C434F;stroke-width:2.1788;stroke-miterlimit:10;" d="M200.767,290.048h-5.81
							c-2.106,0-3.813-1.707-3.813-3.813v0c0-2.106,1.707-3.813,3.813-3.813h5.81c2.106,0,3.813,1.707,3.813,3.813v0
							C204.58,288.341,202.873,290.048,200.767,290.048z"/>
						<path style="fill:#45A6AF;stroke:#7C434F;stroke-width:2.1788;stroke-miterlimit:10;" d="M300.173,290.048h-5.81
							c-2.106,0-3.813-1.707-3.813-3.813v0c0-2.106,1.707-3.813,3.813-3.813h5.81c2.106,0,3.813,1.707,3.813,3.813v0
							C303.986,288.341,302.279,290.048,300.173,290.048z"/>
					</g>
				</g>
				<g>
					<g>
						
							<circle style="fill:#45A6AF;stroke:#7C434F;stroke-width:1.9329;stroke-miterlimit:10;" cx="372.13" cy="253.556" r="49.049"/>
						<path style="fill:#F1F8D1;" d="M326.947,253.556c0-4.433,0.491-8.886,1.711-13.186c1.294-4.266,3.121-8.379,5.53-12.165
							c2.501-3.72,5.504-7.091,8.909-10.029c3.477-2.853,7.346-5.207,11.466-7.036c4.157-1.761,8.574-2.843,13.058-3.374
							c4.501-0.38,9.042-0.205,13.492,0.621c4.42,0.942,8.73,2.414,12.741,4.523c3.967,2.179,7.634,4.879,10.893,8.028
							c3.152,3.257,5.85,6.925,8.03,10.892c2.108,4.011,3.581,8.321,4.523,12.741c0.826,4.45,1.001,8.992,0.621,13.493
							c-0.531,4.484-1.608,8.903-3.372,13.059c-1.83,4.121-4.184,7.99-7.037,11.467c-2.938,3.405-6.31,6.407-10.029,8.909
							c-3.786,2.408-7.9,4.235-12.166,5.529c-4.299,1.22-8.753,1.711-13.186,1.71c2.21-0.202,4.433-0.2,6.6-0.685l1.633-0.279
							l0.816-0.138l0.799-0.219l3.19-0.878c4.176-1.418,8.159-3.348,11.788-5.826c3.584-2.536,6.822-5.526,9.614-8.897
							c2.709-3.441,4.916-7.243,6.608-11.262l1.094-3.081l0.27-0.77l0.195-0.793l0.391-1.585l0.399-1.583
							c0.133-0.527,0.175-1.074,0.267-1.609c0.152-1.077,0.341-2.15,0.465-3.229c0.335-4.341,0.138-8.714-0.683-12.988
							c-0.937-4.243-2.376-8.373-4.425-12.21c-2.118-3.794-4.734-7.291-7.768-10.4c-3.106-3.037-6.605-5.65-10.399-7.769
							c-3.837-2.048-7.967-3.488-12.211-4.425c-4.274-0.821-8.647-1.018-12.988-0.683c-4.319,0.508-8.593,1.465-12.653,3.08
							c-4.019,1.692-7.821,3.899-11.263,6.609c-3.372,2.792-6.36,6.031-8.898,9.614c-2.477,3.628-4.407,7.613-5.824,11.788
							l-0.878,3.19l-0.219,0.799l-0.139,0.816l-0.279,1.633C327.146,249.122,327.149,251.346,326.947,253.556z"/>
						<g>
							
								<circle style="fill:#377993;stroke:#7C434F;stroke-width:1.9329;stroke-miterlimit:10;" cx="347.022" cy="253.556" r="12.739"/>
							<path style="fill:#F1F8D1;" d="M336.216,253.556c-0.265-2.833,0.765-5.844,2.814-7.992c2.015-2.18,4.991-3.459,7.992-3.458
								c3.001-0.002,5.977,1.277,7.993,3.457c2.05,2.148,3.079,5.16,2.813,7.993c-0.247-2.834-1.553-5.438-3.524-7.282
								c-1.976-1.841-4.616-2.897-7.282-2.88c-2.666-0.018-5.307,1.038-7.283,2.879
								C337.767,248.116,336.462,250.721,336.216,253.556z"/>
							
								<circle style="fill:#EB5C48;stroke:#7C434F;stroke-width:1.9329;stroke-miterlimit:10;" cx="397.239" cy="253.556" r="12.739"/>
							<path style="fill:#F1F8D1;" d="M386.433,253.556c-0.044-1.06,0.036-2.138,0.305-3.185c0.283-1.04,0.698-2.051,1.259-2.99
								c0.59-0.919,1.312-1.753,2.133-2.487c0.839-0.713,1.779-1.307,2.786-1.774c1.015-0.452,2.102-0.737,3.209-0.877
								c1.111-0.106,2.234-0.074,3.34,0.12c1.099,0.221,2.167,0.593,3.163,1.112c0.985,0.539,1.895,1.207,2.704,1.988
								c0.782,0.808,1.45,1.719,1.988,2.704c0.52,0.996,0.891,2.064,1.113,3.163c0.194,1.105,0.225,2.23,0.119,3.34
								c-0.139,1.107-0.423,2.195-0.876,3.21c-0.467,1.007-1.062,1.947-1.775,2.786c-0.734,0.821-1.569,1.542-2.487,2.133
								c-0.939,0.561-1.951,0.976-2.991,1.259c-1.047,0.269-2.125,0.349-3.186,0.304c4.26-0.227,8.1-3.05,9.523-6.863
								c1.495-3.782,0.543-8.326-2.341-11.125c-2.799-2.885-7.343-3.837-11.126-2.343
								C389.481,245.455,386.657,249.295,386.433,253.556z"/>
							
								<circle style="fill:#42BA46;stroke:#7C434F;stroke-width:1.9329;stroke-miterlimit:10;" cx="372.13" cy="278.664" r="12.739"/>
							<path style="fill:#F1F8D1;" d="M372.13,267.858c1.416-0.266,2.925-0.119,4.326,0.363c1.409,0.473,2.7,1.301,3.767,2.35
								c1.051,1.066,1.879,2.357,2.352,3.766c0.483,1.401,0.628,2.91,0.361,4.326c-0.272-1.413-0.685-2.73-1.29-3.941
								c-0.61-1.203-1.386-2.307-2.334-3.242c-0.934-0.95-2.037-1.725-3.241-2.336C374.861,268.541,373.543,268.129,372.13,267.858z
								"/>
							
								<circle style="fill:#F7B54A;stroke:#7C434F;stroke-width:1.9329;stroke-miterlimit:10;" cx="372.13" cy="228.447" r="12.739"/>
							<path style="fill:#F1F8D1;" d="M361.324,228.447c-0.265-2.833,0.765-5.844,2.814-7.992c2.015-2.18,4.991-3.459,7.992-3.458
								c3.001-0.002,5.977,1.277,7.993,3.457c2.05,2.148,3.079,5.16,2.813,7.993c-0.248-2.834-1.553-5.438-3.524-7.282
								c-1.976-1.841-4.616-2.897-7.282-2.88c-2.666-0.018-5.307,1.038-7.283,2.879C362.875,223.007,361.57,225.613,361.324,228.447
								z"/>
						</g>
					</g>
					<g>
						<g>
							
								<circle style="fill:#45A6AF;stroke:#7C434F;stroke-width:1.9329;stroke-miterlimit:10;" cx="122.999" cy="253.556" r="49.049"/>
							<path style="fill:#F1F8D1;" d="M77.816,253.556c-0.208-5.918,0.868-11.892,3.016-17.464
								c2.184-5.562,5.498-10.702,9.701-15.001c4.192-4.313,9.282-7.751,14.832-10.109c5.559-2.349,11.596-3.546,17.634-3.574
								c6.038,0.025,12.074,1.227,17.635,3.572c5.549,2.359,10.641,5.796,14.833,10.109c4.203,4.3,7.518,9.44,9.702,15.002
								c2.147,5.573,3.223,11.547,3.014,17.465c-0.346-11.849-5.436-23.285-13.782-31.401c-8.315-8.152-19.805-12.866-31.401-12.816
								c-11.596-0.052-23.087,4.662-31.403,12.814C83.249,230.269,78.16,241.707,77.816,253.556z"/>
							<g>
								<g>
									<path style="fill:#8D615F;stroke:#7C434F;stroke-width:1.9329;stroke-miterlimit:10;" d="M100.833,266.295H92.92
										c-2.761,0-4.999-2.238-4.999-4.999v-7.74v-7.74c0-2.761,2.238-4.999,4.999-4.999h7.913c1.199,0,2.357,0.431,3.265,1.213
										l8.974,7.74c2.312,1.994,2.312,5.576,0,7.57l-8.974,7.74C103.19,265.864,102.032,266.295,100.833,266.295z"/>
									<path style="fill:#F1F8D1;" d="M92.92,242.75c2.268-0.249,4.535-0.416,6.803-0.501c0.574-0.004,1.096-0.106,1.805,0.006
										c0.655,0.106,1.309,0.432,1.788,0.851l2.599,2.195c1.71,1.49,3.409,2.992,5.06,4.55c0.418,0.399,0.815,0.756,1.249,1.19
										c0.44,0.473,0.743,1.061,0.859,1.677c0.222,1.235-0.3,2.534-1.273,3.16c0.77-0.845,1.026-2.036,0.661-3.003
										c-0.161-0.484-0.455-0.911-0.832-1.224l-1.321-1.038c-1.784-1.404-3.519-2.864-5.244-4.336l-2.553-2.249
										c-0.358-0.346-0.75-0.558-1.209-0.667c-0.41-0.096-1.032-0.067-1.589-0.109C97.455,243.166,95.188,242.999,92.92,242.75z"
										/>
									<path style="fill:#8D615F;stroke:#7C434F;stroke-width:1.9329;stroke-miterlimit:10;" d="M145.166,240.817h7.913
										c2.761,0,4.999,2.238,4.999,4.999v7.74v7.74c0,2.761-2.238,4.999-4.999,4.999h-7.913c-1.199,0-2.357-0.431-3.265-1.213
										l-8.974-7.74c-2.312-1.994-2.312-5.576,0-7.57l8.974-7.74C142.809,241.247,143.967,240.817,145.166,240.817z"/>
									<path style="fill:#F1F8D1;" d="M134.189,255.877c-0.802-0.59-1.293-1.626-1.214-2.675c0.034-0.521,0.196-1.041,0.475-1.497
										c0.278-0.472,0.702-0.814,1.042-1.147l4.38-4.014c0.729-0.67,1.46-1.338,2.203-1.992l1.109-0.987l0.555-0.493
										c0.205-0.187,0.459-0.368,0.716-0.507c0.521-0.285,1.115-0.433,1.71-0.436l1.485-0.008l2.969-0.015l2.969,0.014
										c0.447-0.002,1.113-0.012,1.666,0.202c0.56,0.198,1.084,0.517,1.482,0.958c0.399,0.436,0.707,0.962,0.854,1.535
										c0.076,0.285,0.122,0.579,0.125,0.872c0.008,0.287-0.004,0.506-0.006,0.762c-0.01,0.99-0.036,1.979-0.069,2.969
										l-0.18,5.938c-0.107,1.979-0.17,3.959-0.316,5.938c-0.146-1.979-0.209-3.959-0.316-5.938l-0.18-5.938
										c-0.033-0.99-0.059-1.979-0.069-2.969c-0.006-0.238-0.003-0.515-0.016-0.722c-0.007-0.201-0.046-0.399-0.103-0.59
										c-0.11-0.385-0.332-0.73-0.607-1.014c-0.277-0.285-0.625-0.495-0.996-0.622c-0.385-0.138-0.731-0.127-1.268-0.122
										l-2.969,0.014l-2.969-0.015l-1.485-0.008c-0.395-0.001-0.788,0.094-1.144,0.27c-0.18,0.092-0.337,0.194-0.503,0.335
										l-0.569,0.476l-1.139,0.952c-0.756,0.639-1.524,1.264-2.294,1.886l-4.614,3.742c-0.399,0.319-0.788,0.575-1.051,0.943
										c-0.275,0.364-0.462,0.801-0.538,1.263C133.163,254.163,133.479,255.179,134.189,255.877z"/>
								</g>
								<g>
									<path style="fill:#8D615F;stroke:#7C434F;stroke-width:1.9329;stroke-miterlimit:10;" d="M135.738,275.722v7.913
										c0,2.761-2.238,4.999-4.999,4.999h-7.74h-7.74c-2.761,0-4.999-2.238-4.999-4.999v-7.913c0-1.198,0.431-2.357,1.213-3.265
										l7.74-8.974c1.994-2.312,5.576-2.312,7.57,0l7.74,8.974C135.308,273.365,135.738,274.523,135.738,275.722z"/>
									<path style="fill:#8D615F;stroke:#7C434F;stroke-width:1.9329;stroke-miterlimit:10;" d="M110.261,231.389v-7.913
										c0-2.761,2.238-4.999,4.999-4.999h7.74h7.74c2.761,0,4.999,2.238,4.999,4.999v7.913c0,1.199-0.431,2.357-1.213,3.265
										l-7.74,8.974c-1.994,2.312-5.576,2.312-7.57,0l-7.74-8.974C110.691,233.747,110.261,232.588,110.261,231.389z"/>
									<path style="fill:#F1F8D1;" d="M112.194,231.389c-0.145-1.706-0.208-3.411-0.314-5.117l-0.106-2.558
										c-0.091-0.901,0.227-1.965,0.897-2.685c0.649-0.747,1.666-1.193,2.654-1.182l2.558-0.045l5.117-0.036l5.117,0.034
										l2.558,0.046c0.988-0.011,2.007,0.434,2.656,1.182c0.671,0.72,0.988,1.786,0.898,2.686l-0.106,2.558
										c-0.107,1.706-0.17,3.411-0.316,5.117c-0.146-1.706-0.209-3.411-0.316-5.117l-0.106-2.558
										c0.004-0.803-0.265-1.48-0.784-1.995c-0.513-0.508-1.205-0.77-1.925-0.744l-2.558,0.046l-5.117,0.034l-5.117-0.036
										l-2.558-0.045c-0.72-0.025-1.413,0.235-1.926,0.744c-0.519,0.516-0.787,1.193-0.784,1.997l-0.106,2.558
										C112.401,227.978,112.339,229.684,112.194,231.389z"/>
								</g>
							</g>
						</g>
						<path style="fill:#F1F8D1;" d="M125.321,264.745c2.774,2.438,5.249,5.133,7.654,7.889c0.286,0.36,0.599,0.651,0.913,1.155
							c0.283,0.472,0.465,1.007,0.507,1.554c0.023,0.29,0.002,0.53-0.003,0.748l-0.023,0.686c-0.012,0.457-0.034,0.914-0.062,1.372
							c-0.094,1.829-0.235,3.658-0.503,5.486c-0.268-1.829-0.408-3.658-0.503-5.486c-0.027-0.457-0.05-0.914-0.062-1.372
							l-0.023-0.686c-0.01-0.239-0.008-0.457-0.036-0.622c-0.051-0.362-0.169-0.715-0.367-1.021
							c-0.169-0.277-0.524-0.625-0.815-0.972C129.628,270.691,127.325,267.847,125.321,264.745z"/>
					</g>
				</g>
			</g>
			<path style="fill:#EB5C48;stroke:#7C434F;stroke-width:1.9329;stroke-miterlimit:10;" d="M182.613,220.712
				c-9.347,0-13.687-3.617-13.687-11.35v-17.359c0-7.734,4.34-11.35,13.687-11.35h13.91c1.391,0,2.003,0.612,2.003,2.003v6.732
				c0,1.391-0.612,2.003-2.003,2.003H184.95c-2.337,0-3.394,0.89-3.394,2.782v13.298c0,1.892,0.835,2.727,2.559,2.727h5.397v-8.68
				c0-1.391,0.612-2.003,2.003-2.003h8.624c1.391,0,2.003,0.612,2.003,2.003v17.192c0,1.391-0.612,2.003-2.003,2.003H182.613z"/>
			<path style="fill:#F1F8D1;" d="M191.435,201.437c1.458-0.168,2.923-0.295,4.392-0.385c1.469-0.09,2.941-0.157,4.414-0.191
				l0.538-0.012l0.016,0.566c0.082,2.896,0.083,5.799,0.001,8.698c-0.034,1.45-0.1,2.899-0.189,4.346
				c-0.085,1.447-0.217,2.891-0.379,4.331l-0.001,0.01l-0.008-0.001l-0.081-0.008l0.08-0.011l-0.009,0.009
				c-0.162-1.452-0.293-2.9-0.379-4.345c-0.089-1.445-0.155-2.888-0.189-4.331c-0.082-2.885-0.081-5.767,0.001-8.654l0.554,0.554
				c-1.456-0.034-2.911-0.1-4.37-0.191C194.368,201.732,192.906,201.605,191.435,201.437z"/>
			<path style="fill:#F1F8D1;" d="M179.635,194.173c0.248,2.328,0.414,4.656,0.498,6.984c0.059,1.164,0.072,2.328,0.107,3.492
				l0.02,1.746c0.008,0.582-0.004,1.18,0.047,1.683c0.079,1.045,0.48,2.025,1.234,2.642c0.75,0.648,1.781,0.88,2.909,0.899
				c2.328,0.084,4.656,0.251,6.984,0.5c-2.328,0.249-4.656,0.416-6.984,0.5c-1.178,0.104-2.588-0.116-3.67-0.954
				c-1.098-0.842-1.635-2.208-1.747-3.462c-0.052-0.657-0.023-1.225-0.023-1.807l0.02-1.746c0.035-1.164,0.048-2.328,0.107-3.492
				C179.221,198.829,179.387,196.501,179.635,194.173z"/>
			<path style="fill:#F1F8D1;" d="M182.613,182.574c1.166-0.178,2.333-0.298,3.501-0.384c1.168-0.09,2.337-0.157,3.505-0.191
				c2.337-0.082,4.674-0.083,7.006,0.003l0.567,0.021l-0.016,0.531c-0.034,1.157-0.101,2.315-0.191,3.468
				c-0.086,1.154-0.205,2.304-0.382,3.446c-0.177-1.156-0.296-2.302-0.382-3.446c-0.09-1.144-0.157-2.284-0.191-3.425l0.552,0.552
				c-2.331,0.085-4.658,0.084-6.984,0.002c-1.163-0.035-2.327-0.101-3.49-0.191C184.943,182.872,183.779,182.752,182.613,182.574z"
				/>
			<path style="fill:#EB5C48;stroke:#7C434F;stroke-width:1.9329;stroke-miterlimit:10;" d="M218.275,220.712h-8.179
				c-1.391,0-2.003-0.612-2.003-2.003v-14.689c0-2.226,0.668-5.007,2.17-8.902l4.841-12.63c0.445-1.279,1.335-1.836,2.837-1.836
				h14.967c1.447,0,2.337,0.557,2.782,1.836l4.841,12.63c1.502,3.895,2.17,6.677,2.17,8.902v14.689c0,1.391-0.612,2.003-2.003,2.003
				h-8.402c-1.502,0-2.17-0.612-2.17-2.003v-7.789h-9.848v7.789C220.277,220.1,219.665,220.712,218.275,220.712z M220.834,200.794
				h8.736l-2.615-8.457c-0.278-0.668-0.612-0.946-1.057-0.946h-1.391c-0.445,0-0.779,0.278-1.057,0.946L220.834,200.794z"/>
			<g>
				<path style="fill:#F1F8D1;" d="M216.897,183.176c0.041-0.135,0.074-0.276,0.161-0.398c0.09-0.123,0.242-0.184,0.382-0.218
					c0.288-0.064,0.575-0.062,0.857-0.082l1.7-0.073l3.401-0.143l6.801-0.178l1.7-0.044l0.85-0.015
					c0.291,0.017,0.578-0.065,1.1,0.158c0.3,0.143,0.471,0.486,0.515,0.626l0.157,0.401l0.314,0.789l0.629,1.579l2.465,6.333
					c0.784,2.124,1.649,4.212,2.349,6.415c0.337,1.101,0.637,2.22,0.831,3.374c0.096,0.577,0.168,1.163,0.191,1.758
					c0.015,0.61-0.017,1.158-0.027,1.73l-0.178,6.806c-0.107,2.267-0.168,4.533-0.313,6.795l0,0.005l-0.004,0l-0.08-0.003
					l0.08-0.006l-0.004,0.004c-0.144-2.272-0.205-4.54-0.312-6.807l-0.177-6.796c-0.02-1.157-0.052-2.2-0.281-3.285
					c-0.21-1.077-0.526-2.145-0.881-3.202c-0.705-2.11-1.586-4.212-2.39-6.333l-2.402-6.368l-0.588-1.597l-0.294-0.798l-0.143-0.395
					c-0.05-0.123-0.022-0.05,0.016-0.036c0-0.02-0.304-0.055-0.573-0.049l-0.85-0.015l-1.7-0.044l-6.801-0.178l-3.401-0.143
					l-1.7-0.073c-0.284-0.012-0.567-0.045-0.84-0.015c-0.134,0.017-0.269,0.054-0.362,0.154
					C217.003,182.909,216.952,183.046,216.897,183.176z"/>
				<path style="fill:#F1F8D1;" d="M218.356,208.999c0.505,1.632,0.618,3.272,0.639,4.908c-0.011,0.818-0.039,1.635-0.141,2.45
					c-0.094,0.815-0.233,1.628-0.5,2.434c-0.266-0.826-0.406-1.645-0.499-2.462c-0.102-0.817-0.129-1.632-0.14-2.446
					C217.737,212.254,217.851,210.63,218.356,208.999z"/>
				<path style="fill:#F1F8D1;" d="M225.897,189.469c-0.438,0.04-0.876,0.096-1.313,0.123c-0.427,0.024-0.828,0.142-1.18,0.342
					c-0.706,0.412-1.133,1.123-1.402,1.897l0.012-0.034c-0.471,1.869-0.981,3.726-1.512,5.577c-0.256,0.928-0.545,1.846-0.819,2.769
					c-0.273,0.923-0.556,1.843-0.852,2.759l-0.602-0.816c2.324,0.013,4.649,0.056,6.973,0.158c1.162,0.041,2.324,0.109,3.487,0.185
					c1.162,0.094,2.324,0.156,3.487,0.287c-1.162,0.131-2.325,0.193-3.487,0.287c-1.162,0.076-2.324,0.144-3.487,0.185
					c-2.324,0.102-4.649,0.145-6.973,0.158l-0.843,0.005l0.242-0.821c0.272-0.923,0.559-1.842,0.854-2.758
					c0.294-0.916,0.575-1.837,0.887-2.748c0.606-1.827,1.233-3.648,1.9-5.457l0.012-0.034c0.197-0.413,0.443-0.833,0.764-1.187
					c0.323-0.354,0.73-0.635,1.17-0.811c0.442-0.171,0.92-0.23,1.369-0.188C225.021,189.374,225.459,189.429,225.897,189.469z"/>
			</g>
			<path style="fill:#EB5C48;stroke:#7C434F;stroke-width:1.9329;stroke-miterlimit:10;" d="M251.543,220.712
				c-1.391,0-2.003-0.612-2.003-2.003v-36.054c0-1.391,0.612-2.003,2.003-2.003h8.958c1.168,0,1.892,0.445,2.559,1.669l5.007,9.069
				c0.39,0.668,0.556,0.946,1.002,0.946h0.501c0.445,0,0.612-0.278,1.001-0.946l4.952-9.069c0.668-1.224,1.391-1.669,2.559-1.669
				h9.013c1.391,0,2.003,0.612,2.003,2.003v36.054c0,1.391-0.612,2.003-2.003,2.003h-8.568c-1.447,0-2.003-0.612-2.003-2.003
				v-19.585l-3.283,6.065c-0.668,1.28-1.502,1.78-2.949,1.78h-2.226c-1.447,0-2.281-0.501-2.949-1.78l-3.283-6.065v19.585
				c0,1.391-0.612,2.003-2.003,2.003H251.543z"/>
			<path style="fill:#F1F8D1;" d="M277.21,183.243c0.094-0.193,0.179-0.391,0.33-0.561c0.163-0.191,0.44-0.177,0.637-0.193
				l1.286-0.067l2.575-0.126c1.718-0.084,3.436-0.111,5.155-0.17l0.418-0.014l0.014,0.446c0.19,6.034,0.215,12.081,0.165,18.124
				c-0.032,3.022-0.092,6.043-0.198,9.062c-0.077,3.019-0.217,6.035-0.411,9.046l0,0.006l-0.005,0l-0.08-0.004l0.08-0.007
				l-0.005,0.005c-0.194-3.025-0.334-6.045-0.411-9.061c-0.106-3.017-0.166-6.032-0.198-9.046c-0.05-6.028-0.024-12.053,0.165-18.09
				l0.432,0.432c-1.709-0.059-3.42-0.087-5.13-0.171l-2.568-0.127l-1.285-0.067c-0.217-0.01-0.426-0.054-0.578,0.085
				C277.444,182.876,277.327,183.065,277.21,183.243z"/>
			<path style="fill:#F1F8D1;" d="M251.463,182.575c2.04-0.265,4.091-0.404,6.144-0.499c1.045-0.057,2.012-0.078,3.124-0.102
				c0.191-0.014,0.588,0.137,0.733,0.318c0.163,0.166,0.24,0.299,0.322,0.426l0.393,0.689l0.756,1.338
				c0.98,1.798,1.946,3.605,2.848,5.448c0.47,0.898,0.865,1.897,1.354,2.717c0.248,0.409,0.572,0.756,0.989,0.991
				c0.418,0.238,0.928,0.298,1.445,0.356c-0.503,0.075-1.045,0.147-1.581-0.029c-0.533-0.165-0.995-0.53-1.356-0.941
				c-0.692-0.859-1.164-1.73-1.721-2.604c-1.08-1.746-2.096-3.529-3.097-5.32l-0.731-1.354l-0.356-0.654
				c-0.052-0.09-0.113-0.177-0.13-0.193c-0.031-0.008,0.113,0.041,0.047,0.018c-0.937-0.04-2.021-0.049-3.026-0.109
				C255.572,182.978,253.523,182.839,251.463,182.575z"/>
			<path style="fill:#F1F8D1;" d="M259.915,199.124c0.505,3.278,0.618,6.563,0.639,9.845c-0.011,1.641-0.039,3.281-0.141,4.918
				c-0.094,1.638-0.233,3.273-0.5,4.902c-0.266-1.649-0.405-3.291-0.499-4.931c-0.102-1.64-0.129-3.277-0.14-4.914
				C259.296,205.671,259.41,202.402,259.915,199.124z"/>
			<path style="fill:#F1F8D1;" d="M276.741,195.001c-0.582,2.01-1.469,3.847-2.432,5.642c-0.486,0.895-1.008,1.77-1.562,2.628
				c-0.281,0.428-0.565,0.85-0.873,1.267c-0.167,0.198-0.363,0.479-0.717,0.6c-0.344,0.105-0.609-0.003-0.863-0.089
				c0.25-0.096,0.519-0.192,0.63-0.331c0.102-0.131,0.158-0.33,0.235-0.569c0.185-0.476,0.402-0.941,0.618-1.403
				c0.441-0.921,0.914-1.825,1.424-2.709C274.228,198.271,275.333,196.549,276.741,195.001z"/>
			<path style="fill:#EB5C48;stroke:#7C434F;stroke-width:1.9329;stroke-miterlimit:10;" d="M298.777,220.712
				c-1.391,0-2.003-0.612-2.003-2.003v-36.054c0-1.391,0.612-2.003,2.003-2.003h25.817c1.391,0,2.003,0.612,2.003,2.003v6.51
				c0,1.391-0.612,2.003-2.003,2.003h-15.356v4.284h10.849c1.391,0,2.003,0.612,2.003,2.003v5.953c0,1.391-0.612,2.003-2.003,2.003
				h-10.849v4.785h15.356c1.391,0,2.003,0.612,2.003,2.003v6.51c0,1.391-0.612,2.003-2.003,2.003H298.777z"/>
			<g>
				<path style="fill:#F1F8D1;" d="M298.697,182.575c4.315-0.395,8.651-0.559,12.988-0.616c2.169-0.025,4.338-0.029,6.506-0.002
					c2.168,0.027,4.335,0.085,6.499,0.173l0.449,0.018l-0.021,0.41c-0.058,1.119-0.095,2.237-0.183,3.352
					c-0.083,1.115-0.144,2.228-0.261,3.335c-0.117-1.116-0.178-2.227-0.261-3.335c-0.088-1.108-0.125-2.214-0.184-3.318l0.428,0.428
					c-2.165,0.088-4.328,0.145-6.489,0.173c-2.161,0.027-4.322,0.023-6.482-0.002C307.363,183.134,303.041,182.97,298.697,182.575z"
					/>
				<path style="fill:#F1F8D1;" d="M307.316,212.118c2.893-0.369,5.792-0.516,8.69-0.593c1.449-0.031,2.898-0.054,4.346-0.037
					c1.448,0.004,2.896,0.045,4.342,0.096l0.538,0.019l-0.023,0.496c-0.102,2.24-0.231,4.477-0.525,6.691l-0.001,0.011l-0.009-0.001
					l-0.08-0.009l0.079-0.011l-0.01,0.01c-0.294-2.234-0.423-4.443-0.525-6.649l0.515,0.515c-1.447,0.051-2.893,0.091-4.337,0.095
					c-1.445,0.017-2.889-0.006-4.333-0.037C313.096,212.636,310.209,212.488,307.316,212.118z"/>
				<path style="fill:#F1F8D1;" d="M307.316,197.374c2.142-0.352,4.29-0.493,6.437-0.578c2.147-0.078,4.294-0.081,6.436,0.011
					l0.564,0.024l-0.018,0.522c-0.035,1.027-0.101,2.055-0.192,3.079c-0.086,1.024-0.202,2.044-0.376,3.057
					c-0.174-1.025-0.29-2.042-0.376-3.057c-0.091-1.014-0.157-2.025-0.192-3.035l0.546,0.546c-2.142,0.092-4.278,0.089-6.415,0.01
					C311.594,197.868,309.458,197.726,307.316,197.374z"/>
			</g>
			<g>
				<path style="fill:#F7B54A;stroke:#7C434F;stroke-width:1.9329;stroke-miterlimit:10;" d="M204.008,262.896
					c-10.23,0-12.726-3.356-12.726-8.348v-13.954c0-4.992,2.496-8.389,12.726-8.389c10.23,0,12.686,3.396,12.686,8.389v13.954
					C216.693,259.54,214.238,262.896,204.008,262.896z M204.008,254.998c2.987,0,3.437-0.818,3.437-1.923v-11.008
					c0-1.064-0.45-1.882-3.437-1.882c-2.946,0-3.437,0.818-3.437,1.882v11.008C200.57,254.179,201.062,254.998,204.008,254.998z"/>
				<g>
					<path style="fill:#F1F8D1;" d="M193.203,240.594c-0.049-0.889-0.031-1.804,0.26-2.678c0.276-0.876,0.86-1.663,1.608-2.216
						c1.524-1.1,3.378-1.474,5.153-1.743c1.797-0.25,3.603-0.273,5.406-0.233c1.803,0.071,3.626,0.234,5.411,0.783
						c0.877,0.321,1.753,0.73,2.487,1.387c0.74,0.648,1.247,1.568,1.458,2.503c0.225,0.936,0.211,1.884,0.202,2.765
						c-0.002,0.892-0.021,1.785-0.046,2.677c-0.077,3.569-0.17,7.138-0.37,10.708c-0.2-3.569-0.292-7.139-0.37-10.708
						c-0.025-0.892-0.044-1.785-0.046-2.677c-0.004-0.898-0.013-1.754-0.22-2.556c-0.198-0.798-0.606-1.503-1.22-2.028
						c-0.609-0.53-1.382-0.88-2.179-1.162c-3.284-1.007-6.947-0.952-10.429-0.73c-1.732,0.171-3.523,0.461-4.968,1.394
						c-0.723,0.452-1.311,1.115-1.64,1.921C193.367,238.807,193.256,239.704,193.203,240.594z"/>
					<path style="fill:#F1F8D1;" d="M198.649,242.067c0.378,3.085,0.465,6.169,0.48,9.254l-0.011,1.157
						c-0.007,0.395-0.01,0.769,0.017,1.102c0.049,0.695,0.314,1.325,0.78,1.823c0.982,0.981,2.577,1.324,4.092,1.517
						c-1.51,0.16-3.234,0.151-4.605-0.97c-0.673-0.561-1.06-1.424-1.17-2.263c-0.057-0.433-0.048-0.833-0.052-1.208l-0.011-1.157
						C198.184,248.236,198.271,245.151,198.649,242.067z"/>
				</g>
				<path style="fill:#F7B54A;stroke:#7C434F;stroke-width:1.9329;stroke-miterlimit:10;" d="M228.685,262.282
					c-1.064,0-1.678-0.327-2.087-1.35l-4.01-10.026c-0.982-2.455-1.309-3.232-1.309-5.811v-10.803c0-1.023,0.45-1.473,1.473-1.473
					h6.506c1.023,0,1.596,0.45,1.596,1.473v11.294c0,0.573,0.123,1.064,0.327,1.678l1.923,5.729
					c0.164,0.532,0.327,0.696,0.777,0.696h0.45c0.45,0,0.614-0.164,0.777-0.696l1.923-5.77c0.205-0.614,0.327-1.105,0.327-1.678
					v-11.253c0-1.023,0.45-1.473,1.473-1.473h6.424c1.064,0,1.473,0.45,1.473,1.473v10.803c0,2.578-0.327,3.355-1.309,5.811
					l-4.01,10.026c-0.409,1.023-1.023,1.35-2.087,1.35H228.685z"/>
				<path style="fill:#F1F8D1;" d="M223.2,234.74c1.91-0.172,3.82-0.286,5.73-0.355l0.342-0.012l0.014,0.367
					c0.118,3.205,0.146,6.409,0.107,9.614l-0.025,1.202c-0.01,0.375,0.019,0.743,0.084,1.114c0.119,0.735,0.392,1.501,0.607,2.274
					c0.439,1.543,0.854,3.094,1.225,4.659c-0.648-1.473-1.253-2.96-1.834-4.455c-0.273-0.751-0.601-1.48-0.798-2.319
					c-0.092-0.414-0.145-0.847-0.152-1.273l-0.026-1.202c-0.041-3.205-0.014-6.409,0.103-9.614l0.355,0.355
					C227.02,235.027,225.11,234.912,223.2,234.74z"/>
				<path style="fill:#F1F8D1;" d="M239.281,234.74c0.921-0.073,1.842-0.117,2.764-0.166c0.921-0.055,1.843-0.095,2.764-0.119
					l0.275-0.007l0.01,0.292c0.078,2.215,0.146,4.429,0.17,6.644l0.022,3.322c0.016,1.091-0.007,2.298-0.377,3.425
					c-0.356,1.106-0.822,2.093-1.241,3.122c-0.421,1.024-0.878,2.034-1.319,3.05c-0.882,2.033-1.787,4.054-2.764,6.052l-0.005,0.01
					l-0.009,0l-0.246-0.005l0.242-0.03l-0.013,0.009c0.69-2.105,1.414-4.204,2.182-6.281c0.721-2.079,1.59-4.175,2.282-6.2
					c0.322-0.993,0.311-2.038,0.316-3.152l0.022-3.322c0.024-2.215,0.091-4.429,0.17-6.644l0.285,0.285
					c-0.921-0.024-1.843-0.064-2.764-0.119C241.124,234.858,240.202,234.813,239.281,234.74z"/>
				<path style="fill:#F7B54A;stroke:#7C434F;stroke-width:1.9329;stroke-miterlimit:10;" d="M253.239,262.282
					c-1.023,0-1.473-0.45-1.473-1.473v-26.517c0-1.023,0.45-1.473,1.473-1.473h18.987c1.023,0,1.473,0.45,1.473,1.473v4.788
					c0,1.023-0.45,1.473-1.473,1.473h-11.294v3.151h7.98c1.023,0,1.473,0.45,1.473,1.473v4.379c0,1.023-0.45,1.473-1.473,1.473
					h-7.98v3.519h11.294c1.023,0,1.473,0.45,1.473,1.473v4.788c0,1.023-0.45,1.473-1.473,1.473H253.239z"/>
				<path style="fill:#F1F8D1;" d="M259.01,256.469c2.128-0.283,4.256-0.412,6.384-0.458c2.128-0.041,4.256-0.017,6.383,0.098
					l0.378,0.021l-0.018,0.34c-0.068,1.297-0.185,2.594-0.36,3.891c-0.175-1.297-0.293-2.594-0.36-3.891l0.36,0.36
					c-2.128,0.115-4.256,0.138-6.383,0.098C263.266,256.881,261.138,256.752,259.01,256.469z"/>
				<path style="fill:#F1F8D1;" d="M259.01,245.625c1.575-0.281,3.151-0.392,4.726-0.448c1.576-0.046,3.151-0.037,4.726,0.056
					l0.415,0.025l-0.023,0.368c-0.071,1.161-0.178,2.321-0.392,3.482c-0.214-1.161-0.321-2.321-0.392-3.482l0.392,0.392
					c-1.575,0.093-3.151,0.102-4.726,0.056C262.161,246.018,260.585,245.906,259.01,245.625z"/>
				<path style="fill:#F1F8D1;" d="M253.687,234.74c3.015-0.308,6.03-0.425,9.045-0.464c3.015-0.038,6.03-0.002,9.045,0.162
					l0.317,0.017l-0.015,0.285c-0.034,0.648-0.073,1.297-0.129,1.945c-0.052,0.648-0.096,1.297-0.172,1.945
					c-0.076-0.648-0.121-1.297-0.172-1.945c-0.056-0.648-0.095-1.297-0.13-1.945l0.302,0.302c-3.015,0.164-6.03,0.201-9.045,0.162
					C259.717,235.166,256.702,235.048,253.687,234.74z"/>
				<path style="fill:#F7B54A;stroke:#7C434F;stroke-width:1.9329;stroke-miterlimit:10;" d="M280.002,262.282
					c-1.023,0-1.473-0.45-1.473-1.473v-26.517c0-1.023,0.45-1.473,1.473-1.473h13.627c6.138,0,8.061,2.783,8.061,6.833v1.882
					c0,2.291-0.573,3.928-2.291,4.665c2.987,0.327,4.951,2.496,4.951,5.934v8.675c0,1.023-0.45,1.473-1.473,1.473h-6.343
					c-1.023,0-1.473-0.45-1.473-1.473v-6.261c0-1.228-0.409-1.76-1.555-1.76h-5.729v8.021c0,1.023-0.45,1.473-1.473,1.473H280.002z
					 M287.776,245.422h3.069c1.432,0,1.8-0.818,1.8-1.923v-1.391c0-1.105-0.368-1.923-1.8-1.923h-3.069V245.422z"/>
				<g>
					<path style="fill:#F1F8D1;" d="M280.45,234.74c2.292-0.198,4.583-0.291,6.875-0.368c2.299-0.081,4.568-0.115,6.891-0.098
						c1.171,0.061,2.385,0.166,3.528,0.71c0.563,0.268,1.105,0.656,1.498,1.178c0.399,0.517,0.622,1.134,0.727,1.735
						c0.211,1.223,0.057,2.367,0.035,3.507c-0.039,0.578-0.09,1.169-0.263,1.737c-0.145,0.558-0.512,1.156-1.099,1.292
						c0.546-0.246,0.765-0.813,0.852-1.35c0.095-0.549,0.072-1.114,0.04-1.679c-0.069-1.145-0.015-2.317-0.286-3.346
						c-0.137-0.515-0.353-0.988-0.667-1.374c-0.316-0.386-0.744-0.669-1.219-0.873c-0.947-0.431-2.074-0.538-3.177-0.576
						c-2.26-0.04-4.574-0.032-6.859-0.126C285.033,235.031,282.741,234.939,280.45,234.74z"/>
					<path style="fill:#F1F8D1;" d="M285.855,250.867c0.379,1.582,0.464,3.165,0.48,4.747c-0.014,1.582-0.099,3.165-0.48,4.747
						c-0.381-1.582-0.466-3.165-0.48-4.747C285.391,254.031,285.476,252.449,285.855,250.867z"/>
					<path style="fill:#F1F8D1;" d="M295.553,247.711c0.737,0.02,1.473,0.056,2.207,0.097c0.739,0.059,1.453,0.031,2.245,0.165
						c0.769,0.156,1.544,0.588,2.04,1.263c0.508,0.666,0.752,1.479,0.822,2.263c0.085,1.553,0.006,2.963-0.04,4.451
						c-0.066,1.47-0.193,2.94-0.4,4.41c-0.207-1.47-0.333-2.94-0.4-4.41c-0.072-1.45-0.067-2.983-0.098-4.366
						c-0.057-0.673-0.215-1.329-0.565-1.866c-0.335-0.55-0.881-0.94-1.518-1.19c-0.635-0.229-1.403-0.302-2.119-0.435
						C297.002,247.976,296.277,247.852,295.553,247.711z"/>
					<path style="fill:#F1F8D1;" d="M285.855,238.263c0.253,1.514,0.356,3.027,0.425,4.54c0.068,1.513,0.063,3.027,0.018,4.54
						l-0.444-0.444c1.663,0.059,3.327,0.169,4.99,0.444c-1.663,0.275-3.327,0.385-4.99,0.444l-0.43,0.015l-0.014-0.459
						c-0.045-1.513-0.049-3.027,0.019-4.54C285.498,241.29,285.601,239.776,285.855,238.263z"/>
				</g>
			</g>
		</g>
	</g>
</g>
<g id="DESIGNED_BY_FREEPIK">
	<g>
		<g id="XMLID_319_">
			<g id="XMLID_338_">
				<path id="XMLID_346_" style="fill:#1D262D;" d="M260.104,465.465c-0.433,0.443-0.804,0.932-1.108,1.453l-0.465-0.241
					c-0.067-0.297-0.35-0.502-0.659-0.466c-0.331,0.039-0.567,0.339-0.529,0.67c0.039,0.331,0.339,0.567,0.67,0.528
					c0.065-0.007,0.127-0.025,0.184-0.052l0.451,0.234c-0.251,0.554-0.433,1.139-0.539,1.743l0.747,0.132
					c0.229-1.306,0.85-2.507,1.792-3.473L260.104,465.465z"/>
				<path id="XMLID_345_" style="fill:#1D262D;" d="M265.592,463.163c-0.171,0-0.341,0.006-0.509,0.017l-0.074-0.626
					c0.188-0.149,0.296-0.389,0.266-0.645c-0.046-0.393-0.402-0.674-0.795-0.628c-0.393,0.046-0.675,0.402-0.628,0.796
					c0.03,0.254,0.19,0.461,0.404,0.563l0.073,0.624c-0.714,0.116-1.402,0.332-2.06,0.645l0.327,0.685
					c0.935-0.447,1.941-0.674,2.995-0.674c0.497,0,0.993,0.053,1.476,0.158l0.16-0.741
					C266.692,463.222,266.143,463.163,265.592,463.163z"/>
				<path id="XMLID_344_" style="fill:#1D262D;" d="M272.194,465.71c0.331-0.04,0.566-0.341,0.525-0.672
					c-0.04-0.331-0.341-0.566-0.672-0.525c-0.31,0.038-0.535,0.304-0.53,0.608l-0.416,0.363c-0.418-0.43-0.89-0.813-1.407-1.14
					l-0.404,0.642c1.135,0.715,2.021,1.727,2.564,2.925l0.69-0.313c-0.251-0.554-0.567-1.071-0.942-1.545l0.402-0.351
					C272.065,465.715,272.129,465.719,272.194,465.71z"/>
				<path id="XMLID_343_" style="fill:#1D262D;" d="M265.045,473.371c-0.386,0.023-0.775,0.035-1.157,0.035
					c-0.88,0-1.733-0.061-2.478-0.18c-0.391-0.061-0.846-0.154-1.271-0.292c1.047,1.861,3.069,3.125,5.389,3.125
					c2.855,0,5.263-1.916,5.949-4.503c-0.682,0.449-1.505,0.825-2.458,1.122C267.839,473.047,266.464,473.286,265.045,473.371z"/>
				<path id="XMLID_339_" style="fill:#1D262D;" d="M265.592,464.68c-3.352,0-6.079,2.666-6.079,5.943
					c0,0.425,0.046,0.849,0.137,1.261c0.674,0.483,2.706,0.891,5.348,0.731c2.88-0.174,5.297-0.958,6.672-2.159
					c-0.005-0.194-0.021-0.39-0.045-0.581C271.244,466.913,268.65,464.68,265.592,464.68z M263.433,471.194
					c-1.02,0-1.85-0.83-1.85-1.85c0-1.021,0.83-1.85,1.85-1.85c1.02,0,1.85,0.83,1.85,1.85
					C265.282,470.364,264.452,471.194,263.433,471.194z M268.17,470.286c-0.75,0-1.36-0.61-1.36-1.36s0.61-1.36,1.36-1.36
					s1.36,0.61,1.36,1.36S268.92,470.286,268.17,470.286z"/>
			</g>
			<path id="XMLID_336_" style="fill:#1D262D;" d="M281.596,466.547c-0.295-0.116-0.806-0.31-1.383-0.238
				c-0.551,0.069-0.844,0.341-0.844,1.007v0.866h2.228v1.717h-2.228v5.455h-1.932v-5.455h-1.339v-1.717h1.339v-0.889
				c0-1.68,0.896-2.782,2.568-2.782c0.643,0,1.157,0.121,1.59,0.308V466.547z"/>
			<path id="XMLID_334_" style="fill:#1D262D;" d="M286.298,469.878c-0.177-0.029-0.357-0.046-0.525-0.046
				c-0.895,0-1.51,0.548-1.51,1.613v3.908h-1.933v-7.172h1.873v0.784c0.451-0.673,1.14-0.977,2.021-0.977
				c0.414,0,0.848,0.128,1.095,0.337L286.298,469.878z"/>
			<path id="XMLID_331_" style="fill:#1D262D;" d="M293.966,471.757c0,0.222-0.016,0.488-0.037,0.651h-5.085
				c0.207,1.036,0.933,1.487,1.843,1.487c0.622,0,1.295-0.252,1.813-0.689l1.133,1.243c-0.815,0.748-1.851,1.089-3.057,1.089
				c-2.198,0-3.724-1.496-3.724-3.753c0-2.258,1.48-3.797,3.627-3.797C292.544,467.989,293.958,469.522,293.966,471.757z
				 M288.852,471.091h3.175c-0.178-0.918-0.732-1.436-1.561-1.436C289.555,469.654,289.022,470.202,288.852,471.091z"/>
			<path id="XMLID_328_" style="fill:#1D262D;" d="M301.619,471.757c0,0.222-0.016,0.488-0.037,0.651h-5.085
				c0.207,1.036,0.933,1.487,1.843,1.487c0.622,0,1.296-0.252,1.814-0.689l1.133,1.243c-0.814,0.748-1.851,1.089-3.058,1.089
				c-2.198,0-3.723-1.496-3.723-3.753c0-2.258,1.48-3.797,3.627-3.797C300.197,467.989,301.611,469.522,301.619,471.757z
				 M296.505,471.091h3.175c-0.178-0.918-0.733-1.436-1.561-1.436C297.208,469.654,296.675,470.202,296.505,471.091z"/>
			<path id="XMLID_325_" style="fill:#1D262D;" d="M309.965,471.764c0,2.154-1.495,3.775-3.472,3.775
				c-0.962,0-1.643-0.378-2.109-0.933v3.708h-1.925v-10.133h1.888v0.792c0.467-0.585,1.154-0.984,2.139-0.984
				C308.47,467.989,309.965,469.61,309.965,471.764z M304.287,471.764c0,1.133,0.748,1.977,1.844,1.977
				c1.14,0,1.85-0.881,1.85-1.977c0-1.095-0.71-1.976-1.85-1.976C305.035,469.788,304.287,470.632,304.287,471.764z"/>
			<path id="XMLID_322_" style="fill:#1D262D;" d="M313.068,465.835c0,0.696-0.541,1.23-1.236,1.23c-0.696,0-1.228-0.533-1.228-1.23
				c0-0.695,0.532-1.243,1.228-1.243C312.527,464.592,313.068,465.14,313.068,465.835z M312.809,475.353h-1.932v-7.172h1.932
				V475.353z"/>
			<path id="XMLID_320_" style="fill:#1D262D;" d="M316.032,470.735l2.702-2.554h2.368l-3.478,3.375l3.501,3.797h-2.376
				l-2.717-2.901v2.901h-1.932v-10.658h1.932V470.735z"/>
		</g>
		<g>
			<path style="fill:#1D262D;" d="M184.413,475.289v-1.055c-0.527,0.718-1.391,1.23-2.387,1.23c-1.846,0-3.149-1.406-3.149-3.706
				c0-2.256,1.289-3.721,3.149-3.721c0.952,0,1.816,0.469,2.387,1.245v-3.765h1.099v9.771H184.413z M184.413,473.37v-3.208
				c-0.395-0.615-1.245-1.143-2.124-1.143c-1.42,0-2.27,1.172-2.27,2.739c0,1.567,0.85,2.725,2.27,2.725
				C183.168,474.483,184.018,473.985,184.413,473.37z"/>
			<path style="fill:#1D262D;" d="M186.932,471.744c0-2.051,1.465-3.706,3.486-3.706c2.139,0,3.398,1.67,3.398,3.794v0.278h-5.727
				c0.088,1.333,1.025,2.446,2.549,2.446c0.806,0,1.626-0.322,2.182-0.894l0.527,0.718c-0.703,0.703-1.655,1.084-2.812,1.084
				C188.441,475.465,186.932,473.956,186.932,471.744z M190.404,468.946c-1.509,0-2.256,1.274-2.314,2.358h4.644
				C192.718,470.25,192.015,468.946,190.404,468.946z"/>
			<path style="fill:#1D262D;" d="M194.607,474.352l0.571-0.791c0.469,0.542,1.362,1.011,2.329,1.011c1.084,0,1.67-0.513,1.67-1.216
				c0-1.714-4.38-0.659-4.38-3.281c0-1.099,0.952-2.036,2.636-2.036c1.202,0,2.051,0.454,2.623,1.025l-0.513,0.762
				c-0.424-0.513-1.201-0.893-2.109-0.893c-0.966,0-1.567,0.483-1.567,1.113c0,1.553,4.379,0.527,4.379,3.281
				c0,1.186-0.952,2.139-2.783,2.139C196.307,475.465,195.325,475.113,194.607,474.352z"/>
			<path style="fill:#1D262D;" d="M201.478,466.471c0-0.41,0.337-0.747,0.732-0.747c0.41,0,0.747,0.337,0.747,0.747
				c0,0.41-0.337,0.732-0.747,0.732C201.814,467.203,201.478,466.881,201.478,466.471z M201.667,475.289v-7.075h1.099v7.075H201.667
				z"/>
			<path style="fill:#1D262D;" d="M204.583,477.105l0.556-0.82c0.586,0.703,1.289,0.967,2.3,0.967c1.172,0,2.27-0.571,2.27-2.124
				v-1.011c-0.513,0.718-1.377,1.26-2.373,1.26c-1.846,0-3.149-1.377-3.149-3.662c0-2.271,1.289-3.677,3.149-3.677
				c0.952,0,1.802,0.469,2.373,1.245v-1.069h1.099v6.87c0,2.344-1.641,3.076-3.369,3.076
				C206.237,478.16,205.417,477.925,204.583,477.105z M209.709,473.253v-3.091c-0.381-0.615-1.23-1.143-2.109-1.143
				c-1.421,0-2.27,1.128-2.27,2.695c0,1.553,0.849,2.695,2.27,2.695C208.479,474.41,209.328,473.868,209.709,473.253z"/>
			<path style="fill:#1D262D;" d="M217.414,475.289v-4.629c0-1.245-0.63-1.641-1.582-1.641c-0.864,0-1.685,0.527-2.094,1.099v5.171
				h-1.099v-7.075h1.099v1.025c0.497-0.586,1.464-1.201,2.519-1.201c1.48,0,2.256,0.747,2.256,2.285v4.966H217.414z"/>
			<path style="fill:#1D262D;" d="M219.933,471.744c0-2.051,1.465-3.706,3.486-3.706c2.139,0,3.398,1.67,3.398,3.794v0.278h-5.727
				c0.088,1.333,1.025,2.446,2.548,2.446c0.806,0,1.626-0.322,2.183-0.894l0.527,0.718c-0.703,0.703-1.655,1.084-2.813,1.084
				C221.442,475.465,219.933,473.956,219.933,471.744z M223.404,468.946c-1.509,0-2.256,1.274-2.314,2.358h4.643
				C225.719,470.25,225.016,468.946,223.404,468.946z"/>
			<path style="fill:#1D262D;" d="M233.351,475.289v-1.055c-0.527,0.718-1.392,1.23-2.388,1.23c-1.845,0-3.149-1.406-3.149-3.706
				c0-2.256,1.289-3.721,3.149-3.721c0.952,0,1.817,0.469,2.388,1.245v-3.765h1.098v9.771H233.351z M233.351,473.37v-3.208
				c-0.396-0.615-1.245-1.143-2.124-1.143c-1.421,0-2.27,1.172-2.27,2.739c0,1.567,0.85,2.725,2.27,2.725
				C232.105,474.483,232.955,473.985,233.351,473.37z"/>
			<path style="fill:#1D262D;" d="M239.692,475.289v-9.771h1.099v3.765c0.571-0.776,1.421-1.245,2.388-1.245
				c1.845,0,3.149,1.465,3.149,3.721c0,2.3-1.304,3.706-3.149,3.706c-0.996,0-1.86-0.513-2.388-1.23v1.055H239.692z M242.9,474.483
				c1.436,0,2.285-1.157,2.285-2.725c0-1.567-0.85-2.739-2.285-2.739c-0.864,0-1.729,0.527-2.109,1.143v3.208
				C241.172,473.985,242.036,474.483,242.9,474.483z"/>
			<path style="fill:#1D262D;" d="M247.529,477.061c0.161,0.073,0.425,0.117,0.6,0.117c0.483,0,0.806-0.161,1.055-0.747l0.469-1.069
				l-2.959-7.148h1.187l2.358,5.801l2.344-5.801h1.2l-3.544,8.511c-0.425,1.024-1.143,1.421-2.08,1.436
				c-0.234,0-0.601-0.044-0.806-0.103L247.529,477.061z"/>
		</g>
	</g>
</g>
</svg>
