<?xml version="1.0" encoding="utf-8"?>
<!-- Generator: Adobe Illustrator 27.5.0, SVG Export Plug-In . SVG Version: 6.00 Build 0)  -->
<svg version="1.1" xmlns="http://www.w3.org/2000/svg" xmlns:xlink="http://www.w3.org/1999/xlink" x="0px" y="0px"
	 viewBox="0 0 500 500" style="enable-background:new 0 0 500 500;" xml:space="preserve">
<g id="Floor">
	<ellipse id="Floor_4_" style="fill:#F5F5F5;" cx="249.531" cy="345.839" rx="231.152" ry="133.456"/>
</g>
<g id="Shadows">
	<path id="Shadow_24_" style="fill:#E0E0E0;" d="M428.587,369.864l-60.663-35.024c-1.196-0.69-1.195-1.808,0.002-2.497
		l39.021-22.489c1.197-0.688,3.136-0.687,4.332,0.003l60.663,35.024c1.196,0.69,1.195,1.808-0.002,2.497l-39.021,22.488
		C431.722,370.556,429.783,370.554,428.587,369.864z"/>
	<ellipse id="Shadow_16_" style="fill:#E0E0E0;" cx="165.859" cy="377.6" rx="101.926" ry="58.847"/>
	<ellipse id="Shadow_7_" style="fill:#E0E0E0;" cx="262.078" cy="365.695" rx="66.391" ry="38.331"/>
</g>
<g id="Plants">
	<g id="Plants_1_">
		<g id="XMLID_574_">
			<g id="XMLID_579_">
				<path id="XMLID_580_" style="fill:#37474F;" d="M64.513,327.718l0.82-13.014c0,0-0.775-16.611-17.233-31.939
					c-9.993-9.306-18.274-4.293-20.338,0.777c-2.065,5.07-0.353,12.757,9.368,19.945c15.221,11.256,28.013,29.066,29.659,41.689
					L64.513,327.718z"/>
			</g>
			<g id="XMLID_575_">
				<path id="XMLID_576_" style="fill:#FFFFFF;" d="M64.034,324.046c-0.274,0.036-0.542-0.131-0.624-0.403
					c-7.495-24.8-29.051-39.681-29.268-39.828c-0.263-0.179-0.331-0.537-0.152-0.799c0.178-0.263,0.537-0.329,0.799-0.153
					c0.22,0.15,22.108,15.247,29.723,40.446c0.092,0.304-0.08,0.625-0.384,0.717C64.096,324.035,64.065,324.042,64.034,324.046z"/>
			</g>
		</g>
		<g id="XMLID_548_">
			<g id="XMLID_572_">
				<path id="XMLID_573_" style="fill:#455A64;" d="M65.168,328.152c-0.147-1.434-0.575-2.817-1.507-3.892
					c-1.605-1.853-4.404-2.447-5.75-4.496c-0.633-0.964-0.857-2.131-1.282-3.203c-0.942-2.38-2.911-4.288-5.231-5.368
					c-2.32-1.08-4.966-1.367-7.505-1.044c-1.931,0.246-3.806,0.83-5.733,1.105c-6.328,0.903-12.192-4.901-18.484-0.976
					c-3.783,2.36-3.521,6.479-1.428,9.934c1.074,1.772,2.506,3.302,4.084,4.633c1.698,1.432,3.491,2.302,3.664,4.805
					c0.126,1.823-0.444,3.63-0.426,5.457c0.03,3,1.692,5.835,4.01,7.739c2.318,1.904,5.234,2.96,8.181,3.519
					c2.186,0.414,4.714,0.75,5.92,2.619c0.62,0.96,0.746,2.143,1.029,3.25c0.932,3.639,3.726,6.644,7.095,8.306
					c3.369,1.662,7.257,2.073,10.993,1.682c3.203-0.336,6.431-1.289,8.925-3.326c4.278-3.494,1.818-10.101-0.966-13.789
					c-1.223-1.62-2.742-3.007-3.878-4.689c-2.263-3.349-1.888-6.246-1.673-10.078C65.245,329.62,65.243,328.879,65.168,328.152z"/>
			</g>
			<g id="XMLID_570_">
				<path id="XMLID_571_" style="fill:#FFFFFF;" d="M68.511,352.795c-0.195,0.036-0.399-0.053-0.501-0.237
					c-15.307-27.534-39.874-35.262-40.12-35.336c-0.251-0.076-0.392-0.341-0.316-0.592c0.075-0.25,0.34-0.394,0.591-0.316
					c0.25,0.075,25.173,7.899,40.674,35.784c0.128,0.229,0.045,0.518-0.184,0.645C68.609,352.768,68.56,352.786,68.511,352.795z"/>
			</g>
			<g id="XMLID_568_">
				<path id="XMLID_569_" style="fill:#FFFFFF;" d="M53.909,333.844c-0.035,0.006-0.07,0.009-0.107,0.007
					c-6.728-0.283-16.913,2.422-17.016,2.447c-0.256,0.068-0.513-0.082-0.581-0.335c-0.068-0.253,0.082-0.514,0.336-0.581
					c0.423-0.115,10.428-2.769,17.301-2.479c0.262,0.011,0.465,0.232,0.454,0.494C54.287,333.622,54.122,333.804,53.909,333.844z"/>
			</g>
			<g id="XMLID_549_">
				<path id="XMLID_562_" style="fill:#FFFFFF;" d="M49.031,329.266c-0.009,0.002-0.017,0.003-0.027,0.004
					c-0.26,0.034-0.498-0.15-0.531-0.41c-0.669-5.231,0.225-10.014,0.263-10.215c0.049-0.257,0.298-0.428,0.555-0.377
					c0.257,0.048,0.426,0.297,0.377,0.555c-0.009,0.048-0.903,4.84-0.254,9.916C49.447,328.99,49.277,329.22,49.031,329.266z"/>
			</g>
		</g>
	</g>
</g>
<g id="Screen_1_">
	<g id="Screen">
		<path id="XMLID_542_" style="opacity:0.3;fill:#27DEBF;" d="M460.241,135.549L275.33,28.804c-2.783-1.607-5.039-0.304-5.039,2.909
			v146.441c0,3.213,2.256,7.12,5.039,8.727L460.24,293.626c2.783,1.607,5.039,0.304,5.039-2.909l0-146.441
			C465.279,141.063,463.023,137.156,460.241,135.549z"/>
		<path id="XMLID_541_" style="opacity:0.5;fill:#FFFFFF;" d="M460.241,135.549L275.33,28.804c-2.783-1.607-5.039-0.304-5.039,2.909
			v146.441c0,3.213,2.256,7.12,5.039,8.727L460.24,293.626c2.783,1.607,5.039,0.304,5.039-2.909l0-146.441
			C465.279,141.063,463.023,137.156,460.241,135.549z"/>
		<path style="opacity:0.3;fill:#27DEBF;" d="M461.217,266.061v-18.762l-12.186-7.036l-0.001,14.072l-4.061-2.345v-23.452
			l-8.124-4.691v9.381l-4.062-2.345v18.762l-8.124-4.69v-14.072l-4.062-2.345l0.001-4.69l-4.063-2.345v-4.69l-4.062-2.346v4.691
			l-4.061-2.346v4.691l-4.063-2.345l0.001,4.69l-8.124-4.69v-14.072l-12.186-7.036v23.453l-4.062-2.345l-0.001-14.071l-8.123-4.691
			v14.071l-4.063-2.345v-4.69l-8.125-4.691v-9.381l-8.123-4.691v4.691l-4.062-2.367v14.094l-4.063-2.346v-18.761l-4.061-2.346
			l0-4.69l-4.062-2.345v-4.691l-4.063-2.345v4.691l-4.062-2.346v4.691l-4.061-2.345v23.452l-4.062-2.346v-9.38l-12.047-7.036v4.771
			l-8.264-4.771l0-9.382l-4.062-2.345l-0.001-4.69l-4.062-2.345l0.001-4.69l-4.064-2.345l0.001,4.689l-4.061-2.345l-0.001,4.69
			l-4.061-2.346l-0.001,9.382l-8.134-4.696v17.634c0,3.213,2.256,7.12,5.039,8.727L460.24,293.626
			c2.783,1.607,5.039,0.304,5.039-2.909v-22.311L461.217,266.061z"/>
		<g id="XMLID_539_" style="opacity:0.3;">
			<path style="fill:#27DEBF;" d="M273.079,29.116c0.517,0,1.122,0.192,1.75,0.554l184.911,106.745
				c2.46,1.421,4.539,5.02,4.539,7.861l-0.001,146.441c0,0.781-0.174,2.597-1.788,2.597c-0.517,0-1.122-0.192-1.75-0.554
				L275.83,186.016c-2.46-1.42-4.539-5.02-4.539-7.861V31.713C271.291,30.932,271.465,29.116,273.079,29.116 M273.079,28.116
				c-1.653,0-2.788,1.318-2.788,3.597v146.441c0,3.213,2.256,7.12,5.039,8.727L460.24,293.626c0.809,0.467,1.573,0.688,2.25,0.688
				c1.654,0,2.788-1.318,2.788-3.597l0.001-146.441c0-3.213-2.256-7.12-5.039-8.727L275.33,28.804
				C274.521,28.337,273.756,28.116,273.079,28.116L273.079,28.116z"/>
		</g>
		<g>
			<g>
				<path style="opacity:0.5;fill:#FFFFFF;" d="M323.644,104.55l80.169,46.285c4.783,2.761,8.66,9.477,8.66,15v22.214
					c0,5.523-3.877,7.761-8.66,5l-80.17-46.286c-4.783-2.761-8.66-9.477-8.66-15l0.001-22.214
					C314.984,104.027,318.861,101.789,323.644,104.55z"/>
				<g style="opacity:0.5;">
					<path style="fill:#27DEBF;" d="M407.681,194.736c-1.273,0-2.675-0.42-4.118-1.253l-80.171-46.286
						c-4.913-2.838-8.91-9.761-8.909-15.433V109.55c0.001-2.857,0.99-5.002,2.788-6.04c1.797-1.037,4.149-0.82,6.623,0.607
						l80.169,46.285c4.913,2.837,8.91,9.761,8.91,15.433v22.214c0,2.857-0.989,5.002-2.787,6.04
						C409.437,194.521,408.591,194.736,407.681,194.736z M319.778,103.864c-0.737,0-1.415,0.17-2.008,0.512
						c-1.475,0.851-2.287,2.688-2.287,5.174v22.214c-0.001,5.354,3.771,11.889,8.409,14.567l80.171,46.286
						c2.15,1.242,4.148,1.457,5.623,0.607c1.475-0.851,2.287-2.688,2.287-5.173v-22.214c0-5.354-3.772-11.889-8.41-14.567
						l-80.169-46.285C322.107,104.24,320.875,103.864,319.778,103.864z"/>
				</g>
				<g style="opacity:0.5;">
					<path style="fill:#27DEBF;" d="M336.413,122.745c0.8,0.462,1.534,1.064,2.203,1.806c0.669,0.743,1.247,1.534,1.734,2.373
						c0.488,0.84,0.869,1.677,1.145,2.509c0.274,0.833,0.418,1.561,0.431,2.184c0,0.173-0.04,0.299-0.121,0.377
						c-0.081,0.079-0.173,0.088-0.273,0.031l-2.457-1.419c-0.175-0.101-0.315-0.221-0.421-0.359
						c-0.106-0.138-0.216-0.317-0.329-0.536c-0.037-0.08-0.097-0.21-0.178-0.392c-0.082-0.182-0.197-0.388-0.347-0.619
						c-0.15-0.232-0.338-0.465-0.564-0.701c-0.225-0.235-0.5-0.447-0.824-0.635c-0.238-0.137-0.466-0.245-0.686-0.323
						c-0.219-0.078-0.412-0.113-0.581-0.104c-0.169,0.008-0.307,0.078-0.412,0.21c-0.107,0.131-0.159,0.341-0.159,0.63
						c0,0.289,0.06,0.564,0.178,0.824c0.119,0.262,0.318,0.555,0.601,0.881c0.28,0.326,0.652,0.699,1.115,1.121
						c0.463,0.421,1.038,0.936,1.725,1.544c0.688,0.609,1.288,1.225,1.8,1.848c0.513,0.623,0.94,1.279,1.285,1.969
						c0.344,0.689,0.601,1.415,0.769,2.176c0.169,0.762,0.253,1.595,0.253,2.499c0,0.982-0.144,1.775-0.432,2.379
						c-0.287,0.604-0.69,1.03-1.209,1.279c-0.519,0.249-1.132,0.314-1.838,0.195c-0.706-0.119-1.478-0.42-2.315-0.904
						c-0.85-0.491-1.626-1.111-2.326-1.862c-0.7-0.751-1.303-1.556-1.81-2.416c-0.507-0.86-0.903-1.729-1.19-2.607
						c-0.288-0.878-0.438-1.687-0.45-2.425c0-0.173,0.041-0.299,0.122-0.377c0.081-0.078,0.172-0.088,0.271-0.031l2.457,1.419
						c0.175,0.101,0.313,0.214,0.412,0.339c0.1,0.125,0.2,0.284,0.301,0.477c0.05,0.106,0.125,0.274,0.225,0.505
						c0.1,0.231,0.234,0.487,0.403,0.768c0.168,0.28,0.382,0.562,0.638,0.844c0.256,0.283,0.571,0.532,0.947,0.749
						c0.662,0.382,1.215,0.591,1.659,0.626c0.444,0.035,0.666-0.236,0.666-0.814c0-0.289-0.081-0.576-0.244-0.862
						c-0.162-0.286-0.406-0.605-0.731-0.956c-0.324-0.351-0.74-0.75-1.247-1.197c-0.506-0.446-1.103-0.983-1.791-1.611
						c-1.288-1.167-2.229-2.417-2.822-3.751c-0.594-1.334-0.891-2.829-0.891-4.485c0-0.827,0.121-1.546,0.366-2.156
						c0.243-0.61,0.596-1.07,1.059-1.381c0.463-0.31,1.022-0.444,1.679-0.402C334.865,122.02,335.6,122.276,336.413,122.745z"/>
					<path style="fill:#27DEBF;" d="M355.091,133.818c0.138,0.08,0.256,0.225,0.355,0.437c0.101,0.212,0.151,0.424,0.151,0.635
						v3.061c0,0.212-0.051,0.365-0.151,0.461c-0.1,0.097-0.218,0.105-0.355,0.025l-3.301-1.906v14.812
						c0,0.212-0.05,0.366-0.15,0.462c-0.101,0.096-0.219,0.105-0.355,0.025l-2.457-1.418c-0.138-0.08-0.256-0.225-0.356-0.437
						c-0.101-0.211-0.15-0.423-0.15-0.635v-14.812l-3.301-1.906c-0.138-0.08-0.256-0.225-0.355-0.436
						c-0.1-0.212-0.151-0.423-0.151-0.635v-3.061c0-0.211,0.051-0.365,0.151-0.461c0.1-0.096,0.218-0.105,0.355-0.025
						L355.091,133.818z"/>
					<path style="fill:#27DEBF;" d="M364.318,139.145c0.25,0.144,0.44,0.36,0.572,0.648c0.131,0.288,0.222,0.551,0.273,0.792
						l4.088,20.551c0.05,0.222,0.074,0.38,0.074,0.476c0,0.173-0.04,0.299-0.122,0.377c-0.081,0.078-0.177,0.085-0.29,0.02
						l-2.362-1.364c-0.251-0.145-0.429-0.329-0.535-0.554c-0.106-0.225-0.172-0.421-0.196-0.59l-0.525-2.7l-4.989-2.88l-0.524,2.094
						c-0.025,0.14-0.091,0.26-0.197,0.362c-0.106,0.103-0.285,0.081-0.534-0.063l-2.363-1.364c-0.112-0.065-0.209-0.183-0.291-0.355
						c-0.081-0.172-0.121-0.345-0.121-0.518c0-0.096,0.025-0.227,0.075-0.39l4.088-15.83c0.05-0.183,0.141-0.342,0.272-0.478
						c0.131-0.136,0.322-0.131,0.572,0.013L364.318,139.145z M361.28,150.009l3.038,1.754l-1.519-7.807L361.28,150.009z"/>
					<path style="fill:#27DEBF;" d="M377.839,146.951c0.826,0.477,1.564,1.037,2.214,1.682c0.65,0.645,1.203,1.369,1.659,2.17
						c0.457,0.803,0.807,1.693,1.05,2.671c0.244,0.978,0.366,2.026,0.366,3.143c0,1.443-0.194,2.529-0.581,3.259
						c-0.388,0.729-0.939,1.138-1.65,1.227l2.325,8.214c0.038,0.137,0.057,0.254,0.057,0.35c0,0.173-0.041,0.299-0.122,0.377
						c-0.082,0.078-0.179,0.085-0.291,0.02l-2.551-1.473c-0.25-0.145-0.428-0.334-0.534-0.568c-0.105-0.234-0.19-0.456-0.253-0.666
						l-2.081-7.38l-1.726-0.996v6.179c0,0.212-0.051,0.365-0.15,0.462c-0.1,0.097-0.219,0.104-0.356,0.025l-2.457-1.418
						c-0.138-0.08-0.256-0.225-0.355-0.436c-0.101-0.212-0.15-0.423-0.15-0.636v-18.652c0-0.211,0.05-0.365,0.15-0.461
						c0.1-0.096,0.218-0.105,0.355-0.025L377.839,146.951z M375.72,154.476l2.118,1.223c0.525,0.303,0.96,0.4,1.304,0.29
						c0.344-0.109,0.516-0.568,0.516-1.377c0-0.808-0.172-1.465-0.516-1.972c-0.344-0.506-0.778-0.912-1.304-1.214l-2.118-1.224
						V154.476z"/>
					<path style="fill:#27DEBF;" d="M396.219,157.562c0.138,0.08,0.256,0.225,0.355,0.437c0.101,0.212,0.151,0.424,0.151,0.636
						v3.061c0,0.212-0.051,0.365-0.151,0.461c-0.1,0.097-0.218,0.105-0.355,0.025l-3.301-1.906v14.813
						c0,0.212-0.05,0.366-0.15,0.462c-0.101,0.096-0.219,0.104-0.355,0.025l-2.457-1.418c-0.138-0.08-0.256-0.225-0.357-0.437
						c-0.1-0.212-0.15-0.423-0.15-0.635v-14.813l-3.301-1.906c-0.138-0.079-0.256-0.225-0.355-0.436
						c-0.101-0.212-0.151-0.423-0.151-0.635v-3.061c0-0.212,0.051-0.366,0.151-0.462c0.1-0.096,0.218-0.105,0.355-0.025
						L396.219,157.562z"/>
				</g>
			</g>
			<g>
				<path style="opacity:0.3;fill:#27DEBF;" d="M288.58,45.333c3.365,1.943,6.093,6.668,6.093,10.553
					c0,3.886-2.728,5.461-6.093,3.518c-3.365-1.943-6.093-6.668-6.093-10.553C282.487,44.965,285.215,43.39,288.58,45.333z"/>
				<path id="XMLID_532_" style="fill:#FAFAFA;" d="M292.105,53.262c0.003-0.676-0.159-1.386-0.427-2.014l0.001-0.001l-0.006-0.014
					c-0.314-0.728-0.774-1.342-1.285-1.643c-0.878-0.518-1.611,0.533-1.726,1.772c-0.104-1.368-0.824-3.273-1.702-3.787
					c-0.512-0.301-0.975-0.229-1.293,0.128l-0.006,0.007l0.001,0.003c-0.272,0.31-0.44,0.826-0.443,1.503
					c-0.009,2.096,1.251,3.997,2.305,5.994l1.111,2.099l1.124-0.785C290.825,55.771,292.096,55.357,292.105,53.262z"/>
			</g>
			<g>
				<path style="opacity:0.3;fill:#27DEBF;" d="M306.858,55.886c3.365,1.943,6.093,6.668,6.093,10.553
					c0,3.886-2.728,5.461-6.093,3.518c-3.365-1.943-6.093-6.668-6.093-10.553C300.765,55.519,303.493,53.944,306.858,55.886z"/>
				<path id="XMLID_533_" style="fill:#FAFAFA;" d="M310.301,63.837c0.003-0.676-0.159-1.386-0.427-2.014l0.001-0.001l-0.006-0.014
					c-0.314-0.728-0.773-1.342-1.285-1.643c-0.878-0.518-1.611,0.533-1.726,1.772c-0.104-1.368-0.824-3.273-1.702-3.787
					c-0.512-0.301-0.975-0.229-1.293,0.128l-0.006,0.007l0.001,0.003c-0.272,0.31-0.44,0.826-0.443,1.503
					c-0.009,2.095,1.251,3.997,2.305,5.994l1.111,2.099l1.124-0.785C309.022,66.346,310.292,65.932,310.301,63.837z"/>
			</g>
			<g>
				<path style="opacity:0.3;fill:#27DEBF;" d="M325.137,66.44c3.365,1.943,6.093,6.668,6.093,10.553
					c0,3.886-2.728,5.461-6.093,3.518c-3.365-1.943-6.093-6.668-6.093-10.553C319.044,66.072,321.772,64.497,325.137,66.44z"/>
				<path id="XMLID_534_" style="fill:#FAFAFA;" d="M328.58,74.39c0.003-0.676-0.159-1.386-0.427-2.014l0.001-0.001l-0.006-0.014
					c-0.314-0.728-0.773-1.342-1.285-1.643c-0.878-0.518-1.611,0.533-1.726,1.772c-0.104-1.368-0.824-3.273-1.702-3.787
					c-0.512-0.301-0.975-0.229-1.293,0.128l-0.006,0.007l0.001,0.003c-0.272,0.31-0.44,0.827-0.443,1.503
					c-0.009,2.095,1.251,3.996,2.305,5.994l1.111,2.098l1.124-0.785C327.301,76.9,328.571,76.486,328.58,74.39z"/>
			</g>
			<g>
				<path style="fill:#FAFAFA;" d="M343.035,78.152l85.211,49.198c2.391,1.381,4.33,4.6,4.33,7.19c0,2.59-1.939,3.571-4.33,2.19
					l-85.211-49.198c-2.392-1.381-4.33-4.6-4.33-7.19S340.643,76.772,343.035,78.152z"/>
				<path style="opacity:0.5;fill:#27DEBF;" d="M341.097,81.713c0,1.295,0.97,2.905,2.166,3.595l85.603,49.491
					c1.196,0.69,2.165,0.2,2.165-1.095c0-1.295-0.969-2.905-2.165-3.595l-85.604-49.491
					C342.066,79.928,341.097,80.418,341.097,81.713z"/>
			</g>
			<g style="opacity:0.3;">
				<path style="fill:#27DEBF;" d="M437.033,135.29c-0.041-0.106-0.057-0.208-0.045-0.303c0.012-0.095,0.045-0.159,0.1-0.192
					l1.935-1.169c0.047-0.028,0.105-0.059,0.175-0.093c0.069-0.033,0.148-0.024,0.238,0.027l1.099,0.634
					c0.065,0.038,0.123,0.108,0.17,0.209c0.049,0.103,0.072,0.204,0.072,0.306v8.951c0,0.102-0.023,0.176-0.072,0.221
					c-0.047,0.047-0.104,0.051-0.17,0.013l-1.18-0.681c-0.066-0.038-0.123-0.108-0.171-0.21c-0.048-0.101-0.072-0.203-0.072-0.305
					v-6.056l-1.071,0.629c-0.053,0.034-0.113,0.025-0.18-0.027c-0.066-0.052-0.119-0.131-0.162-0.239L437.033,135.29z"/>
				<path style="fill:#27DEBF;" d="M445.142,136.716c0.45,0.261,0.837,0.585,1.161,0.976c0.323,0.39,0.593,0.817,0.806,1.282
					c0.213,0.465,0.371,0.956,0.477,1.474c0.105,0.518,0.167,1.031,0.185,1.541c0.012,0.404,0.019,0.824,0.019,1.258
					c0,0.435-0.007,0.837-0.019,1.209c-0.018,0.488-0.079,0.931-0.185,1.327c-0.105,0.396-0.264,0.705-0.477,0.924
					c-0.213,0.219-0.482,0.336-0.806,0.352c-0.324,0.016-0.711-0.105-1.161-0.366c-0.45-0.26-0.837-0.585-1.161-0.975
					c-0.323-0.39-0.593-0.817-0.806-1.282c-0.213-0.465-0.371-0.957-0.477-1.475c-0.105-0.518-0.166-1.032-0.185-1.54
					c-0.013-0.386-0.019-0.796-0.019-1.23c0-0.434,0.006-0.847,0.019-1.236c0.019-0.489,0.079-0.931,0.185-1.328
					c0.105-0.396,0.264-0.704,0.477-0.923c0.213-0.219,0.482-0.336,0.806-0.352C444.305,136.335,444.692,136.457,445.142,136.716z
					 M446.105,143.425c0.023-0.771,0.023-1.548,0-2.328c-0.012-0.237-0.034-0.464-0.067-0.677c-0.033-0.213-0.085-0.412-0.157-0.597
					c-0.072-0.184-0.168-0.354-0.288-0.505c-0.12-0.152-0.27-0.281-0.45-0.386c-0.18-0.104-0.33-0.148-0.45-0.135
					c-0.12,0.014-0.216,0.071-0.288,0.173c-0.072,0.102-0.126,0.24-0.162,0.412c-0.035,0.174-0.057,0.375-0.063,0.602
					c-0.03,0.749-0.03,1.525,0,2.328c0.006,0.234,0.025,0.458,0.059,0.67c0.033,0.214,0.087,0.414,0.162,0.6
					c0.074,0.188,0.172,0.356,0.292,0.509c0.12,0.152,0.271,0.281,0.45,0.385c0.18,0.104,0.33,0.149,0.45,0.136
					c0.12-0.015,0.218-0.071,0.292-0.172c0.076-0.099,0.129-0.236,0.162-0.412C446.08,143.854,446.099,143.652,446.105,143.425z"/>
				<path style="fill:#27DEBF;" d="M454.367,145.298c0,0.268-0.018,0.516-0.055,0.745c-0.035,0.229-0.098,0.436-0.184,0.621
					c-0.088,0.186-0.201,0.353-0.342,0.502c-0.142,0.149-0.314,0.28-0.518,0.395l-1.261,0.741l2.259,1.304
					c0.066,0.039,0.123,0.108,0.172,0.209c0.047,0.102,0.072,0.204,0.072,0.306v1.469c0,0.102-0.025,0.176-0.072,0.222
					c-0.049,0.046-0.105,0.051-0.172,0.012l-4.752-2.743c-0.065-0.038-0.123-0.108-0.17-0.21c-0.049-0.102-0.072-0.203-0.072-0.305
					v-1.191c0-0.148,0.02-0.284,0.059-0.409c0.039-0.126,0.105-0.211,0.202-0.258l2.69-1.411c0.211-0.119,0.342-0.262,0.397-0.43
					c0.054-0.168,0.081-0.344,0.081-0.529c0-0.064-0.008-0.158-0.022-0.282c-0.016-0.125-0.05-0.26-0.103-0.406
					c-0.054-0.146-0.131-0.29-0.23-0.431c-0.099-0.14-0.232-0.259-0.401-0.355c-0.168-0.098-0.304-0.133-0.408-0.105
					c-0.105,0.027-0.186,0.08-0.244,0.158c-0.057,0.077-0.099,0.166-0.125,0.267c-0.027,0.101-0.047,0.174-0.059,0.223
					c-0.03,0.112-0.076,0.171-0.14,0.176c-0.063,0.005-0.137-0.017-0.221-0.065l-1.106-0.639c-0.055-0.031-0.102-0.088-0.141-0.171
					c-0.038-0.082-0.058-0.165-0.058-0.249c0.006-0.384,0.06-0.738,0.161-1.063c0.102-0.323,0.257-0.583,0.465-0.778
					c0.206-0.193,0.464-0.3,0.773-0.314c0.309-0.016,0.674,0.098,1.094,0.34c0.395,0.229,0.745,0.52,1.049,0.876
					c0.303,0.354,0.556,0.741,0.76,1.159c0.203,0.418,0.358,0.854,0.463,1.308C454.314,144.435,454.367,144.874,454.367,145.298z"/>
				<path style="fill:#27DEBF;" d="M457.562,150.843c0.041,0.106,0.088,0.222,0.139,0.343c0.051,0.123,0.113,0.244,0.185,0.363
					c0.071,0.12,0.158,0.237,0.26,0.353c0.103,0.113,0.223,0.211,0.36,0.29c0.126,0.073,0.246,0.117,0.36,0.132
					c0.113,0.016,0.216-0.002,0.306-0.053c0.091-0.048,0.161-0.133,0.212-0.252c0.051-0.118,0.076-0.278,0.076-0.482
					c0-0.314-0.08-0.617-0.238-0.906c-0.159-0.291-0.377-0.516-0.652-0.675c-0.084-0.049-0.164-0.076-0.238-0.083
					c-0.076-0.007-0.145-0.007-0.207-0.002c-0.063,0.006-0.122,0.012-0.176,0.018c-0.055,0.006-0.1-0.003-0.135-0.023l-1.404-0.811
					c-0.072-0.042-0.132-0.112-0.18-0.215c-0.049-0.102-0.069-0.201-0.064-0.3l0.271-4.79c0.006-0.099,0.031-0.172,0.076-0.22
					c0.045-0.048,0.1-0.053,0.166-0.015l3.853,2.225c0.065,0.038,0.122,0.107,0.171,0.209c0.048,0.102,0.072,0.203,0.072,0.305
					v1.469c0,0.102-0.024,0.176-0.072,0.222c-0.049,0.046-0.105,0.051-0.171,0.013l-2.619-1.513l-0.064,1.197
					c0.108-0.03,0.232-0.034,0.374-0.013c0.142,0.021,0.296,0.08,0.464,0.177c0.348,0.2,0.67,0.461,0.967,0.78
					c0.297,0.32,0.555,0.681,0.774,1.084c0.219,0.404,0.39,0.845,0.513,1.322c0.123,0.477,0.186,0.979,0.186,1.506
					c0,0.555-0.068,1.005-0.203,1.352c-0.135,0.347-0.321,0.598-0.559,0.752c-0.236,0.154-0.514,0.214-0.832,0.178
					c-0.318-0.036-0.66-0.159-1.026-0.371c-0.407-0.235-0.772-0.526-1.093-0.873c-0.321-0.348-0.593-0.721-0.815-1.121
					c-0.223-0.401-0.393-0.814-0.514-1.239c-0.119-0.425-0.184-0.828-0.189-1.21c0-0.084,0.02-0.144,0.059-0.182
					c0.039-0.038,0.086-0.041,0.141-0.01l1.143,0.66c0.096,0.056,0.17,0.125,0.221,0.211
					C457.509,150.73,457.544,150.795,457.562,150.843z"/>
			</g>
		</g>
	</g>
</g>
<g id="Character_1_">
	<g id="Character">
		<g>
			<g id="XMLID_3409_">
				<g id="XMLID_3414_">
					<g id="XMLID_3423_">
						<path id="XMLID_3424_" style="fill:#B16668;" d="M243.751,354.607c-0.078-0.169-5.566-9.694-5.566-9.694
							s1.171,0.702,6.695-2.413c2.81-1.584,5.744-4.392,5.744-4.392l3.653,7.057c2.333,2.475,7.224-0.223,12.791-2.375
							c0.936-0.362,1.885-0.782,2.832-1.212l0.058-0.023c3.054-0.979,6.65,0.069,4.119,3.553c-2.531,3.484-7.583,5.872-12.25,8.036
							C256.215,355.747,246.334,360.176,243.751,354.607z"/>
					</g>
					<g id="XMLID_3415_">
						<path id="XMLID_3422_" style="fill:#263238;" d="M284.706,342.939c0,0,0.932,1.026,1.252,3.04
							c0.186,1.173-1.627,5.788-5.998,9.465c-4.372,3.677-10.507,5.45-13.18,7.037c-2.673,1.587-4.888,3.939-8.078,5.658
							c-3.287,1.772-6.444,3.039-10.445,1.682c-0.882-0.806-2.164-2.864-2.019-3.135
							C246.628,365.957,284.706,342.939,284.706,342.939z"/>
						<path id="XMLID_3421_" style="fill:#27DEBF;" d="M255.438,345.929c2.594,0.945,6.864-1.297,11.63-3.139
							c4.494-1.737,9.284-4.727,12.717-4.458c3.433,0.27,7.034,3.288,4.02,9.151c-0.872,1.695-2.845,4.795-4.732,6.084
							c-4.794,3.275-9.501,4.668-12.684,6.396c-4.142,2.249-6.048,4.841-10.02,6.386c-5.139,1.999-8.846,1.513-10.132,0.337
							c-1.286-1.176-5.117-12.361-2.783-12.718c0,0,1.92,3.442,9.639-2.404C256.465,349.01,255.803,346.721,255.438,345.929z"/>
						<path id="XMLID_531_" style="opacity:0.4;" d="M255.438,345.929c2.594,0.945,6.864-1.297,11.63-3.139
							c4.494-1.737,9.284-4.727,12.717-4.458c3.433,0.27,7.034,3.288,4.02,9.151c-0.872,1.695-2.845,4.795-4.732,6.084
							c-4.794,3.275-9.501,4.668-12.684,6.396c-4.142,2.249-6.048,4.841-10.02,6.386c-5.139,1.999-8.846,1.513-10.132,0.337
							c-1.286-1.176-5.117-12.361-2.783-12.718c0,0,1.92,3.442,9.639-2.404C256.465,349.01,255.803,346.721,255.438,345.929z"/>
						<path id="XMLID_3418_" style="fill:#FAFAFA;" d="M271.727,348.215c0,0-1.756-4.689-5.649-5.034c0,0-1.285-0.227-1.895,0.77
							c0,0,3.43-0.383,5.988,4.985c0,0,0.268,0.329,0.953,0.011C271.356,348.839,271.865,348.603,271.727,348.215z"/>
						<path id="XMLID_3417_" style="fill:#FAFAFA;" d="M261.245,345.119c0,0-0.046-0.158,0.754-0.535
							c0.575-0.271,1.004-0.148,1.004-0.148s2.956,0.456,4.768,5.363c0,0,0.137,0.613-0.616,0.988
							c-0.753,0.375-1.078-0.245-1.078-0.245S264.146,345.386,261.245,345.119z"/>
						<path id="XMLID_3416_" style="fill:#FAFAFA;" d="M258.423,345.967c0,0,0.07-0.342,0.695-0.502
							c0.789-0.202,1.05,0.056,1.05,0.056s2.397,1.444,3.518,5.647c0,0,0.265,0.693-0.708,1.024
							c-0.973,0.331-1.041-0.511-1.041-0.511S260.195,346.408,258.423,345.967z"/>
					</g>
				</g>
				<g id="XMLID_3410_">
					<g id="XMLID_3411_">
						<path id="XMLID_3413_" style="fill:#37474F;" d="M221.865,285.805c7.742,11.903,30.972,53.788,30.972,53.788
							s-5.729,8.682-14.653,7.739l-33.952-50.844L221.865,285.805z"/>
					</g>
				</g>
			</g>
			<g id="XMLID_3392_">
				<g id="XMLID_3395_">
					<g id="XMLID_3407_">
						<path id="XMLID_3408_" style="fill:#B16668;" d="M276.293,372.084c-1.166-1.153-6.397-9.726-6.397-9.726
							s3.924,1.303,9.684-1.352c2.929-1.35,5.132-5.269,5.132-5.269l4.372,8.374c2.124,2.657,6.863,0.684,12.587-1.008
							c0.962-0.284,1.943-0.626,2.922-0.977l0.06-0.018c3.124-0.727,6.622,0.611,3.816,3.877c-2.806,3.266-8.036,5.235-12.864,7.011
							C289.797,375.133,280.659,376.4,276.293,372.084z"/>
					</g>
					<g id="XMLID_3396_">
						<path id="XMLID_3406_" style="fill:#263238;" d="M321.448,362.712c0,0,0.908,1.179,1.074,3.363
							c0.097,1.271-2.248,6.053-7.248,9.605c-5.001,3.552-11.723,4.913-14.723,6.378c-3.001,1.465-5.576,3.788-9.141,5.349
							c-3.673,1.608-7.163,2.689-11.327,0.887c-0.873-0.94-2.066-3.255-1.887-3.532
							C278.678,384.017,321.448,362.712,321.448,362.712z"/>
						<path id="XMLID_3404_" style="fill:#27DEBF;" d="M289.901,363.255c0.409,0.172,0.822,0.344,1.239,0.461
							c0.439,0.124,0.822,0.037,1.274,0.002c1-0.079,1.979-0.271,2.951-0.517c2.438-0.617,4.808-1.48,7.218-2.192
							c4.962-1.466,10.351-4.247,14.001-3.659c3.651,0.589,7.573,4.052,3.835,10.064c-1.081,1.738-3.416,4.774-5.4,6.116
							c-5.165,3.493-11.106,4.229-14.665,5.8c-4.629,2.044-6.897,4.652-11.283,5.958c-5.675,1.69-9.601,0.845-10.874-0.526
							c-0.711-0.765-1.027-5.417-2.459-8.791c-1.233-2.905-1.485-5.003-0.367-5.082c0.25,0.356,0.725,0.627,1.059,0.901
							c0.436,0.357,0.945,0.603,1.486,0.756c0.751,0.211,1.537,0.255,2.315,0.293c1.387,0.068,2.802,0.12,4.138-0.257
							c0.382-0.108,0.771-0.262,1.024-0.568c0.333-0.403,0.355-0.972,0.361-1.495c0.005-0.465,0.01-0.93,0.016-1.394
							c0.003-0.253,0.007-0.513,0.104-0.747c0.115-0.278,0.348-0.488,0.577-0.683c0.723-0.618,1.508-1.239,1.864-2.121
							c0.279-0.691,0.26-1.461,0.229-2.205c-0.005-0.129-0.007-0.272,0.076-0.37c0.138-0.164,0.401-0.101,0.601-0.023
							C289.447,363.063,289.673,363.159,289.901,363.255z"/>
						<path id="XMLID_530_" style="opacity:0.4;" d="M289.901,363.255c0.409,0.172,0.822,0.344,1.239,0.461
							c0.439,0.124,0.822,0.037,1.274,0.002c1-0.079,1.979-0.271,2.951-0.517c2.438-0.617,4.808-1.48,7.218-2.192
							c4.962-1.466,10.351-4.247,14.001-3.659c3.651,0.589,7.573,4.052,3.835,10.064c-1.081,1.738-3.416,4.774-5.4,6.116
							c-5.165,3.493-11.106,4.229-14.665,5.8c-4.629,2.044-6.897,4.652-11.283,5.958c-5.675,1.69-9.601,0.845-10.874-0.526
							c-0.711-0.765-1.027-5.417-2.459-8.791c-1.233-2.905-1.485-5.003-0.367-5.082c0.25,0.356,0.725,0.627,1.059,0.901
							c0.436,0.357,0.945,0.603,1.486,0.756c0.751,0.211,1.537,0.255,2.315,0.293c1.387,0.068,2.802,0.12,4.138-0.257
							c0.382-0.108,0.771-0.262,1.024-0.568c0.333-0.403,0.355-0.972,0.361-1.495c0.005-0.465,0.01-0.93,0.016-1.394
							c0.003-0.253,0.007-0.513,0.104-0.747c0.115-0.278,0.348-0.488,0.577-0.683c0.723-0.618,1.508-1.239,1.864-2.121
							c0.279-0.691,0.26-1.461,0.229-2.205c-0.005-0.129-0.007-0.272,0.076-0.37c0.138-0.164,0.401-0.101,0.601-0.023
							C289.447,363.063,289.673,363.159,289.901,363.255z"/>
						<path id="XMLID_3399_" style="fill:#FAFAFA;" d="M307.094,367.223c0,0-1.469-5.172-5.605-5.882c0,0-1.356-0.356-2.095,0.659
							c0,0,3.705-0.11,5.973,5.859c0,0,0.258,0.375,1.019,0.095C306.644,367.859,307.208,367.651,307.094,367.223z"/>
						<path id="XMLID_3398_" style="fill:#FAFAFA;" d="M296.147,362.993c0,0-0.036-0.174,0.853-0.507
							c0.639-0.24,1.087-0.071,1.087-0.071s3.124,0.747,4.634,6.157c0,0,0.093,0.668-0.746,1.003
							c-0.839,0.336-1.133-0.357-1.133-0.357S299.229,363.532,296.147,362.993z"/>
						<path id="XMLID_3397_" style="fill:#FAFAFA;" d="M293.052,363.654c0,0,0.105-0.36,0.788-0.477
							c0.862-0.147,1.119,0.151,1.119,0.151s2.439,1.755,3.271,6.352c0,0,0.223,0.765-0.847,1.034
							c-1.07,0.269-1.07-0.638-1.07-0.638S294.91,364.281,293.052,363.654z"/>
					</g>
				</g>
				<g id="XMLID_3393_">
					<path id="XMLID_3394_" style="fill:#455A64;" d="M259.305,302.906c5.601,9.948,19.507,39.703,26.678,54.475
						c0,0-4.918,6.751-14.364,8.058l-37.589-51.728l11.202-9.435L259.305,302.906z"/>
				</g>
			</g>
			<g id="XMLID_3296_">
				<g id="XMLID_3370_">
					<path id="XMLID_3371_" style="fill:#37474F;" d="M131.116,292.675c0,0,45.422-13.707,53.319-15.867
						c7.896-2.16,22.39-5.054,26.815-3.071c4.426,1.983,6.925,5.487,9.63,9.745c2.804,4.413,4.855,8.448,4.855,8.448
						s-29.757,8.129-47.744,8.129S131.116,292.675,131.116,292.675z"/>
				</g>
				<g id="XMLID_3368_">
					<path id="XMLID_3369_" style="fill:#455A64;" d="M134.296,274.824c-2.851,9.724-6.553,27.07,6.552,39.723
						c5.115,4.939,34.425,20.651,52.421,15.133c20.106-6.165,44.118-18.056,44.118-18.056s12.138,0.709,16.088-1.572
						c3.959-2.286,6.357-6.056,5.83-7.146c-6.262-12.95-11.485-19.756-25.059-18.396c-16.598,1.663-44.253,6.697-44.253,6.697
						L134.296,274.824z"/>
				</g>
			</g>
		</g>
		<g>
			<path style="fill:#455A64;" d="M201.871,204.363c-8.596-7.535-20.674-4.102-27.379,2.429
				c-10.284,10.017-16.381,22.699-14.124,28.962C162.979,242.999,201.871,204.363,201.871,204.363z"/>
			<g id="XMLID_16551_">
				<g id="XMLID_16552_">
					<path style="fill:#455A64;" d="M303.473,248.407c0.175-1.25-0.838-2.664-2.878-3.707L276.8,232.531
						c-3.094-1.582-8.273-1.943-11.569-0.806l-21.762,7.506c-1.901,0.656-2.935,1.576-3.001,2.476
						c-0.048,0.66-0.396,3.221-0.42,3.95c-0.022,0.643,0.453,1.273,1.46,1.786c2.444,1.245,7.913,1.657,12.216,0.92l5.517-0.945
						c4.303-0.737,9.759-0.332,12.187,0.904c1.607,0.818,2.836,2.128,3.346,3.405l-1.286,4.431c-0.236,0.814-0.391,1.647-0.013,2.5
						l-0.406,1.399c-0.485,1.672-0.646,3.423,3.511,5.265c3.146,1.393,6.166,1.085,8.357-0.336l16.874-10.949
						c0.749-0.486,1.155-1.091,1.242-1.739C303.146,251.596,303.383,249.05,303.473,248.407z"/>
					<path style="fill:#263238;" d="M275.867,254.706l0.082-11.531l-7.177-1.887l-0.654,6.086c1.337,0.216,2.495,0.534,3.309,0.949
						c1.607,0.818,2.836,2.128,3.346,3.405l-0.521,1.794L275.867,254.706z"/>
					<path style="fill:#455A64;" d="M302.153,245.73c2.172,1.982,2.328,2.591,1.728,10.467c-0.6,7.875-2.389,8.09-4.406,6.739
						c-2.017-1.351-3.398-5.091-5.876-3.569L302.153,245.73z"/>
					<path id="XMLID_17540_" style="fill:#27DEBF;" d="M241.926,243.545c2.444,1.245,7.913,1.657,12.216,0.92l5.517-0.945
						c4.303-0.737,9.759-0.333,12.187,0.904c2.428,1.236,4.003,3.594,3.518,5.266l-1.877,6.469
						c-0.485,1.672-0.647,3.423,3.511,5.265c3.146,1.393,6.166,1.085,8.357-0.336l16.875-10.949
						c2.191-1.421,1.459-3.856-1.634-5.438L276.8,232.531c-3.094-1.582-8.273-1.943-11.569-0.806l-21.762,7.506
						C240.174,240.368,239.483,242.299,241.926,243.545z"/>
					<path id="XMLID_512_" style="opacity:0.2;" d="M241.926,243.545c2.444,1.245,7.913,1.657,12.216,0.92l5.517-0.945
						c4.303-0.737,9.759-0.333,12.187,0.904c2.428,1.236,4.003,3.594,3.518,5.266l-1.877,6.469
						c-0.485,1.672-0.647,3.423,3.511,5.265c3.146,1.393,6.166,1.085,8.357-0.336l16.875-10.949
						c2.191-1.421,1.459-3.856-1.634-5.438L276.8,232.531c-3.094-1.582-8.273-1.943-11.569-0.806l-21.762,7.506
						C240.174,240.368,239.483,242.299,241.926,243.545z"/>
				</g>
				<g>
					<g id="XMLID_517_">
						<path style="fill:#263238;" d="M294.809,244.641c-0.008-0.208-0.163-0.416-0.471-0.589c-0.697-0.389-1.905-0.442-2.699-0.117
							c-0.416,0.17-0.633,0.409-0.647,0.654c-0.009,0.156-0.091,0.773-0.1,0.945c-0.011,0.22,0.143,0.445,0.47,0.627
							c0.697,0.389,1.905,0.442,2.699,0.117c0.4-0.163,0.616-0.391,0.644-0.626C294.726,245.488,294.816,244.826,294.809,244.641z"
							/>
						<path style="fill:#37474F;" d="M289.06,247.017c0.004-0.216-0.15-0.435-0.471-0.614c-0.697-0.389-1.905-0.442-2.699-0.117
							c-0.399,0.163-0.616,0.391-0.644,0.626c-0.02,0.165-0.096,0.806-0.102,0.98c-0.007,0.218,0.147,0.44,0.471,0.621
							c0.697,0.389,1.905,0.442,2.699,0.117c0.398-0.163,0.615-0.389,0.644-0.624C288.978,247.84,289.056,247.194,289.06,247.017z"
							/>
						<path style="fill:#263238;" d="M289.406,244.447c0.012-0.221-0.143-0.445-0.471-0.629c-0.697-0.389-1.905-0.442-2.699-0.117
							c-0.399,0.163-0.616,0.391-0.644,0.626c-0.02,0.165-0.087,0.791-0.101,0.957c-0.019,0.225,0.134,0.456,0.47,0.643
							c0.697,0.389,1.905,0.442,2.699,0.117c0.41-0.167,0.627-0.403,0.646-0.644C289.318,245.241,289.397,244.618,289.406,244.447z"
							/>
						<path style="fill:#37474F;" d="M294.455,247.266c0.012-0.221-0.142-0.447-0.471-0.63c-0.697-0.389-1.905-0.442-2.699-0.117
							c-0.398,0.163-0.614,0.389-0.644,0.623c-0.021,0.166-0.08,0.783-0.1,0.944c-0.028,0.23,0.125,0.467,0.468,0.659
							c0.697,0.389,1.905,0.442,2.699,0.117c0.399-0.163,0.616-0.391,0.644-0.626C294.373,248.072,294.445,247.437,294.455,247.266z
							"/>
					</g>
					<g id="XMLID_523_">
						<path id="XMLID_529_" style="fill:#455A64;" d="M291.639,243.935c-0.794,0.325-0.872,0.903-0.175,1.292
							c0.697,0.389,1.905,0.442,2.699,0.117c0.794-0.325,0.872-0.903,0.175-1.292C293.641,243.663,292.432,243.611,291.639,243.935z
							"/>
						<path id="XMLID_528_" style="fill:#455A64;" d="M285.889,246.286c-0.794,0.324-0.872,0.903-0.175,1.292
							c0.697,0.389,1.905,0.442,2.699,0.117c0.794-0.324,0.872-0.903,0.175-1.292C287.892,246.014,286.683,245.961,285.889,246.286z
							"/>
						<path id="XMLID_527_" style="fill:#455A64;" d="M286.236,243.701c-0.794,0.325-0.872,0.903-0.175,1.292
							c0.697,0.389,1.905,0.442,2.699,0.117c0.794-0.324,0.872-0.903,0.175-1.292C288.238,243.429,287.03,243.377,286.236,243.701z"
							/>
						<path id="XMLID_526_" style="fill:#455A64;" d="M291.285,246.519c-0.794,0.325-0.872,0.903-0.175,1.292
							c0.697,0.389,1.905,0.442,2.699,0.117c0.794-0.325,0.872-0.903,0.175-1.292S292.079,246.194,291.285,246.519z"/>
					</g>
				</g>
				<g>
					<polygon style="fill:#37474F;" points="273.146,234.117 270.623,232.707 267.748,233.883 265.219,232.473 262.345,233.648 
						262.23,234.715 263.703,235.537 261.996,236.234 261.882,237.3 264.408,238.708 267.283,237.534 269.81,238.943 
						272.684,237.767 272.799,236.701 271.328,235.881 273.032,235.184 					"/>
					<polygon id="XMLID_518_" style="fill:#455A64;" points="270.623,232.708 267.749,233.883 265.219,232.473 262.345,233.648 
						264.873,235.059 261.996,236.234 264.522,237.642 267.398,236.467 269.924,237.876 272.799,236.701 270.272,235.292 
						273.146,234.117 					"/>
					<polygon style="fill:#263238;" points="267.398,236.467 267.283,237.534 264.408,238.708 264.522,237.642 					"/>
					<polygon style="fill:#263238;" points="270.272,235.292 271.328,235.881 273.032,235.184 273.146,234.117 					"/>
					<polygon style="fill:#263238;" points="272.799,236.701 272.684,237.767 269.81,238.943 269.924,237.876 					"/>
					<polygon style="fill:#263238;" points="264.873,235.059 262.345,233.648 262.224,234.774 263.703,235.537 					"/>
				</g>
			</g>
			<path style="fill:#B16668;" d="M243.255,231.831c5.97-1.358,9.561-0.314,14.679-0.517c1.642-0.065,3.05-0.956,3.854-0.802
				c1.556,0.298,1.434,1.906,0.435,3.01c-0.936,1.035-2.156,2.119-6.579,2.812c-3.783,0.592-3.937,0.166-8.36,1.533l-4.849,2.278
				l-1.704-4.17L243.255,231.831z"/>
			<path style="fill:#B16668;" d="M253.993,231.314c-3.881-1.637-7.911-1.693-10.123-1.166c-4.889,1.166-3.139,6.167-3.139,6.167
				L253.993,231.314z"/>
			<g>
				<g>
					<g id="XMLID_3278_">
						<g id="XMLID_3279_">
							<polygon id="XMLID_3280_" style="fill:#B16668;" points="229.893,205.906 215.391,218.878 196.238,212.157 209.918,193.149 
															"/>
						</g>
					</g>
					<g id="XMLID_3270_">
						<g id="XMLID_3273_">
							<path id="XMLID_3274_" style="fill:#9A4A4D;" d="M244.296,181.032c0,0,4.863,7.38,4.31,8.104
								c-0.554,0.725-4.133,1.379-4.133,1.379L244.296,181.032z"/>
						</g>
						<g id="XMLID_3271_">
							<path id="XMLID_3272_" style="fill:#B16668;" d="M230.791,160.617c9.842,2.076,12.684,6.402,13.611,22.037
								c0.969,16.337-0.699,21.472-2.845,23.672c-1.449,1.484-9.5,1.753-13.561,0.633c-5.083-1.402-16.571-5.473-21.951-13.69
								c-6.328-9.668-7.991-22.771-1.215-28.146C214.364,157.557,226.786,159.772,230.791,160.617z"/>
						</g>
						<path style="fill:#9A4A4D;" d="M228.448,207.072c4.232,1.059,10.713,0.626,12.66-0.433c-0.183,0.045-3.246,0.763-7.148-0.427
							c-4.025-1.228-6.489-3.04-6.489-3.04L228.448,207.072z"/>
					</g>
					<g id="XMLID_522_">
						<g id="XMLID_3267_">
							<g id="XMLID_3268_">
								<path id="XMLID_3269_" style="fill:#263238;" d="M246.584,167.367c-0.01,0.006-0.019,0.013-0.029,0.019
									c-2.803,1.839-6.186,2.555-9.51,2.994c0.201,2.652-0.693,5.252-1.574,7.761c-0.61,1.737-2.792,7.186-4.96,4.118
									c-1.567-2.217-2.992-4.235-6.1-3.771c-5.123,0.764-5.814,7.294-2.587,11.262c3.23,3.967,6.238,2.446,6.238,2.446
									s0.309,7.044-3.514,11.931c0,0-5.614,3.276-13.326,0.538c-4.867-1.728-11.802-8.073-14.3-12.959
									c-6.873-13.446-6.619-26.171,2.175-29.886c0.951-6.348,5.949-9.193,11.646-10.502c7.897-1.814,15.942,3.298,23.607,0.221
									c1.614-0.648,3.108-1.585,4.757-2.141c0.927-0.313,2.019-0.479,2.826,0.075c0.697,0.479,0.98,1.36,1.158,2.187
									c0.328,1.52,0.429,3.212-0.402,4.526c1.159-0.526,2.337-1.057,3.598-1.233c1.26-0.175,2.636,0.053,3.589,0.896
									c0.886,0.785,1.293,1.996,1.375,3.177C251.486,162.358,249.372,165.525,246.584,167.367z"/>
							</g>
						</g>
						<g id="XMLID_3264_">
							<g id="XMLID_3265_">
								<path id="XMLID_3266_" style="fill:#263238;" d="M198.946,163.945l-5.89-3.472c0.959-1.626,3.054-2.167,4.681-1.208
									C199.364,160.223,199.905,162.318,198.946,163.945z"/>
							</g>
						</g>
					</g>
				</g>
				<path style="fill:#27DEBF;" d="M201.871,204.363c-10.844-3.246-19.766-1.607-33.931,11.886
					c-15.523,14.788-26.946,39.807-30.926,66.845c0,0,0.527,12.486,15.003,20.794c15.357,8.814,39.076,6.659,48.608-9.201
					c0,0,1.994-14.129,8.33-21.69c4.099-4.893,13.572-15.716,20.574-23.447c6.095-6.73,12.452-23.138,2.88-30.866
					c-2.803-2.263-5.571-3.965-9.456-6.567C212.966,213.88,200.092,207.968,201.871,204.363z"/>
				<path style="opacity:0.75;fill:#FFFFFF;" d="M201.871,204.363c-10.844-3.246-19.766-1.607-33.931,11.886
					c-15.523,14.788-26.946,39.807-30.926,66.845c0,0,0.527,12.486,15.003,20.794c15.357,8.814,39.076,6.659,48.608-9.201
					c0,0,1.994-14.129,8.33-21.69c4.099-4.893,13.572-15.716,20.574-23.447c6.095-6.73,12.452-23.138,2.88-30.866
					c-2.803-2.263-5.571-3.965-9.456-6.567C212.966,213.88,200.092,207.968,201.871,204.363z"/>
				<path style="opacity:0.1;fill:#27DEBF;" d="M230.389,248.528c0.16-0.2,0.32-0.405,0.479-0.617
					c0.07-0.093,0.139-0.186,0.209-0.281c0.174-0.239,0.348-0.485,0.52-0.737c0.044-0.064,0.089-0.126,0.132-0.192
					c0.222-0.33,0.442-0.67,0.658-1.021c0.019-0.031,0.038-0.064,0.057-0.096c0.195-0.318,0.387-0.645,0.576-0.978
					c0.043-0.076,0.086-0.154,0.129-0.231c0.175-0.314,0.347-0.633,0.515-0.958c0.031-0.06,0.063-0.119,0.094-0.18
					c0.614-1.205,1.179-2.48,1.669-3.798c0.009-0.024,0.018-0.048,0.026-0.072c1.163-3.151,1.895-6.539,1.847-9.77
					c-3.281,5.38-7.502,10.189-12.452,14.089c-6.333,4.989-13.77,8.51-19.758,13.909c-6.341,5.718-11.361,13.016-16.911,19.461
					c-2.227,2.587-5.501,7.724-8.904,7.454c-4.147-0.329-7.349-5.906-9.088-9.685c-2.775-6.029-4.846-13.357-8.588-18.838
					c-3.27-4.789-8.491-11.075-14.136-9.388c-4.94,11.107-8.549,23.569-10.452,36.496c0,0,0.527,12.486,15.003,20.794
					c1.284,0.737,2.631,1.39,4.018,1.972c0.418,0.073,0.834,0.156,1.244,0.263c2.068,0.538,3.986,1.544,6.135,2.015
					c0.252,0.052,0.505,0.1,0.758,0.148c0.287,0.054,0.575,0.108,0.863,0.157c0.304,0.051,0.61,0.096,0.916,0.141
					c0.261,0.038,0.522,0.076,0.783,0.109c0.337,0.043,0.674,0.079,1.013,0.114c0.231,0.024,0.463,0.047,0.694,0.067
					c0.361,0.031,0.722,0.056,1.084,0.078c0.215,0.013,0.429,0.026,0.644,0.035c0.369,0.017,0.737,0.027,1.106,0.035
					c0.216,0.004,0.432,0.007,0.648,0.008c0.359,0.001,0.717-0.002,1.076-0.01c0.233-0.005,0.467-0.011,0.7-0.02
					c0.336-0.013,0.671-0.03,1.005-0.051c0.262-0.016,0.523-0.035,0.784-0.056c0.306-0.025,0.611-0.053,0.916-0.085
					c0.289-0.03,0.577-0.064,0.865-0.1c0.278-0.035,0.555-0.072,0.831-0.112c0.321-0.047,0.641-0.099,0.961-0.154
					c0.217-0.037,0.433-0.076,0.649-0.116c0.427-0.082,0.852-0.169,1.276-0.265c0.088-0.02,0.176-0.039,0.263-0.059
					c7.87-1.849,15.131-6.249,19.376-13.313c0,0,0.096-0.676,0.311-1.812c0.062-0.324,0.133-0.686,0.215-1.081
					c0.163-0.789,0.368-1.707,0.619-2.715c0.753-3.024,1.92-6.853,3.626-10.394c0.568-1.181,1.197-2.329,1.889-3.406
					c0.346-0.538,0.709-1.058,1.088-1.555c0.189-0.249,0.383-0.491,0.581-0.728c0.256-0.306,0.533-0.635,0.829-0.985
					c3.852-4.549,10.927-12.641,17.018-19.436c0.937-1.045,1.851-2.06,2.726-3.027c0.222-0.245,0.443-0.506,0.665-0.775
					C230.258,248.694,230.324,248.61,230.389,248.528z"/>
				<path style="fill:#B16668;" d="M294.16,264.434c-3.347,5.34-3.984,8.687-18.495,9.816c0,0-27.181,17.059-35.916,20.188
					c-8.743,3.138-11.881-1.775-13.696-9.687c-1.815-7.904-6.598-37.731-6.598-37.731s-3.791-18.414,11.671-28.875
					c6.549,5.017,10.018,10.114,11.098,18.914c1.29,10.534,3.171,35.26,3.171,35.26s22.931-9.956,26.394-13.438
					c0.935-0.94,1.447-1.682,2.746-3.488c1.46-2.016,3.525-4.186,4.105-6.816c0.911-4.17,2.823-3.589,3.517-1.299
					c1.379,4.605-0.073,8.993-0.073,8.993s7.098,5.566,10.574,3.703l0.938-0.608l0,0c0.718-0.532,1.749-0.535,2.583,0.231
					C296.375,260.549,296.209,261.168,294.16,264.434z"/>
				<path style="fill:#455A64;" d="M229.39,216.44c8.724,4.107,12.951,10.68,13.904,20.617c0.959,9.994,2.105,27.214,2.105,27.214
					s-0.541,6.299-8.877,9.229c-8.336,2.93-14.367-1.663-14.367-1.663l-3.451-22.496C218.704,249.342,213.807,224.948,229.39,216.44
					z"/>
			</g>
		</g>
	</g>
</g>
<g id="Puff_1_">
	<g id="Puff">
		<path style="fill:#27DEBF;" d="M166.065,289.212c-14.272-17.467-27.545-38.417-38.523-44.741
			c-19.758-11.383-59.897,13.624-64.288,70.704s37.692,89.049,78.476,97.798c20.855,4.474,48.249-0.068,58.973-3.783
			c32.763-11.349,51.121-27.232,58.973-49.181c8.607-24.058,2.095-38.525-9.108-44.686c-5.003-2.751-10.848-3.615-16.488-2.726
			C194.291,318.868,177.107,302.726,166.065,289.212z"/>
		<path style="opacity:0.2;" d="M215.848,403.149c0.605-0.278,1.212-0.555,1.804-0.837c2.859-13.959,1.249-27.127-4.853-39.26
			c-5.959-11.847-16.19-22.956-31.278-33.959c-22.252-16.229-30.979-31.63-39.417-46.525c-3.094-5.461-6.015-10.618-9.541-15.706
			c-7.876-11.367-15.722-17.333-24.694-18.774c-3.458-0.555-7.102-0.422-10.947,0.378c-1.235,0.806-2.465,1.684-3.684,2.634
			c5.167-1.662,9.941-2.131,14.376-1.419c8.508,1.367,16.015,7.118,23.623,18.099c3.484,5.028,6.389,10.154,9.464,15.582
			c8.523,15.044,17.336,30.6,39.871,47.033C200.023,344.583,223.907,367.158,215.848,403.149z"/>
		<path style="opacity:0.1;" d="M141.73,412.973c20.854,4.474,48.249-0.068,58.973-3.783c32.763-11.349,51.121-27.232,58.973-49.181
			c0.211-0.591,0.395-1.164,0.588-1.743c-0.164-0.059-0.321-0.131-0.488-0.185c-8.39-2.728-17.408,0.541-25.722,3.493
			c-20.896,7.418-44.513,12.907-64.745,3.834c-13.322-5.975-27.05-15.33-34.133-28.097s-10.344-27.364-15.492-41.026
			c-2.318-6.152-4.477-14.099-9.7-20.092c-4.88-5.6-11.339-9.676-18.767-9.659c-6.1,0.014-11.739,1.835-16.957,8.06
			c-5.677,10.906-9.768,24.465-11.007,40.582C58.863,372.254,100.946,404.224,141.73,412.973z"/>
	</g>
</g>
<g id="Console_1_">
	<g id="Console">
		<g id="XMLID_17786_">
			<path id="XMLID_17793_" style="fill:#37474F;" d="M433.448,365.537l28.397-16.395c1.409-0.813,2.551-2.791,2.551-4.418
				l0.014,0.327c0-1.626-1.142-3.604-2.551-4.418l-57.109-32.972c-1.409-0.813-3.693-0.813-5.101,0l-28.397,16.395
				c-1.409,0.813-2.551,2.791-2.551,4.418l-0.014-0.327c0,1.627,1.142,3.604,2.551,4.418l57.109,32.972
				C429.756,366.35,432.04,366.35,433.448,365.537z"/>
			<path id="XMLID_17788_" style="fill:#263238;" d="M430.912,322.766l30.947,17.867c1.409,0.813,2.551,2.791,2.551,4.418
				l-0.014-0.327c0,1.627-1.142,3.605-2.551,4.418l-28.397,16.395c-0.704,0.406-1.627,0.61-2.55,0.61L430.912,322.766z"/>
			<path id="XMLID_17787_" style="fill:#455A64;" d="M461.859,343.578l-28.396,16.395c-1.409,0.813-3.693,0.813-5.101,0
				l-57.11-32.971c-1.409-0.813-1.409-2.132,0-2.945l28.397-16.395c1.409-0.813,3.693-0.813,5.101,0l57.109,32.972
				C463.268,341.446,463.268,342.765,461.859,343.578z"/>
		</g>
		<g>
			<path style="fill:#27DEBF;" d="M461.863,338.192v2.71l-29.48,17.02c-0.33,0.2-0.69,0.32-1.06,0.37c-0.64,0.09-1.3-0.03-1.88-0.37
				l-58.19-33.59v-2.81l57.11,33.06c0.71,0.41,1.62,0.61,2.54,0.61c0.93,0,1.85-0.2,2.56-0.61L461.863,338.192z"/>
			<path style="opacity:0.2;" d="M461.863,338.192v2.71l-29.48,17.02c-0.33,0.2-0.69,0.32-1.06,0.37c-0.14,0.01-0.28,0.02-0.42,0.02
				v-3.12c0.93,0,1.85-0.2,2.56-0.61L461.863,338.192z"/>
		</g>
		<g id="XMLID_17779_">
			<path id="XMLID_17775_" style="fill:#37474F;" d="M433.462,354.584l28.397-16.395c1.409-0.813,2.551-2.791,2.551-4.418l0-5.252
				c0-1.627-1.142-3.604-2.551-4.418l-57.109-32.972c-1.409-0.813-3.693-0.813-5.101,0l-28.397,16.395
				c-1.409,0.813-2.551,2.791-2.551,4.418l0,5.252c0,1.627,1.142,3.513,2.551,4.327l57.109,33.063
				C429.77,355.397,432.054,355.397,433.462,354.584z"/>
			<path id="XMLID_17785_" style="fill:#263238;" d="M430.912,306.233l30.947,17.867c1.409,0.813,2.551,2.791,2.551,4.418v5.252
				c0,1.627-1.142,3.605-2.551,4.418l-28.397,16.395c-0.704,0.407-1.627,0.61-2.55,0.61V306.233z"/>
			<path id="XMLID_17778_" style="fill:#455A64;" d="M461.859,327.046l-28.396,16.395c-1.409,0.813-3.693,0.813-5.101,0
				l-57.11-32.972c-1.409-0.813-1.409-2.132,0-2.945l28.397-16.395c1.409-0.813,3.693-0.813,5.101,0l57.109,32.972
				C463.268,324.914,463.268,326.233,461.859,327.046z"/>
		</g>
		<path id="XMLID_17784_" style="fill:#27DEBF;" d="M422.251,314.016c3.146,1.816,3.146,4.748,0,6.549
			c-3.146,1.801-8.245,1.801-11.39,0c-3.145-1.801-3.145-4.733,0-6.549C414.005,312.2,419.105,312.2,422.251,314.016z"/>
		<path id="XMLID_538_" style="fill:#27DEBF;" d="M375.879,315.932c0.55,0.312,0.996,1.089,0.996,1.734
			c0,0.646-0.446,0.916-0.996,0.603c-0.55-0.312-0.996-1.089-0.996-1.734C374.884,315.89,375.329,315.62,375.879,315.932z"/>
		<path id="XMLID_535_" style="fill:#27DEBF;" d="M375.879,319.784c0.55,0.312,0.996,1.089,0.996,1.734s-0.446,0.916-0.996,0.603
			c-0.55-0.312-0.996-1.089-0.996-1.734C374.884,319.742,375.329,319.472,375.879,319.784z"/>
	</g>
</g>
<g id="Speach_Bubble">
	<g id="Speach_Bubble_1_">
		<g id="XMLID_555_">
			<path id="XMLID_561_" style="fill:#27DEBF;" d="M118.057,150.536l0-15.009l12.669-1.105c0.198-0.017,0.376,0.025,0.526,0.107
				c0.491,0.269,10.699,6.137,10.855,6.23c0.468,0.281,0.637,0.962,0.206,1.43l-13.432,14.56L118.057,150.536z"/>
			<path id="XMLID_559_" style="fill:#27DEBF;" d="M128.882,156.749l13.432-14.56c0.575-0.623,0.082-1.627-0.763-1.553
				l-12.669,1.105V156.749z"/>
			<path id="XMLID_558_" style="fill:#27DEBF;" d="M118.062,135.522l10.82,6.223l12.672-1.109c0.16-0.011,0.309,0.011,0.437,0.064
				c-1.013-0.597-10.276-5.925-10.735-6.17c-0.149-0.085-0.331-0.128-0.533-0.107L118.062,135.522z"/>
			<path id="XMLID_556_" style="opacity:0.5;fill:#FFFFFF;" d="M118.062,135.522l10.82,6.223l12.672-1.109
				c0.16-0.011,0.309,0.011,0.437,0.064c-1.013-0.597-10.276-5.925-10.735-6.17c-0.149-0.085-0.331-0.128-0.533-0.107
				L118.062,135.522z"/>
		</g>
		<g id="Speach_Bubble_2_">
			<g id="XMLID_543_">
				<path id="XMLID_547_" style="fill:#27DEBF;" d="M128.887,123.571c0-2.005-1.408-4.443-3.144-5.446l-2.56-1.478
					c-1.736-1.003-4.552-1.003-6.289,0l-39.263,22.709c-1.737,1.003-3.145,3.441-3.145,5.446v43.2c0,2.006,1.408,4.443,3.145,5.446
					l2.56,1.478c1.737,1.003,4.552,1.003,6.289,0l39.263-22.709c1.737-1.002,3.144-3.44,3.144-5.446L128.887,123.571z"/>
				<path id="XMLID_546_" style="opacity:0.2;" d="M74.487,188.002c0,2.005,1.408,4.443,3.144,5.446l2.56,1.478
					c1.57,0.906,4.012,0.985,5.751,0.253c-1.48,0.56-2.607-0.275-2.607-2.069l0-43.2c0-1.003,0.352-2.114,0.921-3.099l-8.849-5.109
					c-0.569,0.985-0.921,2.096-0.921,3.099V188.002z"/>
				<path id="XMLID_545_" style="opacity:0.5;fill:#FFFFFF;" d="M128.784,122.677c-0.367-1.335-1.584-1.76-3.036-0.924
					l-39.27,22.714c-0.865,0.499-1.657,1.349-2.215,2.347l-8.845-5.105c0.572-0.997,1.35-1.848,2.215-2.347l39.256-22.714
					c1.745-0.998,4.562-0.998,6.293,0l2.567,1.482C127.23,118.981,128.476,120.888,128.784,122.677z"/>
			</g>
		</g>
		<polygon id="Heart" style="fill:#FFFFFF;" points="97.656,147.72 101.212,145.667 101.212,148.288 104.768,146.235 
			104.768,151.826 108.324,149.773 108.324,144.182 111.881,142.129 111.881,139.507 115.437,137.454 115.437,140.076 
			118.993,138.023 118.993,143.613 122.549,141.56 122.549,149.773 118.993,151.826 118.993,155.933 115.437,157.986 
			115.437,162.092 111.881,164.145 111.881,168.252 108.324,170.305 108.325,174.411 104.768,176.464 104.768,172.358 
			101.212,174.411 101.212,170.305 97.656,172.358 97.655,168.251 94.1,170.305 94.1,166.198 90.543,168.252 90.543,160.039 
			94.099,157.986 94.1,152.395 97.655,150.342 		"/>
	</g>
</g>
</svg>
